<?xml version="1.0" encoding="UTF-8" standalone="no"?>
<!-- Created with Inkscape (http://www.inkscape.org/) -->

<svg
   xmlns:dc="http://purl.org/dc/elements/1.1/"
   xmlns:cc="http://creativecommons.org/ns#"
   xmlns:rdf="http://www.w3.org/1999/02/22-rdf-syntax-ns#"
   xmlns:svg="http://www.w3.org/2000/svg"
   xmlns="http://www.w3.org/2000/svg"
   xmlns:xlink="http://www.w3.org/1999/xlink"
   xmlns:sodipodi="http://sodipodi.sourceforge.net/DTD/sodipodi-0.dtd"
   xmlns:inkscape="http://www.inkscape.org/namespaces/inkscape"
   width="80"
   height="80"
   id="svg4693"
   version="1.1"
   inkscape:version="0.48.0 r9654"
   sodipodi:docname="AK_S.svg"
   inkscape:export-filename="region01.png"
   inkscape:export-xdpi="90"
   inkscape:export-ydpi="90">
  <defs
     id="defs4695">
    <radialGradient
       r="128.28937"
       fy="458.89755"
       fx="364.66507"
       cy="458.89755"
       cx="364.66507"
       gradientTransform="matrix(0.713131,0.52519279,-0.43067748,0.58479374,302.24793,-0.98232581)"
       gradientUnits="userSpaceOnUse"
       id="radialGradient4658"
       xlink:href="#linearGradient3991-9"
       inkscape:collect="always" />
    <linearGradient
       id="linearGradient3991-9">
      <stop
         style="stop-color:#b9d2f0;stop-opacity:1;"
         offset="0"
         id="stop3993-4" />
      <stop
         style="stop-color:#b9d2f0;stop-opacity:0;"
         offset="1"
         id="stop3995-8" />
    </linearGradient>
    <radialGradient
       r="128.28937"
       fy="458.89755"
       fx="364.66507"
       cy="458.89755"
       cx="364.66507"
       gradientTransform="matrix(0.713131,0.52519279,-0.43067748,0.58479374,302.24793,-0.98232581)"
       gradientUnits="userSpaceOnUse"
       id="radialGradient4756-2"
       xlink:href="#linearGradient3991-9-4"
       inkscape:collect="always" />
    <linearGradient
       id="linearGradient3991-9-4">
      <stop
         style="stop-color:#b9d2f0;stop-opacity:1;"
         offset="0"
         id="stop3993-4-5" />
      <stop
         style="stop-color:#b9d2f0;stop-opacity:0;"
         offset="1"
         id="stop3995-8-5" />
    </linearGradient>
  </defs>
  <sodipodi:namedview
     id="base"
     pagecolor="#ffffff"
     bordercolor="#666666"
     borderopacity="1.0"
     inkscape:pageopacity="0.0"
     inkscape:pageshadow="2"
     inkscape:zoom="2"
     inkscape:cx="-31.581606"
     inkscape:cy="12.453925"
     inkscape:document-units="px"
     inkscape:current-layer="layer1"
     showgrid="false"
     inkscape:window-width="1366"
     inkscape:window-height="706"
     inkscape:window-x="-8"
     inkscape:window-y="-8"
     inkscape:window-maximized="1"
     showguides="true"
     inkscape:guide-bbox="true">
    <sodipodi:guide
       orientation="1,0"
       position="40,40"
       id="guide3824" />
    <sodipodi:guide
       orientation="0,1"
       position="-37.5,40.25"
       id="guide3826" />
  </sodipodi:namedview>
  <metadata
     id="metadata4698">
    <rdf:RDF>
      <cc:Work
         rdf:about="">
        <dc:format>image/svg+xml</dc:format>
        <dc:type
           rdf:resource="http://purl.org/dc/dcmitype/StillImage" />
        <dc:title />
      </cc:Work>
    </rdf:RDF>
  </metadata>
  <g
     inkscape:label="Layer 1"
     inkscape:groupmode="layer"
     id="layer1"
     transform="translate(0,-972.36218)">
    <rect
       style="fill:#000000;fill-opacity:1;stroke:#000000;stroke-width:0.22691278;stroke-miterlimit:4;stroke-opacity:0.98431373;stroke-dasharray:none"
       id="rect5301"
       width="79.773087"
       height="79.773087"
       x="0.11345673"
       y="972.47565" />
    <path
       inkscape:connector-curvature="0"
       style="fill:#eedfa1;fill-opacity:1;stroke:#f2e6b6;stroke-opacity:1"
       id="AK"
       d="m 57.281056,991.9114 -0.114355,30.3369 0.57184,0.3447 1.086586,0.058 0.514663,-0.4022 0.91498,0 0.0572,1.0342 2.459014,2.4132 0.171569,0.9193 1.20094,-0.6895 0.228747,-0.058 0.114385,-1.0917 0.51467,-0.5745 0.400309,-0.058 0.68624,-0.5171 1.086541,0.7469 0.228746,1.0343 0.68627,0.4022 0.400316,0.8618 1.372465,0.632 1.20094,2.1259 0.972194,1.3789 0.800587,0.9768 0.514701,1.3215 1.772781,0.632 1.829995,0.7469 0.343139,1.5514 0.171532,1.0917 -0.343101,1.2065 -0.629055,0.8044 -0.571886,-0.2873 -0.514663,-1.0916 -0.972194,-0.5171 -0.629055,-0.4022 -0.285924,0.2873 0.514671,0.9767 0.0572,1.3215 -0.400316,0.1723 -0.686233,-0.6894 -0.74341,-0.4596 0.171525,0.5745 0.457531,0.632 -0.285962,0.2873 c 0,0 -0.285916,-0.1149 -0.457486,-0.3448 -0.171569,-0.2297 -0.743409,-1.2065 -0.743409,-1.2065 l -0.343139,-0.8044 c 0,0 -0.114392,0.4597 -0.343139,0.3447 -0.228739,-0.1149 -0.457486,-0.5171 -0.457486,-0.5171 l 0.629056,-0.6894 -0.514664,-0.5172 0,-1.7812 -0.285961,0 -0.285924,1.2066 -0.400308,0.1724 -0.343139,-1.3215 -0.228739,-1.3215 -0.285924,-0.1723 0.114354,2.011 0,0.4022 -0.51467,-0.4597 -1.25811,-2.1258 -0.743448,-0.1725 -0.228746,-1.3215 -0.571848,-1.0342 -0.571878,-0.4022 0,-0.8044 0.74341,-0.4596 -0.171532,-0.1149 -0.915009,0.2298 -1.200941,-0.8619 -0.914979,-1.0341 -1.715603,-0.9193 -1.42968,-0.9194 0.457486,-1.1491 0,-0.5746 -0.629055,0.5746 -1.029371,0.4022 -1.315296,-0.4022 -2.00152,-0.8619 -1.944387,0 -0.228747,0.1725 -2.287481,-1.379 -0.74341,-0.1149 -0.972194,-2.0685 -1.258118,0.115 -1.25811,0.5171 0.171562,1.6088 0.400316,-1.0343 0.343131,0.1149 -0.5147,1.5514 1.143725,-0.9768 0.228784,0.5745 -1.372509,1.5514 -0.457486,-0.115 -0.17157,-0.6894 -0.457493,-0.2873 -0.457486,0.4022 -0.972193,-0.632 -1.086549,0.7469 -0.629055,0.7469 -1.200941,0.747 -1.658426,-0.058 -0.171569,-0.747 1.315332,-0.2298 0,-0.4596 -0.800624,-0.2299 0.343094,-0.8618 0.800632,-1.379 0,-0.6319 0.0572,-0.2873 1.544042,-0.8045 0.343131,0.4597 0.972157,0 -0.457486,-0.9193 -1.315295,-0.1149 -1.772818,0.9767 -0.857802,1.2067 -0.629055,0.9193 -0.400316,0.8044 -1.486857,0.517 -1.086549,0.9193 -0.114392,0.5746 0.800632,0.3447 0.285954,0.747 -0.972194,1.1491 -2.287481,1.4939 -2.744975,1.4938 -0.743447,0.4022 -1.887173,0.4022 -1.887173,0.8044 0.629063,0.4596 -0.514671,0.5171 -0.171569,0.4022 -0.972194,-0.3447 -1.143718,0.058 -0.285924,0.8044 -0.343139,0 0.114392,-0.8618 -1.25811,0.4596 -1.029371,0.3448 -1.200941,-0.4597 -1.029371,0.6895 -1.143718,0 -0.743447,0.4596 -0.571886,0.2873 -0.743409,-0.1149 -0.915016,-0.4022 -0.800589,0.2298 -0.343135,0.3447 -0.571881,-0.4021 0,-0.6894 1.086547,-0.4597 2.230306,0.2298 1.544042,-0.5746 0.743447,-0.7469 1.029364,-0.2298 0.629062,-0.2873 0.972157,0.058 0.571877,0.4597 0.343139,-0.115 0.800625,-0.9768 1.086541,-0.3447 1.20094,-0.2298 0.457493,-0.1149 0.228739,0.1724 0.285924,0 0.457494,-1.3215 1.429679,-0.5171 0.686233,-1.3215 0.800624,-1.6088 0.571878,-0.5171 0.114392,-0.9193 -0.571878,0.4597 -1.20094,0.2297 -0.228739,-0.8618 -0.457494,-0.1149 -0.343131,0.3447 -0.0572,1.0342 -0.514708,-0.057 -0.514663,-2.0685 -0.457493,0.4597 -0.400308,-0.1724 -0.114393,-0.6895 -1.429649,0.058 -0.743447,0.4022 -0.914979,-0.1149 0.51467,-0.5171 0.171569,-0.9193 -0.228746,-0.6895 0.514663,-0.3447 0.457493,-0.058 -0.228746,-0.632 0,-1.5514 -0.343102,-0.3447 -0.285954,0.5171 -2.173096,0 -0.514664,-0.4597 -0.228784,-1.3789 -0.743409,-1.264 0,-0.3448 0.743409,-0.2873 0.0572,-0.7469 0.400316,-0.4022 -0.285961,-0.1723 -0.457493,0.1723 -0.400309,-0.9767 0.343132,-1.7812 1.601219,-1.1491 0.915016,-0.5746 0.686233,-1.3215 0.972193,-0.4596 0.914979,0.4022 0.114385,0.8618 0.857809,-0.1149 1.143718,-0.8619 0.571885,0.2299 0.343132,0.2298 0.571848,0 0.800624,-0.4597 0.285954,-1.5513 c 0,0 0.114355,-1.0342 0.343101,-1.2066 0.228747,-0.1723 0.343139,-0.3447 0.343139,-0.3447 l -0.400316,-0.6895 -0.915017,0.2873 -1.143725,0.2873 -0.686233,-0.1723 -1.25811,-0.6321 -1.772818,-0.058 -1.258118,-1.3214 0.17157,-1.379 0.228746,-0.8618 -0.743417,-0.632 -0.68627,-1.3215 0.171569,-0.2873 2.401873,-0.1724 0.74341,0 0.343139,0.3447 0.228747,0 -0.0572,-0.5745 1.372465,-0.2298 0.915016,0.1149 0.514671,0.4022 -0.514671,0.7469 -0.171569,0.5171 0.972156,0.5746 1.772819,0.632 0.629062,-0.3447 -0.800632,-1.5514 -0.343131,-1.1491 0.343131,-0.2872 -1.200933,-0.6896 -0.171569,-0.4022 0.171569,-0.5745 -0.285924,-1.3789 -1.029371,-1.6663 -0.857802,-1.49384 1.029372,-0.68947 1.143725,0 0.629055,0.22977 1.486857,-0.0576 1.315333,-1.264 0.400308,-1.09173 1.315295,-0.86181 0.571878,0.34469 0.972157,-0.22984 1.315332,-0.74689 0.400271,-0.0576 0.343139,0.28727 1.601249,-0.0576 0.972156,-1.09165 0.400316,0 1.258111,0.86188 0.686269,0.74689 -0.171569,0.40219 0.228747,0.40219 0.571885,-0.57454 1.372465,0.11493 0.114392,1.3215 0.686232,0.51711 2.516229,0.22985 2.230311,1.49385 0.514663,-0.34477 1.829996,0.91934 0.74341,-0.22988 0.686269,-0.28727 1.715604,0.68945 1.544042,1.0342 z m -40.717158,10.2846 0.74341,1.8961 -0.0572,0.3447 -1.029371,-0.1149 -0.629054,-1.4364 -0.629058,-0.5171 -0.857802,0 -0.05718,-0.9193 0.629058,-0.8618 0.400312,0.8618 0.514667,0.5171 0.972193,0.2298 z m -0.915015,11.8935 1.315331,0.2873 1.315288,0.3448 0.285924,0.3447 -0.571848,1.3215 -1.086578,-0.058 -1.200903,-1.264 -0.05721,-0.9768 z m -7.3199425,-4.9987 0.4003123,0.9193 0.400313,0.5746 -0.400313,0.2872 -0.7434113,-1.0916 0,-0.6895 0.343099,0 z m -4.8608905,25.9703 1.2009375,-0.8044 1.2009374,-0.3448 0.9149791,0.1149 0.1715679,0.5746 0.6862339,0.1724 0.6862347,-0.6895 -0.1143538,-0.5745 0.9721923,-0.2299 1.02937,0.9194 -0.400313,0.632 -1.5440728,0.4021 -0.9721564,-0.1723 -1.315328,-0.4022 -1.5440365,0.5171 -0.5718801,0.1149 -0.4003122,-0.2298 z m 17.32768,-1.6088 0.571885,0.6895 0.74341,-0.5746 -0.51467,-0.4596 -0.800625,0.3447 z m 1.029371,1.0916 0.400316,-0.8043 0.74341,0.1149 -0.285924,0.6894 -0.857802,0 z m 8.349316,-0.6894 0.514663,0.632 0.343139,-0.4022 -0.285961,-0.6894 -0.571841,0.4596 z m 3.088069,-4.4241 0.400316,2.0684 1.029363,0.2873 1.772819,-1.0342 1.544041,-0.9193 -0.571885,-0.8619 0.171569,-0.8618 -0.743409,0.4597 -1.029371,-0.2874 0.571877,-0.4022 0.68624,0.2873 1.372465,-0.632 0.17157,-0.5171 -0.857802,-0.2873 0.285924,-0.6895 -0.972157,0.6895 -1.658426,1.264 -1.715611,1.0343 -0.457523,0.4022 z m 14.983021,-7.0672 0.857802,-0.5171 -0.343139,-0.632 -0.629055,0.3448 0.114392,0.8043 z" />
    <text
       xml:space="preserve"
       style="font-size:37.52261353px;font-style:normal;font-variant:normal;font-weight:normal;font-stretch:normal;line-height:125%;letter-spacing:0px;word-spacing:0px;fill:#000000;fill-opacity:1;stroke:#f2e6b6;stroke-width:1;stroke-miterlimit:4;stroke-opacity:1;stroke-dasharray:none;font-family:KaiTi;-inkscape-font-specification:KaiTi"
       x="94.101311"
       y="1091.6572"
       id="text3812"
       sodipodi:linespacing="125%"
       transform="scale(1.0660084,0.93807892)"><tspan
         sodipodi:role="line"
         id="tspan3814"
         x="94.101311"
         y="1091.6572"
         style="stroke:#f2e6b6;stroke-width:1;stroke-miterlimit:4;stroke-opacity:1;stroke-dasharray:none">AK</tspan></text>
  </g>
</svg>
