<?xml version="1.0" encoding="UTF-8" standalone="no"?>
<!-- Created with Inkscape (http://www.inkscape.org/) -->

<svg
   xmlns:dc="http://purl.org/dc/elements/1.1/"
   xmlns:cc="http://creativecommons.org/ns#"
   xmlns:rdf="http://www.w3.org/1999/02/22-rdf-syntax-ns#"
   xmlns:svg="http://www.w3.org/2000/svg"
   xmlns="http://www.w3.org/2000/svg"
   xmlns:xlink="http://www.w3.org/1999/xlink"
   xmlns:sodipodi="http://sodipodi.sourceforge.net/DTD/sodipodi-0.dtd"
   xmlns:inkscape="http://www.inkscape.org/namespaces/inkscape"
   width="80"
   height="80"
   id="svg4693"
   version="1.1"
   inkscape:version="0.48.0 r9654"
   sodipodi:docname="CA.svg"
   inkscape:export-filename="region01.png"
   inkscape:export-xdpi="90"
   inkscape:export-ydpi="90">
  <defs
     id="defs4695">
    <radialGradient
       r="128.28937"
       fy="458.89755"
       fx="364.66507"
       cy="458.89755"
       cx="364.66507"
       gradientTransform="matrix(0.713131,0.52519279,-0.43067748,0.58479374,302.24793,-0.98232581)"
       gradientUnits="userSpaceOnUse"
       id="radialGradient4658"
       xlink:href="#linearGradient3991-9"
       inkscape:collect="always" />
    <linearGradient
       id="linearGradient3991-9">
      <stop
         style="stop-color:#b9d2f0;stop-opacity:1;"
         offset="0"
         id="stop3993-4" />
      <stop
         style="stop-color:#b9d2f0;stop-opacity:0;"
         offset="1"
         id="stop3995-8" />
    </linearGradient>
    <radialGradient
       r="128.28937"
       fy="458.89755"
       fx="364.66507"
       cy="458.89755"
       cx="364.66507"
       gradientTransform="matrix(0.713131,0.52519279,-0.43067748,0.58479374,302.24793,-0.98232581)"
       gradientUnits="userSpaceOnUse"
       id="radialGradient4756-2"
       xlink:href="#linearGradient3991-9-4"
       inkscape:collect="always" />
    <linearGradient
       id="linearGradient3991-9-4">
      <stop
         style="stop-color:#b9d2f0;stop-opacity:1;"
         offset="0"
         id="stop3993-4-5" />
      <stop
         style="stop-color:#b9d2f0;stop-opacity:0;"
         offset="1"
         id="stop3995-8-5" />
    </linearGradient>
  </defs>
  <sodipodi:namedview
     id="base"
     pagecolor="#ffffff"
     bordercolor="#666666"
     borderopacity="1.0"
     inkscape:pageopacity="0.0"
     inkscape:pageshadow="2"
     inkscape:zoom="2"
     inkscape:cx="-31.581606"
     inkscape:cy="12.453925"
     inkscape:document-units="px"
     inkscape:current-layer="layer1"
     showgrid="false"
     inkscape:window-width="1366"
     inkscape:window-height="706"
     inkscape:window-x="-8"
     inkscape:window-y="-8"
     inkscape:window-maximized="1"
     showguides="true"
     inkscape:guide-bbox="true">
    <sodipodi:guide
       orientation="1,0"
       position="40,40"
       id="guide3824" />
    <sodipodi:guide
       orientation="0,1"
       position="-37.5,40.25"
       id="guide3826" />
  </sodipodi:namedview>
  <metadata
     id="metadata4698">
    <rdf:RDF>
      <cc:Work
         rdf:about="">
        <dc:format>image/svg+xml</dc:format>
        <dc:type
           rdf:resource="http://purl.org/dc/dcmitype/StillImage" />
        <dc:title />
      </cc:Work>
    </rdf:RDF>
  </metadata>
  <g
     inkscape:label="Layer 1"
     inkscape:groupmode="layer"
     id="layer1"
     transform="translate(0,-972.36218)">
    <rect
       style="fill:#000000;fill-opacity:1;stroke:#000000;stroke-width:0.22691278;stroke-miterlimit:4;stroke-opacity:0.98431373;stroke-dasharray:none"
       id="rect5301"
       width="79.773087"
       height="79.773087"
       x="0.11345673"
       y="972.47565" />
    <path
       inkscape:connector-curvature="0"
       style="color:#000000;fill:#eedfa1;fill-opacity:1;fill-rule:nonzero;stroke:#f2e6b6;stroke-width:1;stroke-linecap:butt;stroke-linejoin:miter;stroke-miterlimit:4;stroke-opacity:1;stroke-dasharray:none;stroke-dashoffset:0;marker:none;visibility:visible;display:inline;overflow:visible;enable-background:accumulate"
       id="CA"
       d="m 56.31574,1049.7593 1.28301,-0.2523 0.461,-0.6769 0.1773,-0.855 -1.13474,-0.1782 -0.14182,-0.2494 0.14182,-0.5344 0.0355,-1.8169 0.63826,-0.2138 0.8865,-0.8551 0.17733,-1.5319 0.46097,-1.1401 0.60282,-0.6056 1.06379,-0.5344 0.49644,-0.4276 0.0355,-0.7125 -0.31915,-0.1781 -0.24824,-0.3207 -0.39006,-1.8169 -0.85102,-1.532 0.17943,-1.0184 -0.78226,-1.0123 -4.5034,-7.0898 -6.0282,-9.0493 -7.05652,-10.5455 -3.8408,-5.7914 0.50756,-2.0465 2.16306,-8.08732 2.51764,-9.7974 -4.18425,-1.1401 -4.18426,-1.0688 -3.90062,-1.2826 -2.34035,-0.6413 -3.54599,-0.9263 -2.18719,-0.7516 -0.49018,1.4724 -0.0501,2.3177 -1.60472,3.678 -0.95284,0.8062 -0.10028,0.3526 -0.55163,0.2519 -0.45132,1.31 -0.25076,1.0077 0.85253,1.31 0.50146,1.31 0.35104,1.1084 -0.10028,2.0154 -0.55163,0.9573 -0.20059,1.81382 -0.3009,1.1589 0.55163,1.2092 0.85253,1.4107 0.70205,1.5115 0.40121,1.2597 -0.10031,1.0076 -0.10031,0.1512 0,0.655 1.75519,1.965 -0.15045,0.7557 -0.20058,0.7054 -0.20059,0.6046 0.0501,2.5696 0.65194,1.1588 0.60176,0.8062 0.8525,0.1511 0.3009,0.8565 -0.35104,1.1085 -0.65191,0.5038 -0.35104,0 -0.25076,1.2093 0.15045,0.9069 1.00295,1.3603 0.50149,1.6627 0.45132,1.4611 0.40121,0.9574 1.05309,1.8138 0.45135,0.8061 0.15042,0.9069 0.50149,0.3023 0,0.7558 -0.25073,0.6046 -0.55163,2.2169 -0.15045,0.6046 0.75222,0.8565 1.30384,0.1512 1.40413,0.5542 1.20357,0.655 0.90264,0 0.90267,0.9573 0.80239,1.5115 0.351,0.7054 1.20357,0.655 1.50444,0.2519 0.45132,0.655 0.20059,1.0077 -0.45132,0.2015 0.10028,0.3023 1.00298,0.2519 0.8525,0.05 0.90267,1.4612 1.20353,1.31 0.25076,0.7053 0.80236,1.31 0.10028,1.0077 0,2.9223 0.15045,0.5542 3.10919,0.4535 6.11803,0.8565 4.51331,0.5038 z m -27.48093,-15.695 0.40118,0.4786 -0.0502,0.4031 -1.00295,-0.025 -0.1755,-0.3778 -0.20059,-0.4535 1.02803,-0.025 z m 0.60177,0 0.37609,-0.2016 1.10326,0.655 0.95281,0.3779 -0.27581,0.2015 -1.40413,-0.075 -0.50149,-0.5039 -0.25073,-0.4534 z m 6.41896,6.172 0.5516,0.7306 0.25076,0.3023 0.4764,0.1764 0.17551,-0.4535 -0.30087,-0.5542 -0.82744,-0.6298 -0.32596,0.05 0,0.3778 z m -0.45135,2.6956 0.55163,0.9825 0.37613,0.6046 -0.45136,0.076 -0.40117,-0.3779 c 0,0 -0.22568,-0.4535 -0.22568,-0.5794 0,-0.126 0,-0.6802 0,-0.6802 l 0.15045,-0.025 z" />
    <text
       xml:space="preserve"
       style="font-size:37.52261353px;font-style:normal;font-variant:normal;font-weight:normal;font-stretch:normal;line-height:125%;letter-spacing:0px;word-spacing:0px;fill:#000000;fill-opacity:1;stroke:#f2e6b6;stroke-width:1;stroke-miterlimit:4;stroke-opacity:1;stroke-dasharray:none;font-family:KaiTi;-inkscape-font-specification:KaiTi"
       x="94.101311"
       y="1091.6572"
       id="text3812"
       sodipodi:linespacing="125%"
       transform="scale(1.0660084,0.93807892)"><tspan
         sodipodi:role="line"
         id="tspan3814"
         x="94.101311"
         y="1091.6572"
         style="stroke:#f2e6b6;stroke-width:1;stroke-miterlimit:4;stroke-opacity:1;stroke-dasharray:none">CA</tspan></text>
  </g>
</svg>
