<?xml version="1.0" encoding="UTF-8" standalone="no"?>
<!-- Created with Inkscape (http://www.inkscape.org/) -->

<svg
   xmlns:dc="http://purl.org/dc/elements/1.1/"
   xmlns:cc="http://creativecommons.org/ns#"
   xmlns:rdf="http://www.w3.org/1999/02/22-rdf-syntax-ns#"
   xmlns:svg="http://www.w3.org/2000/svg"
   xmlns="http://www.w3.org/2000/svg"
   xmlns:xlink="http://www.w3.org/1999/xlink"
   xmlns:sodipodi="http://sodipodi.sourceforge.net/DTD/sodipodi-0.dtd"
   xmlns:inkscape="http://www.inkscape.org/namespaces/inkscape"
   width="80"
   height="80"
   id="svg4693"
   version="1.1"
   inkscape:version="0.48.0 r9654"
   sodipodi:docname="FL.svg"
   inkscape:export-filename="region01.png"
   inkscape:export-xdpi="90"
   inkscape:export-ydpi="90">
  <defs
     id="defs4695">
    <radialGradient
       r="128.28937"
       fy="458.89755"
       fx="364.66507"
       cy="458.89755"
       cx="364.66507"
       gradientTransform="matrix(0.713131,0.52519279,-0.43067748,0.58479374,302.24793,-0.98232581)"
       gradientUnits="userSpaceOnUse"
       id="radialGradient4658"
       xlink:href="#linearGradient3991-9"
       inkscape:collect="always" />
    <linearGradient
       id="linearGradient3991-9">
      <stop
         style="stop-color:#b9d2f0;stop-opacity:1;"
         offset="0"
         id="stop3993-4" />
      <stop
         style="stop-color:#b9d2f0;stop-opacity:0;"
         offset="1"
         id="stop3995-8" />
    </linearGradient>
    <radialGradient
       r="128.28937"
       fy="458.89755"
       fx="364.66507"
       cy="458.89755"
       cx="364.66507"
       gradientTransform="matrix(0.713131,0.52519279,-0.43067748,0.58479374,302.24793,-0.98232581)"
       gradientUnits="userSpaceOnUse"
       id="radialGradient4756-2"
       xlink:href="#linearGradient3991-9-4"
       inkscape:collect="always" />
    <linearGradient
       id="linearGradient3991-9-4">
      <stop
         style="stop-color:#b9d2f0;stop-opacity:1;"
         offset="0"
         id="stop3993-4-5" />
      <stop
         style="stop-color:#b9d2f0;stop-opacity:0;"
         offset="1"
         id="stop3995-8-5" />
    </linearGradient>
  </defs>
  <sodipodi:namedview
     id="base"
     pagecolor="#ffffff"
     bordercolor="#666666"
     borderopacity="1.0"
     inkscape:pageopacity="0.0"
     inkscape:pageshadow="2"
     inkscape:zoom="5.6568542"
     inkscape:cx="34.017357"
     inkscape:cy="31.838577"
     inkscape:document-units="px"
     inkscape:current-layer="layer1"
     showgrid="false"
     inkscape:window-width="1366"
     inkscape:window-height="706"
     inkscape:window-x="-8"
     inkscape:window-y="-8"
     inkscape:window-maximized="1"
     showguides="true"
     inkscape:guide-bbox="true">
    <sodipodi:guide
       orientation="1,0"
       position="40,40"
       id="guide3824" />
    <sodipodi:guide
       orientation="0,1"
       position="-37.5,40.25"
       id="guide3826" />
  </sodipodi:namedview>
  <metadata
     id="metadata4698">
    <rdf:RDF>
      <cc:Work
         rdf:about="">
        <dc:format>image/svg+xml</dc:format>
        <dc:type
           rdf:resource="http://purl.org/dc/dcmitype/StillImage" />
        <dc:title />
      </cc:Work>
    </rdf:RDF>
  </metadata>
  <g
     inkscape:label="Layer 1"
     inkscape:groupmode="layer"
     id="layer1"
     transform="translate(0,-972.36218)">
    <rect
       style="fill:#000000;fill-opacity:1;stroke:#000000;stroke-width:0.22691278;stroke-miterlimit:4;stroke-opacity:0.98431373;stroke-dasharray:none"
       id="rect5301"
       width="79.773087"
       height="79.773087"
       x="0.11345673"
       y="972.47565" />
    <path
       inkscape:connector-curvature="0"
       style="color:#000000;fill:#eedfa1;fill-opacity:1;fill-rule:nonzero;stroke:#f2e6b6;stroke-width:1;stroke-linecap:butt;stroke-linejoin:miter;stroke-miterlimit:4;stroke-opacity:1;stroke-dasharray:none;stroke-dashoffset:0;marker:none;visibility:visible;display:inline;overflow:visible;enable-background:accumulate"
       id="FL"
       d="m 57.54086,980.62666 0.981988,3.874 1.753225,4.6013 2.507803,4.4284 1.74785,2.97772 2.279812,2.59592 1.89986,1.7561 0.759905,1.3744 -0.531914,0.6108 -0.380001,0.6108 1.367897,3.5121 1.367897,1.3743 1.215887,2.5197 1.671869,2.7486 2.127802,3.894 0.607992,3.5885 0.227942,5.65 0.303972,0.8399 -0.151962,1.6033 -1.139906,0.6109 0.151962,0.9162 -0.303972,0.9162 0.15201,1.1453 0.227991,0.9162 -1.291916,1.527 -1.443878,0.6872 -1.823831,0.076 -0.683972,0.7635 -1.139906,0.4581 -0.607944,-0.229 -0.531963,-0.4581 -0.151961,-1.3743 -0.380001,-1.6034 -1.59584,-2.4433 -1.671868,-1.0689 -1.823831,-0.1527 -0.380001,0.6108 -1.443878,-2.0615 -0.303972,-1.6797 -1.215887,-1.9088 -0.835934,-0.5345 -0.759953,0.9926 -0.835886,-0.1527 -0.987945,-2.3669 -1.367897,-1.8325 -1.367897,-2.5195 -1.215887,-1.4507 -1.671869,-1.7561 0.987945,-1.1453 1.519858,-2.5959 -0.07598,-0.7635 -2.127851,-0.4581 -0.759905,0.3053 0.151962,0.3055 1.215935,0.4581 -0.683973,2.1378 -0.379952,0.2291 -0.835935,-1.9088 -0.607943,-2.2906 -0.15201,-1.2979 0.683972,-2.2142 0,-4.5048 -1.443878,-1.7561 -0.607943,-1.45062 -2.431822,-0.6109 -0.911916,-0.3053 -0.759953,-1.2217 -1.59584,-0.7635 -0.531962,-1.60342 -1.291917,-0.4581 -1.139906,-1.7561 -1.97584,-0.6871 -1.367849,-0.6872 -1.215935,0 -1.899811,0.3818 -0.07603,0.9162 0.380001,0.4581 -0.227991,0.5344 -1.443878,-0.076 -1.747849,1.6797 -1.671869,0.91622 -1.82383,0 -1.519907,0.6109 -0.151962,-1.29802 -0.759954,-0.9162 -1.367897,-0.5345 -0.759905,-0.6872 -3.799719,-1.8324 -3.57168,-0.8399 -2.051822,0.3054 -2.811775,0.2291 -2.8117746,0.9926 -1.635549,0.2895 -0.1118163,-3.8019 -1.2158869,-0.9162 -0.8359344,-0.8399 0.1519616,-1.4507 4.7876154,-0.6108 12.0070052,-1.3743 3.191776,-0.3054 2.887755,-0.076 1.215887,1.8325 0.683973,0.6871 3.72369,0.076 5.086164,-0.3054 10.112568,-0.6108 2.559959,-0.3185 2.151676,0.013 0.07598,1.3744 1.215887,0.3817 0.15201,-2.0615 -0.759954,-2.1378 0.531963,-0.7635 2.735794,0.3817 2.431774,0.1527 z m 5.814301,62.95194 1.139906,-0.3055 0.607944,-0.1145 0.683972,-1.1071 1.101892,-0.7635 0.607943,0.2291 0.797969,0.1527 0.189976,0.4963 -1.633903,0.5726 -1.97584,0.6872 -1.101892,0.5726 -0.417967,-0.4199 z m 6.345489,-2.367 0.569977,0.4964 1.291868,-0.9926 2.507803,-1.9852 1.74785,-1.8324 1.17792,-3.1304 0.455982,-0.8017 0.07598,-1.6034 -0.341986,0.229 -0.455934,1.3362 -0.683972,2.176 -1.519859,2.4814 -2.05187,1.9852 -1.595839,0.9162 -1.177921,0.7253 z" />
    <text
       xml:space="preserve"
       style="font-size:37.52261353px;font-style:normal;font-variant:normal;font-weight:normal;font-stretch:normal;line-height:125%;letter-spacing:0px;word-spacing:0px;fill:#000000;fill-opacity:1;stroke:#f2e6b6;stroke-width:1;stroke-miterlimit:4;stroke-opacity:1;stroke-dasharray:none;font-family:KaiTi;-inkscape-font-specification:KaiTi"
       x="94.101311"
       y="1091.6572"
       id="text3812"
       sodipodi:linespacing="125%"
       transform="scale(1.0660084,0.93807892)"><tspan
         sodipodi:role="line"
         id="tspan3814"
         x="94.101311"
         y="1091.6572"
         style="stroke:#f2e6b6;stroke-width:1;stroke-miterlimit:4;stroke-opacity:1;stroke-dasharray:none">FL</tspan></text>
  </g>
</svg>
