<?xml version="1.0" encoding="UTF-8" standalone="no"?>
<!-- Created with Inkscape (http://www.inkscape.org/) -->

<svg
   xmlns:dc="http://purl.org/dc/elements/1.1/"
   xmlns:cc="http://creativecommons.org/ns#"
   xmlns:rdf="http://www.w3.org/1999/02/22-rdf-syntax-ns#"
   xmlns:svg="http://www.w3.org/2000/svg"
   xmlns="http://www.w3.org/2000/svg"
   xmlns:xlink="http://www.w3.org/1999/xlink"
   xmlns:sodipodi="http://sodipodi.sourceforge.net/DTD/sodipodi-0.dtd"
   xmlns:inkscape="http://www.inkscape.org/namespaces/inkscape"
   width="80"
   height="80"
   id="svg4693"
   version="1.1"
   inkscape:version="0.48.0 r9654"
   sodipodi:docname="MI.svg"
   inkscape:export-filename="region01.png"
   inkscape:export-xdpi="90"
   inkscape:export-ydpi="90">
  <defs
     id="defs4695">
    <radialGradient
       r="128.28937"
       fy="458.89755"
       fx="364.66507"
       cy="458.89755"
       cx="364.66507"
       gradientTransform="matrix(0.713131,0.52519279,-0.43067748,0.58479374,302.24793,-0.98232581)"
       gradientUnits="userSpaceOnUse"
       id="radialGradient4658"
       xlink:href="#linearGradient3991-9"
       inkscape:collect="always" />
    <linearGradient
       id="linearGradient3991-9">
      <stop
         style="stop-color:#b9d2f0;stop-opacity:1;"
         offset="0"
         id="stop3993-4" />
      <stop
         style="stop-color:#b9d2f0;stop-opacity:0;"
         offset="1"
         id="stop3995-8" />
    </linearGradient>
    <radialGradient
       r="128.28937"
       fy="458.89755"
       fx="364.66507"
       cy="458.89755"
       cx="364.66507"
       gradientTransform="matrix(0.713131,0.52519279,-0.43067748,0.58479374,302.24793,-0.98232581)"
       gradientUnits="userSpaceOnUse"
       id="radialGradient4756-2"
       xlink:href="#linearGradient3991-9-4"
       inkscape:collect="always" />
    <linearGradient
       id="linearGradient3991-9-4">
      <stop
         style="stop-color:#b9d2f0;stop-opacity:1;"
         offset="0"
         id="stop3993-4-5" />
      <stop
         style="stop-color:#b9d2f0;stop-opacity:0;"
         offset="1"
         id="stop3995-8-5" />
    </linearGradient>
    <radialGradient
       inkscape:collect="always"
       xlink:href="#linearGradient3991-9-4"
       id="radialGradient3822"
       cx="40.6875"
       cy="1015.2216"
       fx="40.6875"
       fy="1015.2216"
       r="19.53125"
       gradientTransform="matrix(1,0,0,0.7,0,304.56647)"
       gradientUnits="userSpaceOnUse" />
  </defs>
  <sodipodi:namedview
     id="base"
     pagecolor="#ffffff"
     bordercolor="#666666"
     borderopacity="1.0"
     inkscape:pageopacity="0.0"
     inkscape:pageshadow="2"
     inkscape:zoom="2.8284271"
     inkscape:cx="82.393562"
     inkscape:cy="42.842752"
     inkscape:document-units="px"
     inkscape:current-layer="layer1"
     showgrid="false"
     inkscape:window-width="1366"
     inkscape:window-height="706"
     inkscape:window-x="-8"
     inkscape:window-y="-8"
     inkscape:window-maximized="1"
     showguides="true"
     inkscape:guide-bbox="true">
    <sodipodi:guide
       orientation="1,0"
       position="40,40"
       id="guide3824" />
    <sodipodi:guide
       orientation="0,1"
       position="-37.5,40.25"
       id="guide3826" />
  </sodipodi:namedview>
  <metadata
     id="metadata4698">
    <rdf:RDF>
      <cc:Work
         rdf:about="">
        <dc:format>image/svg+xml</dc:format>
        <dc:type
           rdf:resource="http://purl.org/dc/dcmitype/StillImage" />
        <dc:title />
      </cc:Work>
    </rdf:RDF>
  </metadata>
  <g
     inkscape:label="Layer 1"
     inkscape:groupmode="layer"
     id="layer1"
     transform="translate(0,-972.36218)">
    <rect
       style="fill:#000000;fill-opacity:1;stroke:#000000;stroke-width:0.22691278;stroke-miterlimit:4;stroke-opacity:0.98431373;stroke-dasharray:none"
       id="rect5301"
       width="79.773087"
       height="79.773087"
       x="0.11345673"
       y="972.47565" />
    <path
       inkscape:connector-curvature="0"
       style="fill:#eedfa1;fill-opacity:1;stroke:#f2e6b6;stroke-width:1;stroke-miterlimit:4;stroke-opacity:1;stroke-dasharray:none"
       id="WA"
       d="m -88.81333,996.1139 2.77356,0.9289 6.16346,1.7545 5.44439,1.2385 12.73782,3.6123 14.58686,3.6123 10.24539,2.3721 -0.63815,2.4797 -2.39702,8.6114 -2.83285,13.2823 -2.32439,10.509 -0.12141,6.1925 -8.88559,-2.1787 -9.58811,-2.2623 -9.80601,0.073 -0.29054,-0.8758 -3.48659,1.3136 -2.83285,-0.3648 -1.52538,-1.0218 -0.79901,0.4379 -2.97812,-0.1459 -1.08955,-0.8758 -3.34132,-1.3136 -0.50846,0.073 -2.76021,-0.9487 -1.23483,1.1676 -3.92241,-0.2189 -3.77713,-2.6273 0.43582,-0.5108 0.14528,-4.9626 -1.45275,-2.4813 -2.61493,-0.3649 -0.43582,-1.6055 -1.49577,-0.2979 -1.21919,-0.9562 -1.12997,0.6192 -1.43814,-1.8577 0.20545,-1.8578 1.74632,-0.2064 1.02724,-2.5802 -1.64359,-0.7224 0.10272,-2.3738 2.77356,-0.4129 -1.74631,-1.7545 -0.92452,-4.5412 0.4109,-1.8577 0,-5.0571 -1.12998,-2.0642 1.43815,-5.9861 1.33541,0.3097 1.54087,1.8577 1.74631,1.6514 2.05449,1.2385 2.87629,1.3417 1.95176,0.4128 1.84904,0.9289 2.15721,0.6192 1.43815,-0.1032 0,-1.5481 0.82179,-0.7225 1.33541,-0.8256 0.20546,0.7224 0.20544,1.1353 -1.43814,0.3096 -0.20545,1.3417 1.12997,0.9289 0.71907,1.5481 0.4109,1.2385 0.92452,-0.1032 0.10272,-0.8256 -0.61634,-0.8257 -0.30817,-2.0642 0.51362,-1.1353 -0.4109,-0.9288 0,-1.4449 1.12996,-2.2706 -0.71906,-1.6514 -1.54087,-3.0962 0.20545,-0.516 0.71907,-0.5161 z m -6.00909,3.8171 1.28406,-0.1032 0.30817,0.8773 0.97589,-1.0321 1.4895,0 0.51362,0.9805 -0.97588,1.0836 0.4109,0.5161 -0.46226,1.2901 -0.87316,0.258 c 0,0 -0.56499,0.052 -0.56499,-0.1548 0,-0.2064 0.92453,-1.6513 0.92453,-1.6513 l -1.07861,-0.3613 -0.20545,0.9289 -0.46226,0.4129 -0.97589,-1.445 -0.30817,-1.5997 z" />
    <path
       inkscape:connector-curvature="0"
       style="color:#000000;fill:#eedfa1;fill-opacity:1;fill-rule:nonzero;stroke:#f2e6b6;stroke-width:1;stroke-linecap:butt;stroke-linejoin:miter;stroke-miterlimit:4;stroke-opacity:1;stroke-dasharray:none;stroke-dashoffset:0;marker:none;visibility:visible;display:inline;overflow:visible;enable-background:accumulate"
       id="MI"
       d="m 11.168175,976.6887 1.04055,-1.17615 1.23573,-0.45739 3.05665,-2.22162 1.30072,-0.32672 0.26011,0.26138 -2.9266,2.94038 -1.886,1.1108 -1.17066,0.52274 -0.9105,-0.65342 z m 49.02734,18.36484 0.36795,1.4323 1.83946,0.092 0.73578,-0.693 c 0,0 -0.0457,-0.8317 -0.22992,-0.9241 -0.18398,-0.092 -0.91976,-1.0627 -0.91976,-1.0627 l -1.24164,0.1386 -0.91976,0.092 -0.18392,0.6469 0.55181,0.2772 z m 17.10576,36.03976 -1.83946,-4.7128 -1.28765,-5.1748 -1.37961,-1.8481 -1.47157,-1.0165 -0.91975,0.6469 -2.20735,1.0165 -1.10374,2.8646 -1.56352,2.1253 -0.64383,0.3697 -0.82774,-0.3697 c 0,0 -1.47162,-0.8316 -1.37961,-1.2012 0.092,-0.3697 0.27594,-2.8647 0.27594,-2.8647 l 1.93141,-0.7392 0.45985,-1.9406 0.36789,-1.4785 1.37961,-0.9241 -0.18391,-5.7292 -0.91976,-1.2937 -0.73578,-0.462 -0.45985,-1.2013 0.45985,-0.462 0.91975,0.1848 0.092,-0.9241 -1.37961,-1.2937 -0.73578,-1.4785 -1.47157,0 -2.5753,-0.8317 -3.1271,-1.9405 -1.56353,0 -0.36789,0.3696 -0.55187,-0.2772 -1.7475,-1.29355 -1.65554,1.01635 -1.65554,1.2936 0.18398,2.033 0.55186,0.1848 1.19564,0.2773 0.27593,0.462 -1.47157,0.462 -1.47162,0.1848 -0.82774,1.0165 -0.18398,1.2013 0.18398,0.9241 0.18391,3.1418 -2.02337,1.2013 -0.36789,-0.092 0,-2.4026 0.73578,-1.3861 0.36789,-1.3861 -0.45991,-0.462 -1.10367,0.462 -0.55181,2.4026 -1.56358,0.6468 -1.01172,1.1089 -0.092,0.5544 0.3679,0.4621 -0.3679,1.4785 -1.28765,0.2772 0,0.6469 0.45991,1.3861 -0.64382,3.5114 -0.91976,2.3102 0.36789,2.6798 0.27593,0.6468 -0.45985,1.3862 -0.18397,0.462 -0.18392,1.5709 2.02338,3.4191 1.65554,3.6963 0.8278,2.7722 -0.45991,2.6798 -0.55181,3.419 -1.37961,2.957 -0.18397,1.571 -1.75406,1.7782 -0.42281,0.4393 2.63731,-0.093 12.50848,-1.2937 3.495,-0.3696 0.18392,0.693 4.41476,-0.693 5.79436,-0.9241 2.96752,-0.2635 -0.76075,-0.6601 0.0919,-0.8317 1.1957,-2.1253 1.13813,-0.9935 -0.12642,-2.8876 0.90857,-0.9129 0.62049,-0.196 0.12642,-2.033 0.87375,-1.7326 0.59788,0.3465 0.092,0.3696 0.45985,0.092 1.10367,-0.5544 -0.18391,-5.452 z m -74.8160875,-37.48026 1.053095,-0.5913 1.563524,-0.462 2.023433,-1.2937 0,-0.5544 0.36789,-0.3697 3.4030405,-0.5544 1.379605,-1.1089 2.48329,-1.2013 0.092,-0.7392 1.10368,-1.6633 1.01171,-0.4621 0.73579,-1.0165 1.28765,-1.2937 2.48328,-1.3861 2.6672,-0.2772 0.64382,0.6469 -0.18391,0.5544 -2.11539,0.5544 -0.8278,1.7558 -1.2876,0.462 -0.27593,1.3861 -1.37961,1.8482 -0.18397,1.4785 0.45991,0.2772 0.5518,-0.6469 2.02344,-1.6633 0.73578,0.7393 1.28765,0 1.83946,0.5544 0.8278,0.6468 0.82774,1.7558 1.56352,1.5709 2.20741,-0.092 0.82774,-0.5545 0.91976,0.7393 0.91976,0.2772 0.73578,-0.462 0.64377,0 0.91976,-0.5545 2.29936,-2.0329 1.93142,-0.6469 3.77093,-0.1848 2.5753,-1.1088 1.47157,-0.7393 0.82774,0.092 0,3.2342 0.27593,0.1849 1.65554,0.462 1.10368,-0.2772 3.495,-0.9241 0.64382,-0.6468 0.82774,0.2772 0,3.9735 1.83952,1.7557 0.73578,0.3696 0.73579,0.5545 -0.73579,0.1848 -0.45985,-0.1848 -2.11545,-0.2772 -1.19563,0.3696 -1.28765,-0.092 -1.83946,0.8316 -1.01171,0 -3.31109,-0.7392 -2.94313,0.092 -1.10367,1.4785 -3.95491,0.3696 -1.37961,0.4621 -0.64376,1.75556 -0.73585,0.6469 -0.27587,-0.092 -0.8278,-0.924 -2.57524,1.386 -0.36789,0 -0.64383,-0.924 -0.45985,0.092 -1.10373,2.495 -0.55181,2.3102 -2.13268,4.6504 -0.92773,-0.6561 -0.78038,-0.7842 -0.9105,-5.8806 -2.08117,-0.6535 -0.78038,-1.3068 -7.15393,-1.5681 -1.43077,-0.65336 -4.6825465,-1.3069 -4.682543,-0.6534 -2.438798,-3.071 z" />
    <text
       xml:space="preserve"
       style="font-size:37.52261353px;font-style:normal;font-variant:normal;font-weight:normal;font-stretch:normal;line-height:125%;letter-spacing:0px;word-spacing:0px;fill:#000000;fill-opacity:1;stroke:#f2e6b6;stroke-width:1;stroke-miterlimit:4;stroke-opacity:1;stroke-dasharray:none;font-family:KaiTi;-inkscape-font-specification:KaiTi"
       x="94.101311"
       y="1091.6572"
       id="text3812"
       sodipodi:linespacing="125%"
       transform="scale(1.0660084,0.93807892)"><tspan
         sodipodi:role="line"
         id="tspan3814"
         x="94.101311"
         y="1091.6572"
         style="stroke:#f2e6b6;stroke-width:1;stroke-miterlimit:4;stroke-opacity:1;stroke-dasharray:none">MI</tspan></text>
  </g>
</svg>
