<?xml version="1.0" encoding="UTF-8" standalone="no"?>
<!-- Created with Inkscape (http://www.inkscape.org/) -->

<svg
   xmlns:dc="http://purl.org/dc/elements/1.1/"
   xmlns:cc="http://creativecommons.org/ns#"
   xmlns:rdf="http://www.w3.org/1999/02/22-rdf-syntax-ns#"
   xmlns:svg="http://www.w3.org/2000/svg"
   xmlns="http://www.w3.org/2000/svg"
   xmlns:xlink="http://www.w3.org/1999/xlink"
   xmlns:sodipodi="http://sodipodi.sourceforge.net/DTD/sodipodi-0.dtd"
   xmlns:inkscape="http://www.inkscape.org/namespaces/inkscape"
   width="80"
   height="80"
   id="svg4693"
   version="1.1"
   inkscape:version="0.48.0 r9654"
   sodipodi:docname="TX.svg"
   inkscape:export-filename="region01.png"
   inkscape:export-xdpi="90"
   inkscape:export-ydpi="90">
  <defs
     id="defs4695">
    <radialGradient
       r="128.28937"
       fy="458.89755"
       fx="364.66507"
       cy="458.89755"
       cx="364.66507"
       gradientTransform="matrix(0.713131,0.52519279,-0.43067748,0.58479374,302.24793,-0.98232581)"
       gradientUnits="userSpaceOnUse"
       id="radialGradient4658"
       xlink:href="#linearGradient3991-9"
       inkscape:collect="always" />
    <linearGradient
       id="linearGradient3991-9">
      <stop
         style="stop-color:#b9d2f0;stop-opacity:1;"
         offset="0"
         id="stop3993-4" />
      <stop
         style="stop-color:#b9d2f0;stop-opacity:0;"
         offset="1"
         id="stop3995-8" />
    </linearGradient>
    <radialGradient
       r="128.28937"
       fy="458.89755"
       fx="364.66507"
       cy="458.89755"
       cx="364.66507"
       gradientTransform="matrix(0.713131,0.52519279,-0.43067748,0.58479374,302.24793,-0.98232581)"
       gradientUnits="userSpaceOnUse"
       id="radialGradient4756-2"
       xlink:href="#linearGradient3991-9-4"
       inkscape:collect="always" />
    <linearGradient
       id="linearGradient3991-9-4">
      <stop
         style="stop-color:#b9d2f0;stop-opacity:1;"
         offset="0"
         id="stop3993-4-5" />
      <stop
         style="stop-color:#b9d2f0;stop-opacity:0;"
         offset="1"
         id="stop3995-8-5" />
    </linearGradient>
    <radialGradient
       inkscape:collect="always"
       xlink:href="#linearGradient3991-9-4"
       id="radialGradient3822"
       cx="40.6875"
       cy="1015.2216"
       fx="40.6875"
       fy="1015.2216"
       r="19.53125"
       gradientTransform="matrix(1,0,0,0.7,0,304.56647)"
       gradientUnits="userSpaceOnUse" />
  </defs>
  <sodipodi:namedview
     id="base"
     pagecolor="#ffffff"
     bordercolor="#666666"
     borderopacity="1.0"
     inkscape:pageopacity="0.0"
     inkscape:pageshadow="2"
     inkscape:zoom="2.8284271"
     inkscape:cx="125.35"
     inkscape:cy="44.461606"
     inkscape:document-units="px"
     inkscape:current-layer="layer1"
     showgrid="false"
     inkscape:window-width="1366"
     inkscape:window-height="706"
     inkscape:window-x="-8"
     inkscape:window-y="-8"
     inkscape:window-maximized="1"
     showguides="true"
     inkscape:guide-bbox="true">
    <sodipodi:guide
       orientation="1,0"
       position="40,40"
       id="guide3824" />
    <sodipodi:guide
       orientation="0,1"
       position="-37.5,40.25"
       id="guide3826" />
  </sodipodi:namedview>
  <metadata
     id="metadata4698">
    <rdf:RDF>
      <cc:Work
         rdf:about="">
        <dc:format>image/svg+xml</dc:format>
        <dc:type
           rdf:resource="http://purl.org/dc/dcmitype/StillImage" />
        <dc:title />
      </cc:Work>
    </rdf:RDF>
  </metadata>
  <g
     inkscape:label="Layer 1"
     inkscape:groupmode="layer"
     id="layer1"
     transform="translate(0,-972.36218)">
    <rect
       style="fill:#000000;fill-opacity:1;stroke:#000000;stroke-width:0.22691278;stroke-miterlimit:4;stroke-opacity:0.98431373;stroke-dasharray:none"
       id="rect5301"
       width="79.773087"
       height="79.773087"
       x="0.11345673"
       y="972.47565" />
    <path
       inkscape:connector-curvature="0"
       style="fill:#eedfa1;fill-opacity:1;stroke:#f2e6b6;stroke-width:1;stroke-miterlimit:4;stroke-opacity:1;stroke-dasharray:none"
       id="WA"
       d="m -88.81333,996.1139 2.77356,0.9289 6.16346,1.7545 5.44439,1.2385 12.73782,3.6123 14.58686,3.6123 10.24539,2.3721 -0.63815,2.4797 -2.39702,8.6114 -2.83285,13.2823 -2.32439,10.509 -0.12141,6.1925 -8.88559,-2.1787 -9.58811,-2.2623 -9.80601,0.073 -0.29054,-0.8758 -3.48659,1.3136 -2.83285,-0.3648 -1.52538,-1.0218 -0.79901,0.4379 -2.97812,-0.1459 -1.08955,-0.8758 -3.34132,-1.3136 -0.50846,0.073 -2.76021,-0.9487 -1.23483,1.1676 -3.92241,-0.2189 -3.77713,-2.6273 0.43582,-0.5108 0.14528,-4.9626 -1.45275,-2.4813 -2.61493,-0.3649 -0.43582,-1.6055 -1.49577,-0.2979 -1.21919,-0.9562 -1.12997,0.6192 -1.43814,-1.8577 0.20545,-1.8578 1.74632,-0.2064 1.02724,-2.5802 -1.64359,-0.7224 0.10272,-2.3738 2.77356,-0.4129 -1.74631,-1.7545 -0.92452,-4.5412 0.4109,-1.8577 0,-5.0571 -1.12998,-2.0642 1.43815,-5.9861 1.33541,0.3097 1.54087,1.8577 1.74631,1.6514 2.05449,1.2385 2.87629,1.3417 1.95176,0.4128 1.84904,0.9289 2.15721,0.6192 1.43815,-0.1032 0,-1.5481 0.82179,-0.7225 1.33541,-0.8256 0.20546,0.7224 0.20544,1.1353 -1.43814,0.3096 -0.20545,1.3417 1.12997,0.9289 0.71907,1.5481 0.4109,1.2385 0.92452,-0.1032 0.10272,-0.8256 -0.61634,-0.8257 -0.30817,-2.0642 0.51362,-1.1353 -0.4109,-0.9288 0,-1.4449 1.12996,-2.2706 -0.71906,-1.6514 -1.54087,-3.0962 0.20545,-0.516 0.71907,-0.5161 z m -6.00909,3.8171 1.28406,-0.1032 0.30817,0.8773 0.97589,-1.0321 1.4895,0 0.51362,0.9805 -0.97588,1.0836 0.4109,0.5161 -0.46226,1.2901 -0.87316,0.258 c 0,0 -0.56499,0.052 -0.56499,-0.1548 0,-0.2064 0.92453,-1.6513 0.92453,-1.6513 l -1.07861,-0.3613 -0.20545,0.9289 -0.46226,0.4129 -0.97589,-1.445 -0.30817,-1.5997 z" />
    <path
       inkscape:connector-curvature="0"
       style="color:#000000;fill:#eedfa1;fill-opacity:1;fill-rule:nonzero;stroke:#f2e6b6;stroke-width:1;stroke-linecap:butt;stroke-linejoin:miter;stroke-miterlimit:4;stroke-opacity:1;stroke-dasharray:none;stroke-dashoffset:0;marker:none;visibility:visible;display:inline;overflow:visible;enable-background:accumulate"
       id="TX"
       d="m 25.129519,975.75251 6.97632,0.3354 9.55951,0.3531 -0.42172,7.3447 -0.14059,5.5085 0.0703,0.4943 1.33554,1.1299 0.6326,0.3532 0.21087,-0.071 0.21088,-0.6355 0.42175,0.5649 0.6326,0 0,-0.4237 0.84348,0.4237 -0.14056,1.2006 1.26522,0.071 0.7732,0.3531 1.26523,0.2119 0.77319,0.565 0.70291,-0.6356 1.05435,0.2118 0.7732,1.0594 0.28116,0 0,0.70622 0.70291,0.2118 0.70291,-0.7062 0.56232,0.2119 0.77319,0 0.28116,0.7768 1.4761,0.565 0.42176,-0.2119 0.56231,-1.2712 0.35144,0 0.35148,0.6356 1.26522,0.2119 1.12464,0.4237 0.91379,0.2825 0.56231,-0.2825 0.21088,-0.7768 1.33551,0 0.63263,0.2825 0.84348,-0.6356 0.35144,0 0.21087,0.4943 1.26523,0 0.49204,-0.6356 0.56231,0.1413 0.63263,0.7768 0.98407,0.565 0.98408,0.2825 0.84347,0.3884 0.70291,0.6003 0.91376,-0.4238 0.84351,0.3532 0.20647,3.42957 0.004,2.9971 0.21085,2.8955 0.21088,1.2006 0.77319,1.2712 0.28116,1.5537 1.33554,1.6949 0.0703,0.9887 0.21088,0.2118 -0.21088,2.613 -0.91379,1.5537 0.49204,0.6356 -0.21088,0.7768 -0.21084,2.2599 -0.42176,0.9887 0.0871,1.1071 -1.98838,0.5392 -3.03186,1.3983 -0.29823,0.5992 -0.79524,0.5992 -0.64612,0.4495 -0.39765,0.2497 -1.7396,1.6479 -0.84493,0.6492 -1.6402,0.9987 -1.73959,0.7491 -1.93843,1.0486 -0.54674,0.4494 -1.78928,1.0987 -1.04377,0.1997 -1.19286,1.6979 -1.24258,0.1 -0.29823,0.5993 0.69585,0.5992 -0.44732,1.6979 -0.39762,1.3982 -0.34792,1.1985 -0.2485,1.3982 0.2485,0.7491 0.54673,2.1473 0.2982,1.8976 0.54674,0.8489 -0.2982,0.4495 -0.94436,0.5992 -1.73962,-1.1985 -1.68989,-0.3496 -0.39762,0.1498 -0.99405,-0.1997 -1.29228,-0.9488 -1.5905,-0.3495 -2.33602,-1.0487 -0.64613,-1.1985 -0.39765,-1.9975 -0.99404,-0.5992 -0.19881,-0.6991 0.19881,-0.1998 0.0994,-1.0487 -0.39765,-0.1997 -0.19881,-0.2996 0.39765,-1.3483 -0.49704,-0.6992 -0.99405,-0.3995 -1.04377,-1.3483 -1.09347,-2.0474 -1.29228,-0.799 0.0497,-0.5992 -1.6402,-3.7952 -0.24854,-1.2984 -0.5467,-0.5992 -0.0497,-0.4494 -1.83901,-1.648 -0.79524,-0.9488 0,-0.3495 -0.79523,-0.6492 -2.08752,-0.3496 -2.28632,-0.1997 -0.94439,-0.6991 -1.39166,0.5493 -1.09347,0.4494 -0.69585,0.9987 -0.2982,1.1486 -1.34197,1.8976 -0.74555,0.749 -0.79527,-0.2996 -0.5467,-0.3495 -0.59646,-0.1998 -1.192855,-0.6991 0,-0.1997 -0.546734,-0.5993 -1.590475,-0.6492 -2.286356,-2.3969 -0.695818,-1.4482 0,-2.4968 -0.994078,-1.9975 -0.149084,-0.849 -0.497039,-0.2996 -0.347925,-0.6492 -1.540781,-0.6491 -0.397619,-0.4994 -2.186938,-2.4469 -0.3976188,-0.9988 -1.441393,-0.6991 -0.447313,-1.3483 -0.795269,-0.8989 -0.596429,-0.1497 -0.199601,-1.445 2.460176,0.2119 8.9268858,0.8474 8.926914,0.4944 0.70288,-7.34487 1.19495,-17.16092 0.49204,-5.7911 0.42175,0.01 m 30.43058,72.27589 -0.17398,-2.1972 -0.84493,-2.2222 -0.17398,-2.1723 0.47217,-2.5468 1.01891,-2.1223 1.06864,-1.6729 0.96922,-1.0986 0.19881,0.075 -1.46626,2.0474 -1.34197,2.0225 -0.62129,2.0474 -0.0994,1.598 0.27336,1.8976 0.79527,2.2222 0.14912,1.598 0.0497,0.4494 -0.27336,0.075 z" />
    <text
       xml:space="preserve"
       style="font-size:37.52261353px;font-style:normal;font-variant:normal;font-weight:normal;font-stretch:normal;line-height:125%;letter-spacing:0px;word-spacing:0px;fill:#000000;fill-opacity:1;stroke:#f2e6b6;stroke-width:1;stroke-miterlimit:4;stroke-opacity:1;stroke-dasharray:none;font-family:KaiTi;-inkscape-font-specification:KaiTi"
       x="94.101311"
       y="1091.6572"
       id="text3812"
       sodipodi:linespacing="125%"
       transform="scale(1.0660084,0.93807892)"><tspan
         sodipodi:role="line"
         id="tspan3814"
         x="94.101311"
         y="1091.6572"
         style="stroke:#f2e6b6;stroke-width:1;stroke-miterlimit:4;stroke-opacity:1;stroke-dasharray:none">TX</tspan></text>
  </g>
</svg>
