<?xml version="1.0" encoding="UTF-8" standalone="no"?>
<!-- Created with Inkscape (http://www.inkscape.org/) -->

<svg
   xmlns:dc="http://purl.org/dc/elements/1.1/"
   xmlns:cc="http://creativecommons.org/ns#"
   xmlns:rdf="http://www.w3.org/1999/02/22-rdf-syntax-ns#"
   xmlns:svg="http://www.w3.org/2000/svg"
   xmlns="http://www.w3.org/2000/svg"
   xmlns:xlink="http://www.w3.org/1999/xlink"
   xmlns:sodipodi="http://sodipodi.sourceforge.net/DTD/sodipodi-0.dtd"
   xmlns:inkscape="http://www.inkscape.org/namespaces/inkscape"
   width="80"
   height="80"
   id="svg4693"
   version="1.1"
   inkscape:version="0.48.0 r9654"
   sodipodi:docname="VA.svg"
   inkscape:export-filename="region01.png"
   inkscape:export-xdpi="90"
   inkscape:export-ydpi="90">
  <defs
     id="defs4695">
    <radialGradient
       r="128.28937"
       fy="458.89755"
       fx="364.66507"
       cy="458.89755"
       cx="364.66507"
       gradientTransform="matrix(0.713131,0.52519279,-0.43067748,0.58479374,302.24793,-0.98232581)"
       gradientUnits="userSpaceOnUse"
       id="radialGradient4658"
       xlink:href="#linearGradient3991-9"
       inkscape:collect="always" />
    <linearGradient
       id="linearGradient3991-9">
      <stop
         style="stop-color:#b9d2f0;stop-opacity:1;"
         offset="0"
         id="stop3993-4" />
      <stop
         style="stop-color:#b9d2f0;stop-opacity:0;"
         offset="1"
         id="stop3995-8" />
    </linearGradient>
    <radialGradient
       r="128.28937"
       fy="458.89755"
       fx="364.66507"
       cy="458.89755"
       cx="364.66507"
       gradientTransform="matrix(0.713131,0.52519279,-0.43067748,0.58479374,302.24793,-0.98232581)"
       gradientUnits="userSpaceOnUse"
       id="radialGradient4756-2"
       xlink:href="#linearGradient3991-9-4"
       inkscape:collect="always" />
    <linearGradient
       id="linearGradient3991-9-4">
      <stop
         style="stop-color:#b9d2f0;stop-opacity:1;"
         offset="0"
         id="stop3993-4-5" />
      <stop
         style="stop-color:#b9d2f0;stop-opacity:0;"
         offset="1"
         id="stop3995-8-5" />
    </linearGradient>
    <radialGradient
       inkscape:collect="always"
       xlink:href="#linearGradient3991-9-4"
       id="radialGradient3822"
       cx="40.6875"
       cy="1015.2216"
       fx="40.6875"
       fy="1015.2216"
       r="19.53125"
       gradientTransform="matrix(1,0,0,0.7,0,304.56647)"
       gradientUnits="userSpaceOnUse" />
  </defs>
  <sodipodi:namedview
     id="base"
     pagecolor="#ffffff"
     bordercolor="#666666"
     borderopacity="1.0"
     inkscape:pageopacity="0.0"
     inkscape:pageshadow="2"
     inkscape:zoom="2.8284271"
     inkscape:cx="125.35"
     inkscape:cy="44.461606"
     inkscape:document-units="px"
     inkscape:current-layer="layer1"
     showgrid="false"
     inkscape:window-width="1366"
     inkscape:window-height="706"
     inkscape:window-x="-8"
     inkscape:window-y="-8"
     inkscape:window-maximized="1"
     showguides="true"
     inkscape:guide-bbox="true">
    <sodipodi:guide
       orientation="1,0"
       position="40,40"
       id="guide3824" />
    <sodipodi:guide
       orientation="0,1"
       position="-37.5,40.25"
       id="guide3826" />
  </sodipodi:namedview>
  <metadata
     id="metadata4698">
    <rdf:RDF>
      <cc:Work
         rdf:about="">
        <dc:format>image/svg+xml</dc:format>
        <dc:type
           rdf:resource="http://purl.org/dc/dcmitype/StillImage" />
        <dc:title />
      </cc:Work>
    </rdf:RDF>
  </metadata>
  <g
     inkscape:label="Layer 1"
     inkscape:groupmode="layer"
     id="layer1"
     transform="translate(0,-972.36218)">
    <rect
       style="fill:#000000;fill-opacity:1;stroke:#000000;stroke-width:0.22691278;stroke-miterlimit:4;stroke-opacity:0.98431373;stroke-dasharray:none"
       id="rect5301"
       width="79.773087"
       height="79.773087"
       x="0.11345673"
       y="972.47565" />
    <path
       inkscape:connector-curvature="0"
       style="fill:#eedfa1;fill-opacity:1;stroke:#f2e6b6;stroke-width:1;stroke-miterlimit:4;stroke-opacity:1;stroke-dasharray:none"
       id="WA"
       d="m -88.81333,996.1139 2.77356,0.9289 6.16346,1.7545 5.44439,1.2385 12.73782,3.6123 14.58686,3.6123 10.24539,2.3721 -0.63815,2.4797 -2.39702,8.6114 -2.83285,13.2823 -2.32439,10.509 -0.12141,6.1925 -8.88559,-2.1787 -9.58811,-2.2623 -9.80601,0.073 -0.29054,-0.8758 -3.48659,1.3136 -2.83285,-0.3648 -1.52538,-1.0218 -0.79901,0.4379 -2.97812,-0.1459 -1.08955,-0.8758 -3.34132,-1.3136 -0.50846,0.073 -2.76021,-0.9487 -1.23483,1.1676 -3.92241,-0.2189 -3.77713,-2.6273 0.43582,-0.5108 0.14528,-4.9626 -1.45275,-2.4813 -2.61493,-0.3649 -0.43582,-1.6055 -1.49577,-0.2979 -1.21919,-0.9562 -1.12997,0.6192 -1.43814,-1.8577 0.20545,-1.8578 1.74632,-0.2064 1.02724,-2.5802 -1.64359,-0.7224 0.10272,-2.3738 2.77356,-0.4129 -1.74631,-1.7545 -0.92452,-4.5412 0.4109,-1.8577 0,-5.0571 -1.12998,-2.0642 1.43815,-5.9861 1.33541,0.3097 1.54087,1.8577 1.74631,1.6514 2.05449,1.2385 2.87629,1.3417 1.95176,0.4128 1.84904,0.9289 2.15721,0.6192 1.43815,-0.1032 0,-1.5481 0.82179,-0.7225 1.33541,-0.8256 0.20546,0.7224 0.20544,1.1353 -1.43814,0.3096 -0.20545,1.3417 1.12997,0.9289 0.71907,1.5481 0.4109,1.2385 0.92452,-0.1032 0.10272,-0.8256 -0.61634,-0.8257 -0.30817,-2.0642 0.51362,-1.1353 -0.4109,-0.9288 0,-1.4449 1.12996,-2.2706 -0.71906,-1.6514 -1.54087,-3.0962 0.20545,-0.516 0.71907,-0.5161 z m -6.00909,3.8171 1.28406,-0.1032 0.30817,0.8773 0.97589,-1.0321 1.4895,0 0.51362,0.9805 -0.97588,1.0836 0.4109,0.5161 -0.46226,1.2901 -0.87316,0.258 c 0,0 -0.56499,0.052 -0.56499,-0.1548 0,-0.2064 0.92453,-1.6513 0.92453,-1.6513 l -1.07861,-0.3613 -0.20545,0.9289 -0.46226,0.4129 -0.97589,-1.445 -0.30817,-1.5997 z" />
    <g
       id="g3568"
       transform="matrix(0.54061134,0,0,0.54061134,-89.843674,439.38741)"
       style="color:#000000;fill:#eedfa1;fill-opacity:1;fill-rule:nonzero;stroke:#f2e6b6;stroke-width:1.84975767;stroke-linecap:butt;stroke-linejoin:miter;stroke-miterlimit:4;stroke-opacity:1;stroke-dasharray:none;stroke-dashoffset:0;marker:none;visibility:visible;display:inline;overflow:visible;enable-background:accumulate">
      <path
         d="m 196.32349,1074.0537 1.8831,3.4686 1.2555,1.2614 2.8246,0.7883 2.5109,-0.6307 2.3539,-2.2073 c 0,0 1.7262,1.419 2.3539,1.2613 0.6277,-0.1576 4.237,-0.946 4.237,-0.946 l 1.7262,-4.5723 2.5108,0.946 3.1386,-2.365 1.4123,0.3154 2.04,-1.892 0.157,-2.6803 -0.7847,-1.2614 4.8648,-10.5636 2.04,-6.4643 0.3139,-4.257 1.7262,-0.1577 1.5692,2.6804 1.2555,0.7883 2.5108,0 1.0985,-5.3607 0.3138,-2.9956 3.2955,-0.3153 0.4708,-2.2074 2.9816,-2.365 0.6277,-1.5766 1.5693,-2.6803 0.4707,-2.0497 0.157,-5.203 4.3939,1.7344 5.4925,2.9956 0.7846,-4.9665 4.0801,1.9709 0,2.8379 5.3355,1.2614 1.8831,1.2613 0.9416,-1.892 2.1969,1.5767 -1.4123,3.1533 -0.3139,2.6803 -1.7261,2.5227 0,2.0496 0.6277,1.7343 4.9156,1.3222 1.831,1.5165 5.0216,0.3153 2.5109,2.2073 3.1385,0.6307 1.2554,1.2613 -0.4708,4.4147 0.9416,0.946 0.1569,2.2073 1.2554,2.0497 -0.1569,1.7343 -3.1385,-1.1037 0,0.946 1.8831,1.5767 0,1.1037 1.4123,1.1036 1.2554,1.5767 0.157,2.2073 -2.197,1.419 0.3138,0.473 2.5109,-0.473 3.1385,-0.6307 1.0985,-0.1577 3.9563,6.8534 -4.7397,1.66 -11.1418,2.838 -18.6047,3.7298 -19.9993,3.6805 -16.6342,2.5226 -15.3565,1.892 -6.9271,1.2613 -4.3797,-0.6028 -2.0543,-0.028 -2.3539,1.892 -7.6894,0.1577 -11.6441,1.8537 -9.7059,0.9094 2.6757,-1.3441 5.4924,-3.311 3.7662,-2.0497 0,-2.0496 1.7262,-1.7343 4.394,-5.203 4.0801,-3.4687 3.1385,-3.7839 z"
         id="VA"
         style="color:#000000;fill:#eedfa1;fill-opacity:1;fill-rule:nonzero;stroke:#f2e6b6;stroke-width:1.84975767;stroke-linecap:butt;stroke-linejoin:miter;stroke-miterlimit:4;stroke-opacity:1;stroke-dasharray:none;stroke-dashoffset:0;marker:none;visibility:visible;display:inline;overflow:visible;enable-background:accumulate"
         inkscape:connector-curvature="0" />
      <path
         style="color:#000000;fill:#eedfa1;fill-opacity:1;fill-rule:nonzero;stroke:#f2e6b6;stroke-width:1.84975767;stroke-linecap:butt;stroke-linejoin:miter;stroke-miterlimit:4;stroke-opacity:1;stroke-dasharray:none;stroke-dashoffset:0;marker:none;visibility:visible;display:inline;overflow:visible;enable-background:accumulate"
         id="path3106"
         d="m 302.76761,1060.7103 -1.2711,-2.8222 0.37663,-7.3315 2.38527,-4.1624 -0.12554,-4.0363 5.64935,-2.1442 -0.6277,2.1442 -3.013,3.9102 -0.30599,7.6626 -0.71403,3.1848 -1.74188,3.6737 -0.61201,-0.079 z"
         inkscape:connector-curvature="0" />
    </g>
    <text
       xml:space="preserve"
       style="font-size:37.52261353px;font-style:normal;font-variant:normal;font-weight:normal;font-stretch:normal;line-height:125%;letter-spacing:0px;word-spacing:0px;fill:#000000;fill-opacity:1;stroke:#f2e6b6;stroke-width:1;stroke-miterlimit:4;stroke-opacity:1;stroke-dasharray:none;font-family:KaiTi;-inkscape-font-specification:KaiTi"
       x="94.101311"
       y="1091.6572"
       id="text3812"
       sodipodi:linespacing="125%"
       transform="scale(1.0660084,0.93807892)"><tspan
         sodipodi:role="line"
         id="tspan3814"
         x="94.101311"
         y="1091.6572"
         style="stroke:#f2e6b6;stroke-width:1;stroke-miterlimit:4;stroke-opacity:1;stroke-dasharray:none">VA</tspan></text>
  </g>
</svg>
