<?xml version="1.0" encoding="UTF-8" standalone="no"?>
<svg
   xmlns:dc="http://purl.org/dc/elements/1.1/"
   xmlns:cc="http://creativecommons.org/ns#"
   xmlns:rdf="http://www.w3.org/1999/02/22-rdf-syntax-ns#"
   xmlns:svg="http://www.w3.org/2000/svg"
   xmlns="http://www.w3.org/2000/svg"
   xmlns:xlink="http://www.w3.org/1999/xlink"
   xmlns:sodipodi="http://sodipodi.sourceforge.net/DTD/sodipodi-0.dtd"
   xmlns:inkscape="http://www.inkscape.org/namespaces/inkscape"
   width="80"
   height="80"
   id="svg4862"
   sodipodi:version="0.32"
   inkscape:version="0.48.0 r9654"
   sodipodi:docname="region06.svg"
   inkscape:output_extension="org.inkscape.output.svg.inkscape"
   sodipodi:modified="true"
   version="1.1"
   inkscape:export-filename="region06.png"
   inkscape:export-xdpi="90"
   inkscape:export-ydpi="90">
  <text
     sodipodi:linespacing="125%"
     id="text3892"
     y="-283.31943"
     x="872.28162"
     style="font-size:32.91231537px;font-style:normal;font-variant:normal;font-weight:normal;font-stretch:normal;line-height:125%;letter-spacing:0px;word-spacing:0px;color:#000000;fill:#000000;fill-opacity:0.24867727;fill-rule:nonzero;stroke:none;stroke-width:1.5;marker:none;visibility:visible;display:inline;overflow:visible;enable-background:accumulate;font-family:KaiTi;-inkscape-font-specification:KaiTi"
     xml:space="preserve"><tspan
       y="-283.31943"
       x="872.28162"
       id="tspan3894"
       sodipodi:role="line" /></text>
  <metadata
     id="metadata4922">
    <rdf:RDF>
      <cc:Work
         rdf:about="">
        <dc:format>image/svg+xml</dc:format>
        <dc:type
           rdf:resource="http://purl.org/dc/dcmitype/StillImage" />
        <dc:title></dc:title>
      </cc:Work>
      <cc:Work
         rdf:about="">
        <dc:format>image/svg+xml</dc:format>
        <dc:type
           rdf:resource="http://purl.org/dc/dcmitype/StillImage" />
      </cc:Work>
      <cc:Work
         rdf:about="">
        <dc:format>image/svg+xml</dc:format>
        <dc:type
           rdf:resource="http://purl.org/dc/dcmitype/StillImage" />
      </cc:Work>
    </rdf:RDF>
  </metadata>
  <defs
     id="defs4920">
    <linearGradient
       id="linearGradient5335">
      <stop
         style="stop-color:#ffffff;stop-opacity:1;"
         offset="0"
         id="stop5337" />
      <stop
         style="stop-color:#ffffff;stop-opacity:0;"
         offset="1"
         id="stop5339" />
    </linearGradient>
    <inkscape:perspective
       sodipodi:type="inkscape:persp3d"
       inkscape:vp_x="0 : 296.5 : 1"
       inkscape:vp_y="0 : 1000 : 0"
       inkscape:vp_z="959 : 296.5 : 1"
       inkscape:persp3d-origin="479.5 : 197.66667 : 1"
       id="perspective4924" />
    <inkscape:perspective
       id="perspective2451"
       inkscape:persp3d-origin="372.04724 : 350.78739 : 1"
       inkscape:vp_z="744.09448 : 526.18109 : 1"
       inkscape:vp_y="0 : 1000 : 0"
       inkscape:vp_x="0 : 526.18109 : 1"
       sodipodi:type="inkscape:persp3d" />
    <inkscape:perspective
       id="perspective10034"
       inkscape:persp3d-origin="372.04724 : 350.78739 : 1"
       inkscape:vp_z="744.09448 : 526.18109 : 1"
       inkscape:vp_y="0 : 1000 : 0"
       inkscape:vp_x="0 : 526.18109 : 1"
       sodipodi:type="inkscape:persp3d" />
    <inkscape:perspective
       id="perspective3314"
       inkscape:persp3d-origin="372.04724 : 350.78739 : 1"
       inkscape:vp_z="744.09448 : 526.18109 : 1"
       inkscape:vp_y="0 : 1000 : 0"
       inkscape:vp_x="0 : 526.18109 : 1"
       sodipodi:type="inkscape:persp3d" />
    <radialGradient
       inkscape:collect="always"
       xlink:href="#linearGradient5335-0"
       id="radialGradient5341-6"
       cx="589"
       cy="258"
       fx="589"
       fy="258"
       r="18.411404"
       gradientTransform="matrix(1.3541667,0,0,1.2070658,-207.47917,-53.506312)"
       gradientUnits="userSpaceOnUse" />
    <linearGradient
       inkscape:collect="always"
       id="linearGradient5335-0">
      <stop
         style="stop-color:#ffffff;stop-opacity:1;"
         offset="0"
         id="stop5337-8" />
      <stop
         style="stop-color:#ffffff;stop-opacity:0;"
         offset="1"
         id="stop5339-5" />
    </linearGradient>
    <radialGradient
       r="18.411404"
       fy="258"
       fx="589"
       cy="258"
       cx="589"
       gradientTransform="matrix(1.3541667,0,0,1.2070658,-125.60417,-49.422976)"
       gradientUnits="userSpaceOnUse"
       id="radialGradient5379"
       xlink:href="#linearGradient5335-0"
       inkscape:collect="always" />
    <radialGradient
       inkscape:collect="always"
       xlink:href="#linearGradient5335-3"
       id="radialGradient5341-1"
       cx="589"
       cy="258"
       fx="589"
       fy="258"
       r="18.411404"
       gradientTransform="matrix(1.6745745,0,0,1.4926682,-398.21018,-127.36851)"
       gradientUnits="userSpaceOnUse" />
    <linearGradient
       id="linearGradient5335-3">
      <stop
         style="stop-color:#ffffff;stop-opacity:1;"
         offset="0"
         id="stop5337-2" />
      <stop
         style="stop-color:#ffffff;stop-opacity:0;"
         offset="1"
         id="stop5339-3" />
    </linearGradient>
  </defs>
  <style
     type="text/css"
     id="style_css_sheet">
/*
 * Below are Cascading Style Sheet (CSS) definitions in use in this file,
 * which allow easily changing how states are displayed.
 * Modified from the world version of this map.
 */

 /* Unconfirmed deaths */
 .qq
 {
	fill:  #A52A2A; /* brown */
 }

 /* 1+ deaths */
 .q1, .dc, .ga, .hi, .in, .md, .mn, .mo, .nc, .ne, .nv, .oh, .ok, .pr, .ri, .tn, .va, .az, .ct, .fl, .il, .ma, .mi, .nj, .or, .pa, .ut, .wa, .wi, .ca, .ny, .tx
 { 
	fill: #000000; /* black */
 }

 /* Unconfirmed cases*/
 .zz
 { 
	fill: yellow ; 
 }

 /* 1+ cases */
 .z1, .ak, .al, .ar, .co, .de, .ia, .id, .ks, .ky, .la, .me, .ms, .mt, .nd, .nh, .nm, .sc, .sd, .vi, .vt, .wv, .wy
 { 
	fill: #ff0000; /* red */
 }

 /* No cases */
 .xx
 { 
	fill: #808080; 
 }

/*
 * land
 */
.landxx
{
   fill: #b9b9b9;
   fill-opacity: 1;
   stroke:white;
   stroke-opacity: 1;
   stroke-width:0.5;
   stroke-miterlimit: 3.97446823;
   stroke-dasharray: none;
}

/*
 * Styles for coastlines of islands with no borders
 */
.coastxx
{
   stroke-width: 0.3;
}

/*
 * Sea
 */

.ocean
{
   opacity: 1;
   color: #000000;
   fill:white;
   fill-opacity:1;
   fill-rule:nonzero;
   stroke:#000000;
   stroke-width:0.5;
   stroke-linecap:butt;
   stroke-linejoin:miter;
   marker:none;
   marker-start:none;
   marker-mid:none;
   marker-end:none;
   stroke-miterlimit:1;
   stroke-dasharray:none;
   stroke-dashoffset:0;
   stroke-opacity:1;
   visibility:visible;
   display:inline;
   overflow:visible;
}

.lake
{
   fill:white;
   fill-opacity:1;
   stroke:#1821de;
   stroke-opacity: 1;
   stroke-width:0.3;
   stroke-miterlimit: 3.97446823;
   stroke-dasharray: none;
}
  </style>
  <sodipodi:namedview
     inkscape:window-height="706"
     inkscape:window-width="1366"
     inkscape:pageshadow="2"
     inkscape:pageopacity="0.0"
     guidetolerance="10.0"
     gridtolerance="10.0"
     objecttolerance="10.0"
     borderopacity="1.0"
     bordercolor="#666666"
     pagecolor="#ffffff"
     id="base"
     showgrid="false"
     inkscape:zoom="4"
     inkscape:cx="59.375246"
     inkscape:cy="15.203279"
     inkscape:window-x="-8"
     inkscape:window-y="-8"
     inkscape:current-layer="svg4862"
     showguides="true"
     inkscape:guide-bbox="true"
     inkscape:window-maximized="1" />
  <!-- US -->
  <!-- Puerto Rico & US Virgin Islands box -->
  <!-- Hawaii & Alaska - box -->
  <g
     id="g4145"
     transform="matrix(0.14773441,0,0,0.14773441,25.083615,14.144725)"
     style="stroke-width:2.70756149;stroke-miterlimit:4;stroke-dasharray:none">
    <path
       inkscape:connector-curvature="0"
       d="m 256.8138,197.701 1.86421,6.0218 3.06882,8.01601 4.38951,7.7149 3.05936,5.1876 3.99047,4.52253 3.32538,3.05936 1.33016,2.39428 -0.93111,1.06412 -0.66508,1.06412 2.39428,6.11872 2.39428,2.39427 2.12825,4.38952 2.92634,4.78856 3.72443,6.78379 1.06413,6.25173 0.39905,9.84315 0.53206,1.46317 -0.26603,2.79332 -1.99524,1.06413 0.26603,1.59618 -0.53206,1.59619 0.26603,1.99523 0.39905,1.59619 -2.26126,2.66031 -2.5273,1.19714 -3.19237,0.13301 -1.19714,1.33016 -1.99523,0.79809 -1.06413,-0.39904 -0.9311,-0.7981 -0.26604,-2.39428 -0.66508,-2.79332 -2.79332,-4.2565 -2.92635,-1.86221 -3.19237,-0.26603 -0.66507,1.06412 -2.5273,-3.59142 -0.53206,-2.92634 -2.12825,-3.32539 -1.46317,-0.93111 -1.33016,1.7292 -1.46316,-0.26603 -1.72921,-4.12348 -2.39428,-3.19237 -2.39428,-4.38951 -2.12824,-2.5273 -2.92634,-3.05935 1.7292,-1.99524 2.66031,-4.52253 -0.13302,-1.33015 -3.72443,-0.79809 -1.33016,0.53206 0.26604,0.53206 2.12824,0.79809 -1.19714,3.72444 -0.66507,0.39905 -1.46318,-3.32539 -1.06412,-3.99047 -0.26603,-2.26127 1.19714,-3.85744 0,-7.84792 -2.5273,-3.05936 -1.06412,-2.52729 -4.2565,-1.06412 -1.59618,-0.53206 -1.33016,-2.12825 -2.79333,-1.33016 -0.9311,-2.79333 -2.26127,-0.79809 -1.99523,-3.05936 -3.4584,-1.19713 -2.39428,-1.19715 -2.12825,0 -3.32539,0.66509 -0.13302,1.59618 0.66509,0.79809 -0.39906,0.93111 -2.52728,-0.13301 -3.05936,2.92634 -2.92635,1.59618 -3.19237,0 -2.66031,1.06413 -0.26603,-2.26127 -1.33015,-1.59619 -2.39428,-0.9311 -1.33015,-1.19715 -6.65078,-3.19237 -6.25173,-1.46316 -3.59142,0.53206 -4.92158,0.39904 -4.92157,1.72921 -2.86275,0.50435 -0.19576,-6.6234 -2.12825,-1.59618 -1.46317,-1.46318 0.26603,-2.5273 8.37998,-1.06412 21.01649,-2.39428 5.58666,-0.53206 4.47278,0.2306 2.12825,3.19238 1.19714,1.19714 6.66323,0.42393 8.90258,-0.53206 17.70056,-1.06413 4.48078,-0.55488 3.7662,0.0228 0.13302,2.39428 3.14641,0.66508 0.26603,-3.95505 -1.33015,-3.72445 0.78565,-0.60289 4.20676,0.37418 z m 10.32247,108.94395 1.99524,-0.53206 1.06412,-0.19952 1.19715,-1.92874 1.92873,-1.33016 1.06413,0.39905 1.39667,0.26603 0.33254,0.8646 -2.85984,0.99762 -3.45842,1.19715 -1.92873,0.99762 z m 11.10683,-4.12349 0.99763,0.8646 2.26127,-1.7292 4.38952,-3.45842 3.05937,-3.19239 2.06175,-5.45365 0.7981,-1.39667 0.13301,-2.79333 -0.59857,0.39904 -0.79809,2.32778 -1.19716,3.79095 -2.66032,4.32303 -3.59142,3.45841 -2.79333,1.59619 z"
       class="fl"
       id="Florida"
       style="color:#000000;fill:#b2b2b2;fill-opacity:0.95744682999999997;fill-rule:nonzero;stroke:#000000;stroke-width:2.70756149;stroke-linecap:butt;stroke-linejoin:miter;stroke-miterlimit:4;stroke-opacity:1;stroke-dasharray:none;stroke-dashoffset:0;marker:none;visibility:visible;display:inline;overflow:visible;enable-background:accumulate" />
    <path
       inkscape:connector-curvature="0"
       d="m 261.61381,170.90304 -1.46218,0.79772 -2.12825,-1.06413 -0.53206,-1.72921 -1.06412,-2.92634 -1.86223,-1.72921 -2.12825,-0.53206 -1.33015,-3.99047 -2.26127,-4.92158 -3.4584,-1.5962 -1.72922,-1.59618 -1.06412,-2.12825 -1.7292,-1.5962 -1.86222,-1.06412 -1.86222,-2.39428 -2.5273,-1.86221 -3.72445,-1.46318 -0.39904,-1.19714 -1.99523,-2.39428 -0.39905,-1.19715 -2.79334,-4.2565 -2.79332,0.13302 -3.3254,-1.99524 -1.06412,-1.06412 -0.26603,-1.46318 0.66508,-1.59618 1.86222,-0.79811 -0.26603,-1.72919 5.05459,-2.12825 7.44888,-3.72444 5.9857,-0.66509 13.56761,-0.39904 1.86222,1.59619 1.33015,2.66031 3.59144,-0.39904 10.37522,-1.19715 2.39428,0.66508 10.37523,6.25174 8.31701,6.68259 -4.46059,4.49116 -2.12825,5.05459 -0.39904,5.18761 -1.33015,0.66508 -0.93112,2.26126 -1.99522,0.53206 -1.72921,2.92634 -2.26126,2.26127 -1.86222,2.79332 -1.33016,0.66508 -2.92634,2.79333 -2.39428,0.13301 0.7981,2.66031 -4.12348,4.52253 z"
       class="sc"
       id="SouthCarolina"
       style="color:#000000;fill:#b2b2b2;fill-opacity:0.95744682999999997;fill-rule:nonzero;stroke:#000000;stroke-width:2.70756149;stroke-linecap:butt;stroke-linejoin:miter;stroke-miterlimit:4;stroke-opacity:1;stroke-dasharray:none;stroke-dashoffset:0;marker:none;visibility:visible;display:inline;overflow:visible;enable-background:accumulate" />
    <path
       inkscape:connector-curvature="0"
       d="m 202.68884,125.67732 -3.99047,0.66508 -6.91682,0.93111 -7.04982,0.73158 0,1.79571 0.13301,1.72921 0.53206,2.79333 2.79333,6.51777 1.99524,8.11396 1.19714,5.0546 1.33016,3.99046 1.19714,5.71968 1.72921,5.18761 2.12825,2.79334 0.39904,2.79332 1.59619,0.66508 0.13302,1.72921 -1.46318,3.99046 -0.39904,2.66032 -0.13302,1.59619 1.33016,3.59143 0.26603,4.38951 -0.66508,1.99524 0.53207,0.66508 1.19714,0.66508 0.53206,2.79332 2.12825,3.19238 1.19714,1.19714 6.51777,0.13301 8.90258,-0.53206 17.70056,-1.06412 4.48078,-0.55488 3.7662,0.0228 0.13302,2.39428 2.12825,0.66507 0.26603,-3.59142 -1.33016,-3.72444 0.93111,-1.33015 4.78856,0.66507 4.09545,0.26147 -0.63802,-5.18269 1.86221,-8.24696 1.19715,-3.45841 -0.39905,-2.12824 2.74357,-5.13786 -0.41987,-1.11218 -1.57437,0.57974 -2.12825,-1.06414 -0.53206,-1.72921 -1.06413,-2.92634 -1.86222,-1.7292 -2.12825,-0.53206 -1.33016,-3.99047 -2.40672,-5.21249 -3.4584,-1.59619 -1.72921,-1.59619 -1.06413,-2.12825 -1.7292,-1.59619 -1.86222,-1.06413 -1.86222,-2.39428 -2.52729,-1.86221 -3.72445,-1.46318 -0.39905,-1.19714 -1.99523,-2.39428 -0.39905,-1.19715 -2.79333,-4.03832 -2.79333,0.13302 -3.39812,-2.50433 -1.06412,-1.06412 -0.26603,-1.46317 0.66507,-1.59619 1.93495,-1.01628 -0.93301,-1.00565 0.0641,-0.23934 -4.78856,0.79809 -5.71968,0.66508 z"
       class="ga"
       id="Georgia"
       style="color:#000000;fill:#b2b2b2;fill-opacity:0.95744682999999997;fill-rule:nonzero;stroke:#000000;stroke-width:2.70756149;stroke-linecap:butt;stroke-linejoin:miter;stroke-miterlimit:4;stroke-opacity:1;stroke-dasharray:none;stroke-dashoffset:0;marker:none;visibility:visible;display:inline;overflow:visible;enable-background:accumulate" />
    <path
       inkscape:connector-curvature="0"
       d="m 150.0138,215.19721 -1.32933,-12.5038 -2.26127,-15.42982 0.13301,-11.57237 0.66508,-25.53901 -0.13302,-13.70063 0.13584,-5.28165 6.38194,-0.30501 22.8787,-2.12824 7.34154,-0.54486 -0.12161,1.79571 0.13301,1.72921 0.53207,2.79333 2.79334,6.51776 1.99522,8.11397 1.19715,5.0546 1.33015,3.99047 1.19715,5.71967 1.7292,5.18761 2.12825,2.79334 0.39905,2.79332 1.59619,0.66508 0.13302,1.72921 -1.46318,3.99047 -0.39905,2.66032 -0.13301,1.59618 1.33016,3.59143 0.26603,4.38951 -0.66509,1.99524 0.53208,0.66508 1.19713,0.66507 0.85182,2.08604 -5.18762,0 -5.58666,0.53207 -21.01649,2.39428 -8.56671,1.1575 -0.0793,3.0875 1.46317,1.46318 2.12825,1.59618 0.47794,6.52934 -4.56005,2.117 -2.26126,-0.26603 2.26126,-1.59619 0,-0.79809 -2.52729,-4.92157 -1.86222,-0.53206 -1.19714,3.59141 -1.06412,2.26127 -0.53206,-0.13302 -2.26127,0 z"
       class="al"
       id="Alabama"
       style="color:#000000;fill:#b2b2b2;fill-opacity:0.95744682999999997;fill-rule:nonzero;stroke:#000000;stroke-width:2.70756149;stroke-linecap:butt;stroke-linejoin:miter;stroke-miterlimit:4;stroke-opacity:1;stroke-dasharray:none;stroke-dashoffset:0;marker:none;visibility:visible;display:inline;overflow:visible;enable-background:accumulate" />
    <path
       inkscape:connector-curvature="0"
       d="m 319.93078,76.719462 1.407,3.86605 2.92635,5.32062 1.99522,1.99523 0.53206,1.86222 -1.99522,0.13302 0.66507,0.53206 -0.26603,3.4584 -2.12825,1.06412 -0.53206,1.72921 -1.06412,2.39428 -3.05936,1.330148 -1.99523,-0.26603 -1.19715,-0.13302 -1.33015,-1.064118 0.26603,1.064118 0,0.7981 1.59619,0 0.66508,1.06412 -1.59619,5.18761 3.4584,0 0.53207,1.33015 1.86221,-1.86221 1.06413,-0.39905 -1.59619,2.92634 -2.5273,3.99047 -1.06412,0 -0.93111,-0.39905 -2.26126,0.53206 -4.2565,1.99524 -5.32062,4.38951 -2.79333,3.85744 -1.59618,5.32062 -0.39904,1.99524 -3.85746,0.39904 -4.48688,1.09982 -8.18398,-6.74911 -10.37523,-6.25173 -2.39428,-0.66509 -10.37522,1.19715 -3.51871,0.61723 -1.33015,-2.66032 -2.44403,-1.74164 -13.56761,0.39905 -5.98571,0.66507 -7.44887,3.72445 -5.0546,2.12824 -1.33015,0.26603 -4.78857,0.7981 -5.71968,0.66508 -5.58666,0.39905 0.41148,-3.33593 1.46318,-1.19714 2.26127,-0.53207 0.53206,-3.05936 3.45841,-2.26126 3.19237,-1.19715 3.45842,-2.92634 3.59142,-1.72921 0.53206,-2.5273 3.19238,-3.19237 0.53206,-0.13302 c 0,0 0,0.93111 0.66508,0.93111 0.66508,0 1.59619,0.26603 1.59619,0.26603 l 1.86222,-2.92634 1.72921,-0.53207 1.86221,0.26603 1.33017,-2.926338 2.39428,-2.12825 0.39904,-1.72921 0,-3.25889 3.72444,0.59858 5.87163,-1.06413 13.0166,-1.59619 14.09967,-2.12825 16.39176,-3.29173 16.23673,-3.42684 9.35075,-2.30093 z m 3.20522,27.142638 2.12826,-2.06175 2.5938,-2.128258 1.26365,-0.53206 0.13302,-1.6627 -0.53206,-5.0546 -1.19715,-1.92873 -0.53207,-1.52968 0.59858,-0.19953 2.26127,4.52254 0.33254,3.65794 -0.13301,2.79334 -2.79334,1.263638 -2.32778,1.99525 -0.9311,0.99762 z"
       class="nc"
       id="NorthCarolina"
       style="color:#000000;fill:#b2b2b2;fill-opacity:0.95744682999999997;fill-rule:nonzero;stroke:#000000;stroke-width:2.70756149;stroke-linecap:butt;stroke-linejoin:miter;stroke-miterlimit:4;stroke-opacity:1;stroke-dasharray:none;stroke-dashoffset:0;marker:none;visibility:visible;display:inline;overflow:visible;enable-background:accumulate" />
    <path
       inkscape:connector-curvature="0"
       d="m -70.946762,105.4372 18.67016,0.89352 25.58331,0.94056 -1.92093,19.29962 -0.24418,14.93686 0.056,1.71291 3.57414,3.14184 1.42893,0.67648 1.48863,0.20801 0.56434,-1.0328 0.73257,0.71265 1.42892,0.39612 1.32041,-0.6005 0.93694,0.33642 -0.24419,2.80179 3.51807,0.84832 2.20128,0.67649 3.25399,0.43229 1.80514,1.50489 2.67338,-1.29688 2.29353,0.30025 1.67311,2.29353 0.88448,0.26409 -0.13203,1.61704 2.54133,0.96045 2.27725,-1.485 1.24081,0.30026 1.9372,0.13204 0.35633,1.54107 3.81832,1.63694 2.185,-0.16821 1.63696,-3.38603 0.28034,0 0.94057,1.56098 3.65011,0.82841 2.74571,0.99664 2.709552,0.62041 1.76898,-0.62041 0.69638,-2.06923 3.04597,0 1.56097,0.6204 2.52143,-1.29689 0.54444,0 0.30026,0.92067 3.51807,0 1.977,-1.03281 1.37285,0.24418 1.16485,1.54108 2.36948,1.37285 2.89767,0.88449 2.25735,1.16667 2.01316,1.33486 2.70954,-0.73254 1.59715,0.80852 0.42054,8.34297 0.27584,7.98302 0.56433,7.84466 0.4323,3.32994 2.20129,3.78215 0.88448,3.34623 3.17802,5.17491 0.45219,2.3695 0.4323,0.82841 -0.56435,6.16793 -2.18137,3.6103 0.78862,2.35321 -0.30026,2.06924 -0.69637,6.0196 -1.12868,2.23746 0.49717,3.60902 -4.66111,1.3043 -8.11394,3.72444 -0.79809,1.59618 -2.12825,1.59619 -1.7292,1.19714 -1.06413,0.66507 -4.65554,4.38952 -2.26126,1.7292 -4.38952,2.66031 -4.65554,1.99523 -5.187602,2.79333 -1.46317,1.19714 -4.78856,2.92634 -2.79333,0.53206 -3.19237,4.52253 -3.32538,0.26603 -0.7981,1.59619 1.86222,1.59619 -1.19715,4.52252 -1.06412,3.72444 -0.9311,3.19237 -0.66508,3.72443 0.66508,1.99524 1.46316,5.71966 0.7981,5.05459 1.46317,2.26126 -0.79809,1.19715 -2.5273,1.59618 -4.65555,-3.19237 -4.52252,-0.93111 -1.06413,0.39905 -2.66031,-0.53206 -3.4584,-2.5273 -4.25649,-0.93111 -6.25174,-2.79332 -1.72919,-3.19238 -1.06413,-5.32061 -2.66031,-1.59619 -0.53206,-1.86222 0.53206,-0.53207 0.26603,-2.79332 -1.06412,-0.53206 -0.53207,-0.79809 1.06413,-3.59143 -1.33016,-1.86221 -2.66031,-1.06413 -2.79332,-3.59141 -2.92634,-5.45364 -3.45841,-2.12825 0.13302,-1.59618 -4.38952,-10.10919 -0.66507,-3.4584 -1.46317,-1.59618 -0.13301,-1.19714 -4.92158,-4.38951 -2.12825,-2.5273 0,-0.93111 -2.12825,-1.7292 -5.58665,-0.93111 -6.11871,-0.53206 -2.5273,-1.86221 -3.72443,1.46316 -2.92634,1.19715 -1.86222,2.6603 -0.79809,3.05936 -3.59142,5.05459 -1.99523,1.99523 -2.12826,-0.79809 -1.46316,-0.93111 -1.59619,-0.53206 -3.19237,-1.86222 0,-0.53206 -1.46317,-1.59619 -4.2565,-1.7292 -6.118708,-6.38474 -1.86222,-3.85745 0,-6.65078 -2.66031,-5.32062 -0.39905,-2.26126 -1.33015,-0.7981 -0.93111,-1.7292 -4.12348,-1.7292 -1.06412,-1.33015 -5.85269,-6.51777 -1.06412,-2.66031 -3.85746,-1.86222 -1.19714,-3.59145 -2.12827,-2.39426 -1.59617,-0.39903 -0.53419,-3.8488 6.584,0.56436 23.89022,2.25733 23.890288,1.31679 1.88113,-19.56371 3.19788,-45.71111 1.31682,-15.42544 1.12868,0.0235 m 81.43877,192.51869 -0.46556,-5.8527 -2.26127,-5.91922 -0.46556,-5.78619 1.26365,-6.78381 2.72684,-5.65318 2.85983,-4.45604 2.59382,-2.92635 0.53206,0.19953 -3.92397,5.45365 -3.59143,5.38716 -1.6627,5.45364 -0.26603,4.25652 0.73158,5.0546 2.12826,5.91922 0.39904,4.2565 0.13302,1.19715 -0.73158,0.19952 z"
       class="tx"
       id="Texas"
       style="color:#000000;fill:#b2b2b2;fill-opacity:0.95744682999999997;fill-rule:nonzero;stroke:#000000;stroke-width:2.70756149;stroke-linecap:butt;stroke-linejoin:miter;stroke-miterlimit:4;stroke-opacity:1;stroke-dasharray:none;stroke-dashoffset:0;marker:none;visibility:visible;display:inline;overflow:visible;enable-background:accumulate" />
    <path
       inkscape:connector-curvature="0"
       d="m 149.15888,215.36078 -0.2092,1.03357 -4.2565,0 -1.19714,-0.66508 -1.72921,-0.26603 -5.58665,1.59618 -1.46316,-0.66507 -2.12825,3.4584 -0.90718,0.64016 -0.9247,-2.04713 -0.94057,-3.19792 -2.82168,-2.63356 0.94056,-6.20772 -0.56434,-0.75245 -1.5049,0.18811 -6.77205,0.56434 -19.93993,0.56434 -0.37622,-1.31679 0.56434,-6.58394 2.82169,-5.07904 4.32659,-7.5245 -0.75245,-1.69301 0.94056,0 0.56434,-2.63357 -1.88113,-1.5049 0.18812,-1.5049 -1.69302,-3.76225 -0.23514,-4.39714 1.12867,-2.18681 -0.32919,-3.57413 -1.12868,-2.44547 1.12868,-1.12867 -1.12868,-1.69301 0.37623,-1.5049 0.75245,-5.07905 2.44546,-2.25734 -0.56434,-1.69301 3.00981,-4.3266 2.25734,-0.75244 0,-2.06924 -0.56434,-1.12868 2.25735,-4.32658 2.25735,-0.94056 0.0884,-2.80749 7.13823,-0.0637 19.81935,-1.59618 3.76894,-0.18812 0.007,5.24271 0.13301,13.70062 -0.66507,25.53901 -0.13302,11.57237 2.26128,15.42983 z"
       class="ms"
       id="Mississippi"
       style="color:#000000;fill:#b2b2b2;fill-opacity:0.95744682999999997;fill-rule:nonzero;stroke:#000000;stroke-width:2.70756149;stroke-linecap:butt;stroke-linejoin:miter;stroke-miterlimit:4;stroke-opacity:1;stroke-dasharray:none;stroke-dashoffset:0;marker:none;visibility:visible;display:inline;overflow:visible;enable-background:accumulate" />
    <path
       inkscape:connector-curvature="0"
       d="m 130.76362,220.31832 -0.84704,-2.15265 -0.94057,-2.54433 -2.72831,-2.91368 0.75382,-5.55414 -0.0975,-0.93918 -1.03807,0.28148 -6.77205,0.75107 -20.5935,0.3776 -0.56296,-1.97036 0.75107,-6.95742 2.72833,-4.89229 4.13985,-7.15104 -0.47235,-1.97311 1.03393,-0.56021 0.37761,-1.60652 -1.88114,-1.69164 -0.092,-1.59826 -1.50628,-3.57552 -0.37554,-4.88818 -8.00166,0.0934 -15.80145,0.75246 -18.27043,0.0235 0.0235,7.87721 0.56434,7.71262 0.56434,3.19791 2.06924,3.38602 0.75245,4.13849 3.57414,4.51469 0.18811,2.63358 0.56434,0.56433 -0.56434,6.96017 -2.44546,4.13847 1.31679,1.69302 -0.56435,2.06923 -0.56433,6.0196 -1.12868,2.63357 0.10076,2.97565 3.85607,-1.2508 6.65078,-0.26603 8.51299,2.92634 5.32062,0.93112 3.05936,-1.19715 2.66031,0.93112 2.66031,0.79809 0.66507,-1.72921 -2.66031,-0.9311 -2.12825,0.39904 -2.26126,-1.33015 c 0,0 0.13302,-1.06413 0.66508,-1.19714 0.53206,-0.13302 2.5273,-0.79809 2.5273,-0.79809 l 1.46316,1.19713 1.46318,-0.79809 2.66031,0.53206 1.19714,1.99524 0.26603,1.86222 3.72443,0.26603 1.46317,1.46317 -0.66507,1.33015 -1.06413,0.66508 1.33016,1.33015 6.9168,2.92634 2.92634,-1.06412 0.7981,-1.99523 2.12824,-0.53206 1.46318,-1.19714 1.06412,0.79809 0.66507,2.39428 -1.86221,0.66508 0.53206,0.53206 2.79333,-1.06412 1.86222,-2.79333 0.66507,-0.39905 -1.7292,-0.26603 0.66507,-1.33015 -0.13301,-1.19714 1.7292,-0.39905 0.93111,-1.06413 0.53206,0.66508 c 0,0 -0.13301,2.5273 0.53207,2.5273 0.66507,0 3.4584,0.53206 3.4584,0.53206 l 3.32539,1.59619 0.79809,1.19714 2.39428,0 0.93111,0.79809 1.86221,-2.52729 0,-1.19715 -1.06412,0 -2.79332,-2.26126 -4.78856,-0.66508 -2.66031,-1.86221 0.93111,-2.26127 1.86221,0.26603 0.13302,-0.53206 -1.46317,-0.79809 0,-0.39905 2.66031,0 1.46317,-2.52729 -1.06412,-1.59619 -0.26603,-2.26126 -1.19715,0.13301 -1.59618,1.72921 -0.53206,2.12825 -2.5273,-0.53207 -0.79809,-1.46317 1.46317,-1.59619 1.66269,-1.46316 z"
       class="la"
       id="Louisiana"
       style="color:#000000;fill:#b2b2b2;fill-opacity:0.95744682999999997;fill-rule:nonzero;stroke:#000000;stroke-width:2.70756149;stroke-linecap:butt;stroke-linejoin:miter;stroke-miterlimit:4;stroke-opacity:1;stroke-dasharray:none;stroke-dashoffset:0;marker:none;visibility:visible;display:inline;overflow:visible;enable-background:accumulate" />
  </g>
  <path
     inkscape:connector-curvature="0"
     id="path4373"
     d="m 61.59229,59.80039 2.22062,0.26126 3.22207,-1.43689 1.82875,-1.87228 -3.78812,-3.57041 -1.69812,-3.00436 -4.52832,-6.96665 -7.92457,-0.30479 -2.43833,0.21771 0.47896,4.13643 7.40207,0.21771 2.39478,1.61104 1.30625,3.70103 2.87375,3.09146 2.22062,0.60958 -3.74458,1.69812 z"
     style="color:#000000;fill:#ff1608;fill-opacity:0.56382979;fill-rule:nonzero;stroke:#ff1608;stroke-width:0.07035208;stroke-linecap:butt;stroke-linejoin:miter;stroke-miterlimit:4;stroke-opacity:1;stroke-dasharray:none;stroke-dashoffset:0;marker:none;visibility:visible;display:inline;overflow:visible;enable-background:accumulate" />
  <path
     inkscape:connector-curvature="0"
     id="path4333"
     d="m 99.87098,42.43822 4.80301,1.23154 2.92703,4.72275 1.69812,4.61539 -0.0871,3.13499 -2.17707,2.6125 -3.39625,1.34979 -2.04645,-0.21771 -0.26125,-1.7852 3.96228,-1.52396 0.74021,-3.65749 -2.39479,-3.74458 z"
     style="color:#000000;fill:#ff1608;fill-opacity:0.56382979;fill-rule:nonzero;stroke:#ff1608;stroke-width:0.07035208;stroke-linecap:butt;stroke-linejoin:miter;stroke-miterlimit:4;stroke-opacity:1;stroke-dasharray:none;stroke-dashoffset:0;marker:none;visibility:visible;display:inline;overflow:visible;enable-background:accumulate" />
  <path
     inkscape:connector-curvature="0"
     id="path4310"
     d="m 114.30643,25.576715 1.21916,1.5675 -1.48041,5.05082 -7.83748,8.098725 -1.13209,3.48333 -5.05082,-1.39333 -4.00583,-10.101635 6.61832,0.78374 5.48624,-4.52832 1.39333,-3.91874 z"
     style="color:#000000;fill:#ff1608;fill-opacity:0.56382979;fill-rule:nonzero;stroke:#ff1608;stroke-width:0.07035208;stroke-linecap:butt;stroke-linejoin:miter;stroke-miterlimit:4;stroke-opacity:1;stroke-dasharray:none;stroke-dashoffset:0;marker:none;visibility:visible;display:inline;overflow:visible;enable-background:accumulate" />
  <path
     style="color:#000000;fill:#ff1608;fill-opacity:0.56382979;fill-rule:nonzero;stroke:#ff1608;stroke-width:0.07035208;stroke-linecap:butt;stroke-linejoin:miter;stroke-miterlimit:4;stroke-opacity:1;stroke-dasharray:none;stroke-dashoffset:0;marker:none;visibility:visible;display:inline;overflow:visible;enable-background:accumulate"
     d="m 48.52982,103.25459 0.34833,4.09291 -1.65458,3.48333 -6.44415,1.48042 -5.31207,-0.87083 -4.52832,2.5254 -1.74166,4.70248 -5.66041,-0.26124 0.34833,-6.09582 9.14373,-5.92166 7.40206,0.34834 3.6575,-2.96083 z"
     id="path4783"
     inkscape:connector-curvature="0" />
</svg>
