<?xml version="1.0" encoding="UTF-8" standalone="no"?>
<svg
   xmlns:dc="http://purl.org/dc/elements/1.1/"
   xmlns:cc="http://creativecommons.org/ns#"
   xmlns:rdf="http://www.w3.org/1999/02/22-rdf-syntax-ns#"
   xmlns:svg="http://www.w3.org/2000/svg"
   xmlns="http://www.w3.org/2000/svg"
   xmlns:xlink="http://www.w3.org/1999/xlink"
   xmlns:sodipodi="http://sodipodi.sourceforge.net/DTD/sodipodi-0.dtd"
   xmlns:inkscape="http://www.inkscape.org/namespaces/inkscape"
   width="80"
   height="80"
   id="svg4862"
   sodipodi:version="0.32"
   inkscape:version="0.48.0 r9654"
   sodipodi:docname="region12-14.svg"
   inkscape:output_extension="org.inkscape.output.svg.inkscape"
   sodipodi:modified="true"
   version="1.1"
   inkscape:export-filename="region12.png"
   inkscape:export-xdpi="90"
   inkscape:export-ydpi="90">
  <text
     sodipodi:linespacing="125%"
     id="text3892"
     y="-283.31943"
     x="872.28162"
     style="font-size:32.91231537px;font-style:normal;font-variant:normal;font-weight:normal;font-stretch:normal;line-height:125%;letter-spacing:0px;word-spacing:0px;color:#000000;fill:#000000;fill-opacity:0.24867727;fill-rule:nonzero;stroke:none;stroke-width:1.5;marker:none;visibility:visible;display:inline;overflow:visible;enable-background:accumulate;font-family:KaiTi;-inkscape-font-specification:KaiTi"
     xml:space="preserve"><tspan
       y="-283.31943"
       x="872.28162"
       id="tspan3894"
       sodipodi:role="line" /></text>
  <metadata
     id="metadata4922">
    <rdf:RDF>
      <cc:Work
         rdf:about="">
        <dc:format>image/svg+xml</dc:format>
        <dc:type
           rdf:resource="http://purl.org/dc/dcmitype/StillImage" />
        <dc:title></dc:title>
      </cc:Work>
      <cc:Work
         rdf:about="">
        <dc:format>image/svg+xml</dc:format>
        <dc:type
           rdf:resource="http://purl.org/dc/dcmitype/StillImage" />
      </cc:Work>
      <cc:Work
         rdf:about="">
        <dc:format>image/svg+xml</dc:format>
        <dc:type
           rdf:resource="http://purl.org/dc/dcmitype/StillImage" />
      </cc:Work>
    </rdf:RDF>
  </metadata>
  <defs
     id="defs4920">
    <linearGradient
       id="linearGradient5335">
      <stop
         style="stop-color:#ffffff;stop-opacity:1;"
         offset="0"
         id="stop5337" />
      <stop
         style="stop-color:#ffffff;stop-opacity:0;"
         offset="1"
         id="stop5339" />
    </linearGradient>
    <inkscape:perspective
       sodipodi:type="inkscape:persp3d"
       inkscape:vp_x="0 : 296.5 : 1"
       inkscape:vp_y="0 : 1000 : 0"
       inkscape:vp_z="959 : 296.5 : 1"
       inkscape:persp3d-origin="479.5 : 197.66667 : 1"
       id="perspective4924" />
    <inkscape:perspective
       id="perspective2451"
       inkscape:persp3d-origin="372.04724 : 350.78739 : 1"
       inkscape:vp_z="744.09448 : 526.18109 : 1"
       inkscape:vp_y="0 : 1000 : 0"
       inkscape:vp_x="0 : 526.18109 : 1"
       sodipodi:type="inkscape:persp3d" />
    <inkscape:perspective
       id="perspective10034"
       inkscape:persp3d-origin="372.04724 : 350.78739 : 1"
       inkscape:vp_z="744.09448 : 526.18109 : 1"
       inkscape:vp_y="0 : 1000 : 0"
       inkscape:vp_x="0 : 526.18109 : 1"
       sodipodi:type="inkscape:persp3d" />
    <inkscape:perspective
       id="perspective3314"
       inkscape:persp3d-origin="372.04724 : 350.78739 : 1"
       inkscape:vp_z="744.09448 : 526.18109 : 1"
       inkscape:vp_y="0 : 1000 : 0"
       inkscape:vp_x="0 : 526.18109 : 1"
       sodipodi:type="inkscape:persp3d" />
    <radialGradient
       inkscape:collect="always"
       xlink:href="#linearGradient5335-0"
       id="radialGradient5341-6"
       cx="589"
       cy="258"
       fx="589"
       fy="258"
       r="18.411404"
       gradientTransform="matrix(1.3541667,0,0,1.2070658,-207.47917,-53.506312)"
       gradientUnits="userSpaceOnUse" />
    <linearGradient
       inkscape:collect="always"
       id="linearGradient5335-0">
      <stop
         style="stop-color:#ffffff;stop-opacity:1;"
         offset="0"
         id="stop5337-8" />
      <stop
         style="stop-color:#ffffff;stop-opacity:0;"
         offset="1"
         id="stop5339-5" />
    </linearGradient>
    <radialGradient
       r="18.411404"
       fy="258"
       fx="589"
       cy="258"
       cx="589"
       gradientTransform="matrix(1.3541667,0,0,1.2070658,-125.60417,-49.422976)"
       gradientUnits="userSpaceOnUse"
       id="radialGradient5379"
       xlink:href="#linearGradient5335-0"
       inkscape:collect="always" />
    <radialGradient
       inkscape:collect="always"
       xlink:href="#linearGradient5335-3"
       id="radialGradient5341-1"
       cx="589"
       cy="258"
       fx="589"
       fy="258"
       r="18.411404"
       gradientTransform="matrix(1.6745745,0,0,1.4926682,-398.21018,-127.36851)"
       gradientUnits="userSpaceOnUse" />
    <linearGradient
       id="linearGradient5335-3">
      <stop
         style="stop-color:#ffffff;stop-opacity:1;"
         offset="0"
         id="stop5337-2" />
      <stop
         style="stop-color:#ffffff;stop-opacity:0;"
         offset="1"
         id="stop5339-3" />
    </linearGradient>
  </defs>
  <style
     type="text/css"
     id="style_css_sheet">
/*
 * Below are Cascading Style Sheet (CSS) definitions in use in this file,
 * which allow easily changing how states are displayed.
 * Modified from the world version of this map.
 */

 /* Unconfirmed deaths */
 .qq
 {
	fill:  #A52A2A; /* brown */
 }

 /* 1+ deaths */
 .q1, .dc, .ga, .hi, .in, .md, .mn, .mo, .nc, .ne, .nv, .oh, .ok, .pr, .ri, .tn, .va, .az, .ct, .fl, .il, .ma, .mi, .nj, .or, .pa, .ut, .wa, .wi, .ca, .ny, .tx
 { 
	fill: #000000; /* black */
 }

 /* Unconfirmed cases*/
 .zz
 { 
	fill: yellow ; 
 }

 /* 1+ cases */
 .z1, .ak, .al, .ar, .co, .de, .ia, .id, .ks, .ky, .la, .me, .ms, .mt, .nd, .nh, .nm, .sc, .sd, .vi, .vt, .wv, .wy
 { 
	fill: #ff0000; /* red */
 }

 /* No cases */
 .xx
 { 
	fill: #808080; 
 }

/*
 * land
 */
.landxx
{
   fill: #b9b9b9;
   fill-opacity: 1;
   stroke:white;
   stroke-opacity: 1;
   stroke-width:0.5;
   stroke-miterlimit: 3.97446823;
   stroke-dasharray: none;
}

/*
 * Styles for coastlines of islands with no borders
 */
.coastxx
{
   stroke-width: 0.3;
}

/*
 * Sea
 */

.ocean
{
   opacity: 1;
   color: #000000;
   fill:white;
   fill-opacity:1;
   fill-rule:nonzero;
   stroke:#000000;
   stroke-width:0.5;
   stroke-linecap:butt;
   stroke-linejoin:miter;
   marker:none;
   marker-start:none;
   marker-mid:none;
   marker-end:none;
   stroke-miterlimit:1;
   stroke-dasharray:none;
   stroke-dashoffset:0;
   stroke-opacity:1;
   visibility:visible;
   display:inline;
   overflow:visible;
}

.lake
{
   fill:white;
   fill-opacity:1;
   stroke:#1821de;
   stroke-opacity: 1;
   stroke-width:0.3;
   stroke-miterlimit: 3.97446823;
   stroke-dasharray: none;
}
  </style>
  <sodipodi:namedview
     inkscape:window-height="706"
     inkscape:window-width="1366"
     inkscape:pageshadow="2"
     inkscape:pageopacity="0.0"
     guidetolerance="10.0"
     gridtolerance="10.0"
     objecttolerance="10.0"
     borderopacity="1.0"
     bordercolor="#666666"
     pagecolor="#ffffff"
     id="base"
     showgrid="false"
     inkscape:zoom="2"
     inkscape:cx="104.99998"
     inkscape:cy="13.21733"
     inkscape:window-x="-8"
     inkscape:window-y="-8"
     inkscape:current-layer="svg4862"
     showguides="true"
     inkscape:guide-bbox="true"
     inkscape:window-maximized="1" />
  <!-- US -->
  <!-- Puerto Rico & US Virgin Islands box -->
  <!-- Hawaii & Alaska - box -->
  <g
     id="g3100"
     style="color:#000000;fill:#b2b2b2;fill-opacity:0.95744682999999997;fill-rule:nonzero;stroke:#000000;stroke-width:0.6;stroke-linecap:butt;stroke-linejoin:miter;stroke-miterlimit:4;stroke-opacity:1;stroke-dasharray:none;stroke-dashoffset:0;marker:none;visibility:visible;display:inline;overflow:visible;enable-background:accumulate"
     transform="translate(-85.25,-0.5)">
    <path
       inkscape:connector-curvature="0"
       d="m 157.50645,28.65368 0.11651,-2.0055 0.4062,-4.4581 c 0.0822,-0.90462 0.19492,-1.52375 0.24672,-2.77159 l 0.16902,-2.61719 -5.51695,-0.505 -5.26267,-0.63966 -5.26268,-0.72689 -5.8151,-0.95949 -3.31462,-0.61059 -5.88553,-1.24689 -0.80558,3.83947 0.61679,1.35693 -0.24671,0.82238 0.32895,0.82238 0.57567,0.24672 0.83108,1.93694 0.48473,0.57132 0.0822,0.2056 0.61679,0.20559 0.0822,0.37007 -1.27469,3.16617 0,0.45231 0.45231,0.57567 0.16447,0 0.8635,-0.53455 0.12336,-0.2056 0.28783,0.12336 -0.0411,0.94574 0.49343,2.26155 0.53455,0.45231 0.16447,0.12335 0.32896,0.41119 -0.0822,0.61679 0.12336,0.61679 0.20559,0.16447 0.41119,-0.41119 0.49343,0 0.57567,0.28784 0.45231,-0.16448 0.74014,0 0.65791,0.28783 0.49343,-0.0822 0.0822,-0.53455 0.53455,-0.12336 0.24672,0.24672 0.0822,0.57566 0.32003,0.2455 0.27579,-2.08004 3.72168,0.53454 5.0699,0.71128 2.97718,0.34121 5.65575,0.62156 1.97664,0.27412 0.1892,-2.77468 z"
       class="mt"
       id="Montana"
       style="color:#000000;fill:#b2b2b2;fill-opacity:0.95744682999999997;fill-rule:nonzero;stroke:#000000;stroke-width:0.6;stroke-linecap:butt;stroke-linejoin:miter;stroke-miterlimit:4;stroke-opacity:1;stroke-dasharray:none;stroke-dashoffset:0;marker:none;visibility:visible;display:inline;overflow:visible;enable-background:accumulate" />
    <path
       inkscape:connector-curvature="0"
       d="m 122.51533,39.20866 c -4.0667,-0.78117 -2.54447,-0.51205 -3.80227,-0.78251 l 0.79623,-3.14792 0.78126,-3.18672 0.24671,-0.76071 0.45231,-1.06909 -0.22615,-0.41119 -0.45231,0.0205 -0.14392,-0.18504 0.0822,-0.20559 0.0617,-0.55511 0.80182,-0.98686 0.32895,-0.0822 0.2056,-0.20559 0.1028,-0.57567 0.16447,-0.12335 0.69902,-1.04854 0.69903,-0.78126 0.0411,-0.67847 -0.61679,-0.47287 -0.23643,-0.79154 0.072,-1.73728 0.6579,-2.96057 0.80182,-3.74183 0.67847,-2.42603 0.13703,-0.68402 2.33743,0.45469 -0.74785,3.86834 0.5302,1.38579 -0.18899,0.82238 0.35781,0.82238 0.57567,0.30444 0.80222,1.76377 0.48473,0.68677 0.1111,0.2056 0.61679,0.20559 0.0822,0.45666 -1.24582,3.02186 0.0577,0.59662 0.48117,0.51794 0.33765,0.0866 0.8635,-0.65 0.0656,-0.0901 0.0281,0.15222 0.0455,0.74369 0.46457,2.31928 0.62114,0.48117 0.0779,0.15222 0.38668,0.44005 -0.13996,0.50134 0.12336,0.67451 0.34991,0.16448 0.38232,-0.29574 0.46457,-0.0866 0.60453,0.28783 0.45231,-0.10675 0.68242,-0.0289 0.71563,0.28783 0.49343,-0.0534 0.16882,-0.4191 0.44796,-0.29653 0.13127,0.30444 0.11109,0.40249 0.41515,0.45666 -0.67846,4.31315 -0.92519,5.21739 -0.74806,-0.0573 -1.47198,-0.27558 -1.76377,-0.32895 -2.18761,-0.4278 -2.25324,-0.45033 -1.52576,-0.33093 -1.66532,-0.30009 z"
       class="id"
       id="Idaho"
       style="color:#000000;fill:#b2b2b2;fill-opacity:0.95744682999999997;fill-rule:nonzero;stroke:#000000;stroke-width:0.6;stroke-linecap:butt;stroke-linejoin:miter;stroke-miterlimit:4;stroke-opacity:1;stroke-dasharray:none;stroke-dashoffset:0;marker:none;visibility:visible;display:inline;overflow:visible;enable-background:accumulate" />
    <path
       inkscape:connector-curvature="0"
       d="m 117.95092,76.22185 0.68617,-0.0879 0.26727,-0.36177 0.13166,-0.34912 -0.57131,-0.0162 -0.1977,-0.31709 0.13997,-0.30839 -0.008,-1.10627 0.39893,-0.2388 0.48513,-0.46457 0.0739,-0.88406 0.29614,-0.62904 0.34951,-0.37837 0.58792,-0.3084 0.23011,-0.13126 0.13601,-0.26688 -0.15617,-0.16052 -0.17278,-0.27162 -0.16843,-0.96195 -0.52229,-0.94179 0.0175,-0.50112 -0.39583,-0.58418 -2.69764,-4.17794 -3.49512,-5.16439 -4.03362,-5.94131 -2.28461,-3.51526 0.32315,-1.29646 1.22527,-4.66701 1.45972,-5.65387 -2.22398,-0.60018 -2.42603,-0.61679 -2.26155,-0.74015 -1.35692,-0.37006 -2.05596,-0.53455 -1.26813,-0.43376 -0.28419,0.8497 -0.0291,1.33748 -0.93042,2.12251 -0.55244,0.46521 -0.0581,0.20353 -0.31983,0.14538 -0.26168,0.75596 -0.14538,0.58151 0.49429,0.75597 0.29075,0.75596 0.20353,0.63966 -0.0581,1.16302 -0.31983,0.55244 -0.1163,1.04672 -0.17446,0.66874 0.31983,0.69781 0.49429,0.81411 0.40706,0.87227 0.2326,0.72689 -0.0582,0.58151 -0.0581,0.0872 0,0.37798 1.01764,1.13394 -0.0872,0.43614 -0.11631,0.40706 -0.1163,0.3489 0.0291,1.48286 0.37798,0.66873 0.34891,0.46521 0.49428,0.0872 0.17445,0.49428 -0.20352,0.63966 -0.37799,0.29076 -0.20353,0 -0.14537,0.69781 0.0872,0.52336 0.58151,0.78504 0.29076,0.9595 0.26168,0.84319 0.2326,0.55243 0.61059,1.04672 0.26168,0.46521 0.0872,0.52336 0.29075,0.17445 0,0.43613 -0.14538,0.34891 -0.31983,1.27933 -0.0872,0.3489 0.43613,0.49429 0.75596,0.0872 0.81412,0.31983 0.69781,0.37799 0.52336,0 0.52336,0.55243 0.46521,0.87227 0.20353,0.40705 0.69781,0.37799 0.87227,0.14538 0.26168,0.37798 0.1163,0.58151 -0.26168,0.1163 0.0582,0.17445 0.58151,0.14538 0.49429,0.0291 0.52336,0.84319 0.69781,0.75596 0.14538,0.40706 0.46521,0.75596 0.0582,0.58151 0,1.68639 0.0872,0.31983 1.80269,0.26168 3.54721,0.49428 z m -15.81789,-8.94183 0.23261,0.27622 -0.0291,0.23261 -0.58151,-0.0145 -0.10177,-0.21807 -0.1163,-0.26168 z m 0.34891,0 0.21807,-0.1163 0.63966,0.37798 0.55244,0.21807 -0.15992,0.1163 -0.81411,-0.0436 -0.29076,-0.29076 z m 3.72168,3.56177 0.31983,0.4216 0.14538,0.17445 0.27622,0.10176 0.10177,-0.26168 -0.17446,-0.31983 -0.47974,-0.36345 -0.189,0.0291 z m -0.26168,1.55554 0.31984,0.56698 0.21806,0.34891 -0.26168,0.0436 -0.2326,-0.21807 c 0,0 -0.13084,-0.26168 -0.13084,-0.33437 0,-0.0727 0,-0.39252 0,-0.39252 z"
       class="ca"
       id="California"
       style="color:#000000;fill:#b2b2b2;fill-opacity:0.95744682999999997;fill-rule:nonzero;stroke:#000000;stroke-width:0.6;stroke-linecap:butt;stroke-linejoin:miter;stroke-miterlimit:4;stroke-opacity:1;stroke-dasharray:none;stroke-dashoffset:0;marker:none;visibility:visible;display:inline;overflow:visible;enable-background:accumulate" />
    <path
       inkscape:connector-curvature="0"
       d="m 118.65533,38.59933 3.77341,0.81137 1.74756,0.34951 1.66532,0.32895 1.18968,0.29377 -0.10042,1.05486 -0.63735,3.11674 -0.73618,3.59357 -0.34952,1.74796 -0.39063,2.38886 -0.56736,2.95226 -0.63339,2.82101 -0.35403,1.83099 -0.44345,3.01631 -0.0822,0.19769 -0.19294,0.444 -0.33685,-0.0206 -0.1973,-0.49342 -0.49343,-0.0906 -0.25106,-0.17673 -0.36652,0.0577 -0.16447,0.13166 -0.23406,0.24276 -0.0783,1.25413 -0.0988,0.30839 -0.0739,2.17496 -0.23778,0.3083 -0.33749,-0.40674 -2.61105,-4.09135 -3.49512,-5.22212 -4.09135,-6.08562 -2.22688,-3.34209 0.29428,-1.18101 1.25413,-4.66701 1.41861,-5.63809 6.0445,1.4645 2.46715,0.53455"
       class="nv"
       id="Nevada"
       style="color:#000000;fill:#b2b2b2;fill-opacity:0.95744682999999997;fill-rule:nonzero;stroke:#000000;stroke-width:0.6;stroke-linecap:butt;stroke-linejoin:miter;stroke-miterlimit:4;stroke-opacity:1;stroke-dasharray:none;stroke-dashoffset:0;marker:none;visibility:visible;display:inline;overflow:visible;enable-background:accumulate" />
    <path
       inkscape:connector-curvature="0"
       d="m 118.59202,38.44005 0.77295,-3.21954 0.83899,-3.21559 0.18899,-0.7607 0.42345,-1.01137 -0.1107,-0.20915 -0.45232,-0.008 -0.2305,-0.30049 0.0822,-0.26332 0.0905,-0.58397 0.80182,-0.98685 0.32895,-0.19769 0.2056,-0.2056 0.26727,-0.6413 0.72789,-1.01967 0.6413,-0.69467 0.0411,-0.62074 -0.58793,-0.44401 -0.21742,-0.81116 -2.38098,-0.67348 -2.71386,-0.63734 -2.77554,0.0205 -0.0822,-0.24672 -0.98686,0.37008 -0.80182,-0.1028 -0.43175,-0.28784 -0.22616,0.12336 -0.84294,-0.0411 -0.30839,-0.24671 -0.94574,-0.37007 -0.14392,0.0206 -0.78126,-0.26728 -0.34951,0.32895 -1.11022,-0.0617 -1.06909,-0.74015 0.12335,-0.14391 0.0411,-1.39805 -0.41119,-0.69903 -0.74014,-0.10279 -0.12336,-0.45231 -0.42337,-0.0839 -1.04289,0.37029 -0.40706,1.16302 -0.58151,1.80268 -0.58151,1.16302 -0.90134,2.52958 -1.16303,2.44234 -1.45377,2.26789 -0.34891,0.52336 -0.14538,1.54101 -0.2326,1.07579 0.48708,0.63443 1.2104,0.40489 2.08482,0.59228 1.41465,0.45666 2.23269,0.65355 2.39716,0.64565 2.3683,0.6413"
       class="or"
       id="Oregon"
       style="color:#000000;fill:#b2b2b2;fill-opacity:0.95744682999999997;fill-rule:nonzero;stroke:#000000;stroke-width:0.6;stroke-linecap:butt;stroke-linejoin:miter;stroke-miterlimit:4;stroke-opacity:1;stroke-dasharray:none;stroke-dashoffset:0;marker:none;visibility:visible;display:inline;overflow:visible;enable-background:accumulate" />
    <g
       transform="matrix(0.17985562,0,0,0.17985562,93.35723,6.66204)"
       id="Washington"
       class="wa"
       style="color:#000000;fill:#b2b2b2;fill-opacity:0.95744682999999997;fill-rule:nonzero;stroke:#000000;stroke-width:3.33600918;stroke-linecap:butt;stroke-linejoin:miter;stroke-miterlimit:4;stroke-opacity:1;stroke-dasharray:none;stroke-dashoffset:0;marker:none;visibility:visible;display:inline;overflow:visible;enable-background:accumulate">
      <path
         inkscape:connector-curvature="0"
         d="m 145.76396,86.743062 c -8.37536,-2.264829 -13.49761,-3.026892 -19.23611,-2.861854 -4.30166,0.123728 -8.13462,-0.08854 -8.51776,-0.471677 -0.38314,-0.38313 -2.13131,-0.196479 -3.88481,0.414787 -1.78156,0.621051 -4.49875,0.73681 -6.15864,0.262349 -1.63375,-0.46697 -3.97844,-0.970632 -5.21045,-1.119211 -1.23202,-0.14859 -5.145693,-1.223903 -8.69712,-2.3896 -3.902802,-1.281043 -8.072964,-1.910736 -10.541795,-1.591824 -5.828181,0.752856 -9.311281,-1.724802 -8.66028,-6.160401 0.609147,-4.150213 -1.617828,-9.858787 -3.845988,-9.858787 -0.907881,0 -2.220832,-0.779632 -2.917602,-1.732521 -0.69677,-0.952879 -2.707556,-1.802936 -4.468408,-1.888983 -1.760874,-0.08607 -3.560983,-0.651763 -4.000275,-1.257115 -1.304046,-1.79701 -0.942779,-3.818505 0.682398,-3.818505 2.085157,0 3.138944,-3.214967 1.644159,-5.016077 -1.594237,-1.920966 -0.478853,-4.768187 1.867946,-4.768187 1.64554,0 1.621612,-0.233952 -0.233626,-2.283951 -1.676425,-1.852433 -2.023299,-3.727479 -1.835919,-9.924342 0.127075,-4.20219 -0.259957,-8.557807 -0.86007,-9.679127 -1.168339,-2.183065 0.50751,-10.726793 2.104074,-10.726793 0.470655,0 2.041736,1.269519 3.491308,2.82114 3.11108,3.33014 6.067298,4.962101 14.096156,7.781719 6.319798,2.219397 8.651507,2.12087 8.651507,-0.365616 0,-0.847057 0.856124,-1.501493 1.902496,-1.45429 1.13654,0.05127 1.355382,0.306585 0.54357,0.634162 -0.747409,0.301573 -1.358925,1.258604 -1.358925,2.126707 0,1.766669 3.131714,6.9375 4.201809,6.937674 1.247004,2.18e-4 0.545864,-16.792971 -0.806583,-19.319323 -2.114879,-3.9505159 -0.611136,-4.4840301 6.648798,-2.3590619 12.30039,3.6003049 47.87234,12.8877129 60.62011,15.8271669 6.87616,1.585551 12.63343,2.988951 12.79391,3.118658 0.16047,0.129696 -0.6942,3.365939 -1.89932,7.19163 -3.02537,9.604223 -10.89459,46.796548 -10.89459,51.491374 0,4.628457 0.24328,4.621413 -15.21997,0.43989 l 0,-1.1e-5 z"
         class="wa"
         id="WashingtonMainland"
         style="color:#000000;fill:#b2b2b2;fill-opacity:0.95744682999999997;fill-rule:nonzero;stroke:#000000;stroke-width:3.33600918;stroke-linecap:butt;stroke-linejoin:miter;stroke-miterlimit:4;stroke-opacity:1;stroke-dasharray:none;stroke-dashoffset:0;marker:none;visibility:visible;display:inline;overflow:visible;enable-background:accumulate" />
      <path
         inkscape:connector-curvature="0"
         d="m 93.573239,6.3617734 4.364832,1.4549443 9.699629,2.7482283 8.568,1.939925 20.0459,5.658117 22.95579,5.658116 15.16062,3.394673 -1.00428,3.884052 -4.09322,13.809674 -4.45813,20.804652 -3.17654,16.139881 -0.35155,9.37877 -13.18114,-3.894036 -15.57051,-3.383179 -13.66679,0.595738 -1.58057,-1.532199 -5.32647,1.897123 -3.97671,-0.250608 -2.7215,-1.760831 -1.57837,0.525394 -4.205327,-0.228632 -1.875148,-1.37173 -4.776893,-1.736652 -1.442084,-0.206636 -4.985743,-1.325574 -1.782813,1.50802 -5.691381,-0.342927 -4.820844,-3.794246 0.204433,-0.80018 0.06814,-7.933655 -2.125749,-3.886576 -4.115208,-0.73204 -0.36491,-2.354366 -2.514408,-0.627046 -2.881537,-0.534882 -1.778265,0.969963 -2.263247,-2.909888 0.323321,-2.909889 2.748228,-0.323321 1.616605,-4.041511 -2.586568,-1.131624 0.161661,-3.718191 4.364833,-0.646641 -2.748228,-2.748228 -1.454945,-7.113061 0.646642,-2.909888 0,-7.921363 -1.778265,-3.23321 2.263247,-9.376307 2.101586,0.484981 2.424907,2.909889 2.748228,2.586567 3.233209,1.939926 4.526493,2.101586 3.071551,0.646642 2.909889,1.454944 3.394873,0.969963 2.263246,-0.16166 0,-2.424908 1.293284,-1.131623 2.101586,-1.293284 0.323321,1.131624 0.323321,1.778265 -2.263247,0.484981 -0.323321,2.101586 1.778266,1.454945 1.131623,2.424907 0.646642,1.939925 1.454944,-0.16166 0.16166,-1.293284 -0.969962,-1.293284 -0.484982,-3.233209 0.808302,-1.778265 -0.646641,-1.454944 0,-2.263247 1.778265,-3.55653 -1.131624,-2.586568 -2.424907,-4.8498139 0.323321,-0.8083023 z m -9.456691,5.9789646 2.020764,-0.16166 0.484982,1.374119 1.535779,-1.616615 2.344082,0 0.808303,1.535779 -1.53578,1.69744 0.646652,0.808313 -0.727477,2.020761 -1.374119,0.404146 c 0,0 -0.889138,0.08084 -0.889138,-0.242485 0,-0.323321 1.454955,-2.586578 1.454955,-2.586578 l -1.69744,-0.565817 -0.323321,1.454954 -0.727478,0.646642 -1.535782,-2.263257 z"
         class="wa"
         id="Washington2"
         style="color:#000000;fill:#b2b2b2;fill-opacity:0.95744682999999997;fill-rule:nonzero;stroke:#000000;stroke-width:3.33600918;stroke-linecap:butt;stroke-linejoin:miter;stroke-miterlimit:4;stroke-opacity:1;stroke-dasharray:none;stroke-dashoffset:0;marker:none;visibility:visible;display:inline;overflow:visible;enable-background:accumulate" />
    </g>
  </g>
  <path
     style="color:#000000;fill:#ff1608;fill-opacity:0.56382979;fill-rule:nonzero;stroke:#ff1608;stroke-width:0.47620651;stroke-linecap:butt;stroke-linejoin:miter;stroke-miterlimit:4;stroke-opacity:1;stroke-dasharray:none;stroke-dashoffset:0;marker:none;visibility:visible;display:inline;overflow:visible;enable-background:accumulate"
     d="m 10.15719,53.50424 6.51432,-4.28214 5.51211,13.30196 7.78985,10.20425 -7.8354,4.73769 -7.72152,-11.29756 z"
     id="path4687"
     inkscape:connector-curvature="0"
     sodipodi:nodetypes="ccccccc" />
  <path
     style="color:#000000;fill:#ff1608;fill-opacity:0.56382979;fill-rule:nonzero;stroke:#ff1608;stroke-width:0.47620651;stroke-linecap:butt;stroke-linejoin:miter;stroke-miterlimit:4;stroke-opacity:1;stroke-dasharray:none;stroke-dashoffset:0;marker:none;visibility:visible;display:inline;overflow:visible;enable-background:accumulate"
     d="m -43.51765,49.42317 -1.15963,-10.05015 3.22121,-9.14821 3.2212,-7.73089 17.26564,3.73659 5.92701,-13.91559 -7.60203,-1.54618 -2.70581,6.57126 -13.98002,-3.99429 -0.41876,-4.83181 -1.65892,-0.96636 -2.49643,5.15393 -6.4424,9.4059 -5.15393,14.81753 5.28277,16.36371 z"
     id="path4733"
     inkscape:connector-curvature="0"
     sodipodi:nodetypes="cccccccccccccccc" />
  <path
     style="color:#000000;fill:#ff1608;fill-opacity:0.56382979;fill-rule:nonzero;stroke:#ff1608;stroke-width:0.47620651;stroke-linecap:butt;stroke-linejoin:miter;stroke-miterlimit:4;stroke-opacity:1;stroke-dasharray:none;stroke-dashoffset:0;marker:none;visibility:visible;display:inline;overflow:visible;enable-background:accumulate"
     d="m -39.45635,10.86506 5.51212,2.55106 1.22998,-6.96986 -8.60983,-3.78104 -0.18222,5.01101 1.82218,0.86554 z"
     id="path4760"
     inkscape:connector-curvature="0" />
</svg>
