<?xml version="1.0" encoding="UTF-8" standalone="no"?>
<svg
   xmlns:dc="http://purl.org/dc/elements/1.1/"
   xmlns:cc="http://creativecommons.org/ns#"
   xmlns:rdf="http://www.w3.org/1999/02/22-rdf-syntax-ns#"
   xmlns:svg="http://www.w3.org/2000/svg"
   xmlns="http://www.w3.org/2000/svg"
   xmlns:xlink="http://www.w3.org/1999/xlink"
   xmlns:sodipodi="http://sodipodi.sourceforge.net/DTD/sodipodi-0.dtd"
   xmlns:inkscape="http://www.inkscape.org/namespaces/inkscape"
   width="80"
   height="80"
   id="svg4862"
   sodipodi:version="0.32"
   inkscape:version="0.48.0 r9654"
   sodipodi:docname="region13.svg"
   inkscape:output_extension="org.inkscape.output.svg.inkscape"
   sodipodi:modified="true"
   version="1.1"
   inkscape:export-filename="region26.png"
   inkscape:export-xdpi="90"
   inkscape:export-ydpi="90">
  <text
     sodipodi:linespacing="125%"
     id="text3892"
     y="-283.31943"
     x="872.28162"
     style="font-size:32.91231537px;font-style:normal;font-variant:normal;font-weight:normal;font-stretch:normal;line-height:125%;letter-spacing:0px;word-spacing:0px;color:#000000;fill:#000000;fill-opacity:0.24867727;fill-rule:nonzero;stroke:none;stroke-width:1.5;marker:none;visibility:visible;display:inline;overflow:visible;enable-background:accumulate;font-family:KaiTi;-inkscape-font-specification:KaiTi"
     xml:space="preserve"><tspan
       y="-283.31943"
       x="872.28162"
       id="tspan3894"
       sodipodi:role="line" /></text>
  <metadata
     id="metadata4922">
    <rdf:RDF>
      <cc:Work
         rdf:about="">
        <dc:format>image/svg+xml</dc:format>
        <dc:type
           rdf:resource="http://purl.org/dc/dcmitype/StillImage" />
        <dc:title></dc:title>
      </cc:Work>
      <cc:Work
         rdf:about="">
        <dc:format>image/svg+xml</dc:format>
        <dc:type
           rdf:resource="http://purl.org/dc/dcmitype/StillImage" />
      </cc:Work>
      <cc:Work
         rdf:about="">
        <dc:format>image/svg+xml</dc:format>
        <dc:type
           rdf:resource="http://purl.org/dc/dcmitype/StillImage" />
      </cc:Work>
    </rdf:RDF>
  </metadata>
  <defs
     id="defs4920">
    <linearGradient
       id="linearGradient5335">
      <stop
         style="stop-color:#ffffff;stop-opacity:1;"
         offset="0"
         id="stop5337" />
      <stop
         style="stop-color:#ffffff;stop-opacity:0;"
         offset="1"
         id="stop5339" />
    </linearGradient>
    <inkscape:perspective
       sodipodi:type="inkscape:persp3d"
       inkscape:vp_x="0 : 296.5 : 1"
       inkscape:vp_y="0 : 1000 : 0"
       inkscape:vp_z="959 : 296.5 : 1"
       inkscape:persp3d-origin="479.5 : 197.66667 : 1"
       id="perspective4924" />
    <inkscape:perspective
       id="perspective2451"
       inkscape:persp3d-origin="372.04724 : 350.78739 : 1"
       inkscape:vp_z="744.09448 : 526.18109 : 1"
       inkscape:vp_y="0 : 1000 : 0"
       inkscape:vp_x="0 : 526.18109 : 1"
       sodipodi:type="inkscape:persp3d" />
    <inkscape:perspective
       id="perspective10034"
       inkscape:persp3d-origin="372.04724 : 350.78739 : 1"
       inkscape:vp_z="744.09448 : 526.18109 : 1"
       inkscape:vp_y="0 : 1000 : 0"
       inkscape:vp_x="0 : 526.18109 : 1"
       sodipodi:type="inkscape:persp3d" />
    <inkscape:perspective
       id="perspective3314"
       inkscape:persp3d-origin="372.04724 : 350.78739 : 1"
       inkscape:vp_z="744.09448 : 526.18109 : 1"
       inkscape:vp_y="0 : 1000 : 0"
       inkscape:vp_x="0 : 526.18109 : 1"
       sodipodi:type="inkscape:persp3d" />
    <radialGradient
       inkscape:collect="always"
       xlink:href="#linearGradient5335-0"
       id="radialGradient5341-6"
       cx="589"
       cy="258"
       fx="589"
       fy="258"
       r="18.411404"
       gradientTransform="matrix(1.3541667,0,0,1.2070658,-207.47917,-53.506312)"
       gradientUnits="userSpaceOnUse" />
    <linearGradient
       inkscape:collect="always"
       id="linearGradient5335-0">
      <stop
         style="stop-color:#ffffff;stop-opacity:1;"
         offset="0"
         id="stop5337-8" />
      <stop
         style="stop-color:#ffffff;stop-opacity:0;"
         offset="1"
         id="stop5339-5" />
    </linearGradient>
    <radialGradient
       r="18.411404"
       fy="258"
       fx="589"
       cy="258"
       cx="589"
       gradientTransform="matrix(1.3541667,0,0,1.2070658,-125.60417,-49.422976)"
       gradientUnits="userSpaceOnUse"
       id="radialGradient5379"
       xlink:href="#linearGradient5335-0"
       inkscape:collect="always" />
    <radialGradient
       inkscape:collect="always"
       xlink:href="#linearGradient5335-3"
       id="radialGradient5341-1"
       cx="589"
       cy="258"
       fx="589"
       fy="258"
       r="18.411404"
       gradientTransform="matrix(1.6745745,0,0,1.4926682,-398.21018,-127.36851)"
       gradientUnits="userSpaceOnUse" />
    <linearGradient
       id="linearGradient5335-3">
      <stop
         style="stop-color:#ffffff;stop-opacity:1;"
         offset="0"
         id="stop5337-2" />
      <stop
         style="stop-color:#ffffff;stop-opacity:0;"
         offset="1"
         id="stop5339-3" />
    </linearGradient>
    <radialGradient
       r="18.411404"
       fy="258"
       fx="589"
       cy="258"
       cx="589"
       gradientTransform="matrix(1.6745745,0,0,1.4926682,-658.82111,-358.48106)"
       gradientUnits="userSpaceOnUse"
       id="radialGradient5413"
       xlink:href="#linearGradient5335-3-1"
       inkscape:collect="always" />
    <linearGradient
       id="linearGradient5335-3-1">
      <stop
         style="stop-color:#ffffff;stop-opacity:1;"
         offset="0"
         id="stop5337-2-7" />
      <stop
         style="stop-color:#ffffff;stop-opacity:0;"
         offset="1"
         id="stop5339-3-4" />
    </linearGradient>
    <radialGradient
       inkscape:collect="always"
       xlink:href="#linearGradient5335-09"
       id="radialGradient5341"
       cx="589"
       cy="258"
       fx="589"
       fy="258"
       r="18.411404"
       gradientTransform="matrix(1.6745745,0,0,1.4926682,-742.81197,-363.5223)"
       gradientUnits="userSpaceOnUse" />
    <linearGradient
       id="linearGradient5335-09">
      <stop
         style="stop-color:#ffffff;stop-opacity:1;"
         offset="0"
         id="stop5337-4" />
      <stop
         style="stop-color:#ffffff;stop-opacity:0;"
         offset="1"
         id="stop5339-8" />
    </linearGradient>
  </defs>
  <style
     type="text/css"
     id="style_css_sheet">
/*
 * Below are Cascading Style Sheet (CSS) definitions in use in this file,
 * which allow easily changing how states are displayed.
 * Modified from the world version of this map.
 */

 /* Unconfirmed deaths */
 .qq
 {
	fill:  #A52A2A; /* brown */
 }

 /* 1+ deaths */
 .q1, .dc, .ga, .hi, .in, .md, .mn, .mo, .nc, .ne, .nv, .oh, .ok, .pr, .ri, .tn, .va, .az, .ct, .fl, .il, .ma, .mi, .nj, .or, .pa, .ut, .wa, .wi, .ca, .ny, .tx
 { 
	fill: #000000; /* black */
 }

 /* Unconfirmed cases*/
 .zz
 { 
	fill: yellow ; 
 }

 /* 1+ cases */
 .z1, .ak, .al, .ar, .co, .de, .ia, .id, .ks, .ky, .la, .me, .ms, .mt, .nd, .nh, .nm, .sc, .sd, .vi, .vt, .wv, .wy
 { 
	fill: #ff0000; /* red */
 }

 /* No cases */
 .xx
 { 
	fill: #808080; 
 }

/*
 * land
 */
.landxx
{
   fill: #b9b9b9;
   fill-opacity: 1;
   stroke:white;
   stroke-opacity: 1;
   stroke-width:0.5;
   stroke-miterlimit: 3.97446823;
   stroke-dasharray: none;
}

/*
 * Styles for coastlines of islands with no borders
 */
.coastxx
{
   stroke-width: 0.3;
}

/*
 * Sea
 */

.ocean
{
   opacity: 1;
   color: #000000;
   fill:white;
   fill-opacity:1;
   fill-rule:nonzero;
   stroke:#000000;
   stroke-width:0.5;
   stroke-linecap:butt;
   stroke-linejoin:miter;
   marker:none;
   marker-start:none;
   marker-mid:none;
   marker-end:none;
   stroke-miterlimit:1;
   stroke-dasharray:none;
   stroke-dashoffset:0;
   stroke-opacity:1;
   visibility:visible;
   display:inline;
   overflow:visible;
}

.lake
{
   fill:white;
   fill-opacity:1;
   stroke:#1821de;
   stroke-opacity: 1;
   stroke-width:0.3;
   stroke-miterlimit: 3.97446823;
   stroke-dasharray: none;
}
  </style>
  <sodipodi:namedview
     inkscape:window-height="706"
     inkscape:window-width="1366"
     inkscape:pageshadow="2"
     inkscape:pageopacity="0.0"
     guidetolerance="10.0"
     gridtolerance="10.0"
     objecttolerance="10.0"
     borderopacity="1.0"
     bordercolor="#666666"
     pagecolor="#ffffff"
     id="base"
     showgrid="false"
     inkscape:zoom="2.8284271"
     inkscape:cx="80.356376"
     inkscape:cy="17.310313"
     inkscape:window-x="-8"
     inkscape:window-y="-8"
     inkscape:current-layer="svg4862"
     showguides="true"
     inkscape:guide-bbox="true"
     inkscape:window-maximized="1" />
  <!-- US -->
  <!-- Puerto Rico & US Virgin Islands box -->
  <!-- Hawaii & Alaska - box -->
  <path
     style="color:#000000;fill:#b2b2b2;fill-opacity:0.95744682999999997;fill-rule:nonzero;stroke:#000000;stroke-width:0.4;stroke-linecap:butt;stroke-linejoin:miter;stroke-miterlimit:4;stroke-opacity:1;stroke-dasharray:none;stroke-dashoffset:0;marker:none;visibility:visible;display:inline;overflow:visible;enable-background:accumulate"
     id="Vermont"
     class="vt"
     d="m 72.826218,34.889903 -0.14805,-1.03636 -0.43789,-1.82645 -0.11844,-0.0592 -0.53299,-0.23688 0.14805,-0.53299 -0.14805,-0.38493 -0.49455,-0.84987 0.17766,-0.71065 -0.14805,-0.94753 -0.44416,-1.18442 -0.14755,-0.90162 4.80758,-1.23589 0.0594,1.06585 0.35532,0.50337 0,0.74026 -0.68104,0.74026 -0.47376,0.20727 0,0.20727 0.20727,0.32572 0,1.56935 -0.14805,1.68779 -0.0296,0.88831 0.17766,0.23688 -0.0296,0.82909 -0.0888,0.32571 0.121,0.28699 -1.27324,0.2517 z"
     inkscape:connector-curvature="0" />
  <path
     style="color:#000000;fill:#b2b2b2;fill-opacity:0.95744682999999997;fill-rule:nonzero;stroke:#000000;stroke-width:0.4;stroke-linecap:butt;stroke-linejoin:miter;stroke-miterlimit:4;stroke-opacity:1;stroke-dasharray:none;stroke-dashoffset:0;marker:none;visibility:visible;display:inline;overflow:visible;enable-background:accumulate"
     id="Pennsylvania"
     class="pa"
     d="m 68.771588,48.212003 0.20728,-0.11845 0.41454,-0.11217 0.26649,-0.50338 0.29611,-0.41454 0.5922,-0.5626 0,-0.14805 -0.44415,-0.2961 -0.65143,-0.44416 -0.17766,-0.47376 -0.50338,-0.0592 -0.0296,-0.20727 -0.14805,-0.50337 0.41455,-0.20727 0.0296,-0.44416 -0.23689,-0.23688 0.0296,-0.29611 0.35533,-0.56259 0,-0.5626 0.42935,-0.44416 0.0393,-0.19844 -0.47377,-0.0296 -0.41454,-0.35533 -0.44416,-0.97714 -0.55033,-0.17047 -0.42681,-0.39212 -3.40519,0.74025 -7.87635,1.59896 -1.62857,0.26649 -0.0908,-1.29751 -1.00511,1.03124 -0.23689,0.0888 -0.7697,0.55112 0.53314,3.50528 0.45455,1.78206 0.65422,3.52801 0.59882,-0.1168 2.18763,-0.2752 6.94677,-1.40399 2.72478,-0.51712 1.52032,-0.29716 0.0489,-0.0437 0.38494,-0.29611 z"
     inkscape:connector-curvature="0" />
  <path
     style="color:#000000;fill:#b2b2b2;fill-opacity:0.95744682999999997;fill-rule:nonzero;stroke:#000000;stroke-width:0.4;stroke-linecap:butt;stroke-linejoin:miter;stroke-miterlimit:4;stroke-opacity:1;stroke-dasharray:none;stroke-dashoffset:0;marker:none;visibility:visible;display:inline;overflow:visible;enable-background:accumulate"
     id="Ohio"
     class="oh"
     d="m 52.145668,42.451123 -1.11612,0.74243 -0.71064,0.41454 -0.62182,0.68103 -0.74025,0.71065 -0.59221,0.14805 -0.53299,0.0888 -1.00675,0.47377 -0.38493,0.0296 -0.62182,-0.5626 -0.94753,0.11845 -0.47376,-0.2665 -0.43612,-0.24742 -0.89614,0.12884 -1.86545,0.2961 -1.4213,0.22208 0.23688,2.67973 0.32572,2.51688 0.47376,4.2935 0.10364,0.88489 0.75506,-0.0236 0.44416,-0.14805 0.61612,0.27532 0.37924,0.79947 0.94127,-0.003 0.34649,0.38807 0.32259,-0.012 0.46494,-0.24571 0.45867,0.0681 0.36159,0.26649 0.31631,-0.39062 0.42964,-0.23689 0.37924,-0.1247 0.11844,0.50337 0.32572,0.17766 0.63662,0.42935 0.39973,-0.0148 0.20984,-0.21041 -0.012,-0.25396 0.29611,-0.26649 0.0296,-0.91792 c 0,0 0.17766,-0.71065 0.17766,-0.71065 l 0.27845,-0.26393 0.27845,0.1657 0.15119,0.22179 0.22179,-0.0322 -0.0774,-0.44159 -0.10335,-0.11787 0,-0.44416 0.17766,-0.23688 0.41454,-0.62182 0.23688,-0.26649 0.38494,0.0888 0.41454,-0.2961 0.5626,-0.62182 0.41455,-0.71065 0.0384,-0.99479 0.0888,-0.91792 0,-0.8587 -0.20727,-0.56259 0.17766,-0.2665 0.1686,-0.17485 -0.25732,-1.80284 z"
     inkscape:connector-curvature="0" />
  <path
     style="color:#000000;fill:#b2b2b2;fill-opacity:0.95744682999999997;fill-rule:nonzero;stroke:#000000;stroke-width:0.4;stroke-linecap:butt;stroke-linejoin:miter;stroke-miterlimit:4;stroke-opacity:1;stroke-dasharray:none;stroke-dashoffset:0;marker:none;visibility:visible;display:inline;overflow:visible;enable-background:accumulate"
     id="Michigan"
     class="mi"
     d="m 24.704748,21.763053 0.33501,-0.37687 0.39781,-0.14657 0.98407,-0.71188 0.41876,-0.10469 0.0837,0.0838 -0.9422,0.9422 -0.60719,0.35594 -0.37688,0.1675 z m 15.784,5.88471 0.11844,0.45896 0.5922,0.0296 0.23689,-0.22208 c 0,0 -0.0148,-0.26649 -0.074,-0.2961 -0.0592,-0.0296 -0.2961,-0.34052 -0.2961,-0.34052 l -0.39974,0.0444 -0.29611,0.0296 -0.0592,0.20728 z m 5.50706,11.5484 -0.59221,-1.51013 -0.41454,-1.65817 -0.44416,-0.59221 -0.47376,-0.32571 -0.29611,0.20727 -0.71064,0.32571 -0.35533,0.91792 -0.50337,0.68104 -0.20727,0.11844 -0.26649,-0.11844 c 0,0 -0.47377,-0.26649 -0.44416,-0.38493 0.0296,-0.11845 0.0888,-0.91792 0.0888,-0.91792 l 0.62182,-0.23689 0.14805,-0.62181 0.11844,-0.47377 0.44415,-0.2961 -0.0592,-1.83584 -0.2961,-0.41454 -0.23688,-0.14805 -0.14805,-0.38494 0.14805,-0.14805 0.2961,0.0592 0.0296,-0.2961 -0.44415,-0.41455 -0.23689,-0.47376 -0.47376,0 -0.82909,-0.26649 -1.00675,-0.62182 -0.50337,0 -0.11844,0.11845 -0.17767,-0.0888 -0.56259,-0.41454 -0.53298,0.32571 -0.53299,0.41455 0.0592,0.65142 0.17766,0.0592 0.38494,0.0888 0.0888,0.14805 -0.47377,0.14806 -0.47376,0.0592 -0.26649,0.32571 -0.0592,0.38494 0.0592,0.2961 0.0592,1.00675 -0.65143,0.38493 -0.11844,-0.0296 0,-0.76987 0.23688,-0.44415 0.11844,-0.44415 -0.14805,-0.14806 -0.35532,0.14806 -0.17767,0.76986 -0.50337,0.20727 -0.32571,0.35533 -0.0296,0.17766 0.11844,0.14805 -0.11844,0.47376 -0.41455,0.0888 0,0.20727 0.14806,0.44415 -0.20728,1.12519 -0.2961,0.74026 0.11844,0.8587 0.0888,0.20727 -0.14805,0.44415 -0.0592,0.14806 -0.0592,0.50337 0.65143,1.09558 0.53298,1.18441 0.26649,0.88831 -0.14805,0.8587 -0.17766,1.09558 -0.44415,0.94753 -0.0592,0.50337 -0.59691,0.56509 0.8075,-0.0297 3.92308,-0.41455 1.33303,-0.18079 0.0177,0.30521 1.25502,-0.22207 1.88623,-0.27532 0.70595,-0.0844 0.0253,-0.10762 0.0296,-0.26649 0.38493,-0.68104 0.36643,-0.31831 -0.0407,-0.92532 0.29251,-0.29251 0.19976,-0.0628 0.0407,-0.65142 0.2813,-0.55519 0.19246,0.11104 0.0296,0.11844 0.14806,0.0296 0.35532,-0.17766 z m -23.87865,-12.09313 0.1312,-0.10631 0.50337,-0.14805 0.65143,-0.41454 0,-0.17767 0.11844,-0.11844 1.09558,-0.17766 0.44416,-0.35532 0.79947,-0.38493 0.0296,-0.23689 0.35533,-0.53298 0.32571,-0.14805 0.23688,-0.32572 0.41455,-0.41454 0.79948,-0.44416 0.85869,-0.0888 0.20727,0.20727 -0.0592,0.17767 -0.68103,0.17766 -0.26649,0.56259 -0.41455,0.14806 -0.0888,0.44415 -0.44415,0.59221 -0.0592,0.47376 0.14805,0.0888 0.17766,-0.20727 0.65142,-0.53299 0.23689,0.23689 0.41454,0 0.59221,0.17766 0.26649,0.20727 0.26649,0.5626 0.50338,0.50337 0.71064,-0.0296 0.2665,-0.17766 0.2961,0.23688 0.2961,0.0888 0.23688,-0.14805 0.20728,0 0.2961,-0.17766 0.74025,-0.65143 0.62182,-0.20727 1.21402,-0.0592 0.82909,-0.35532 0.47377,-0.23689 0.26649,0.0296 0,1.03636 0.0888,0.0592 0.53298,0.14806 0.35533,-0.0888 1.12519,-0.2961 0.20727,-0.20727 0.26649,0.0888 0,1.27324 0.59221,0.5626 0.23688,0.11844 0.23688,0.17766 -0.23688,0.0592 -0.14805,-0.0592 -0.68104,-0.0888 -0.38493,0.11844 -0.41454,-0.0296 -0.59221,0.26649 -0.32571,0 -1.06597,-0.23688 -0.94753,0.0296 -0.35533,0.47377 -1.27324,0.11844 -0.44415,0.14805 -0.20727,0.56259 -0.23689,0.20728 -0.0888,-0.0296 -0.26649,-0.29611 -0.82909,0.44416 -0.11844,0 -0.20727,-0.29611 -0.14805,0.0296 -0.35533,0.79948 -0.17766,0.74026 -0.58266,1.28229 -0.21554,-0.18944 -0.25125,-0.1889 -0.35548,-1.88439 -0.64922,-0.25094 -0.37596,-0.41876 -2.22001,-0.5025 -0.52298,-0.18859 -1.50751,-0.39797 -1.44516,-0.20938 z"
     inkscape:connector-curvature="0" />
  <path
     style="color:#000000;fill:#b2b2b2;fill-opacity:0.95744682999999997;fill-rule:nonzero;stroke:#000000;stroke-width:0.4;stroke-linecap:butt;stroke-linejoin:miter;stroke-miterlimit:4;stroke-opacity:1;stroke-dasharray:none;stroke-dashoffset:0;marker:none;visibility:visible;display:inline;overflow:visible;enable-background:accumulate"
     id="Indiana"
     class="in"
     d="m 31.445378,61.838513 0.012,-0.52359 0.0888,-0.82909 0.41454,-0.53298 0.32572,-0.71065 0.47376,-0.76987 -0.0888,-1.06597 -0.32571,-0.50338 -0.0592,-0.5922 0.14805,-1.00676 -0.0888,-1.27324 -0.23689,-2.93142 -0.23688,-2.81298 -0.17775,-2.14668 0.5625,0.16293 0.26649,0.17766 0.20728,-0.0592 0.38493,-0.35533 0.51828,-0.29617 0.93281,-0.0297 4.02701,-0.41455 1.02127,-0.0977 0.27532,2.92259 0.77869,6.74803 0.10961,1.05714 -0.068,0.41455 0.22492,0.32884 0.0177,0.2514 -0.46181,0.29297 -0.64829,0.28415 -0.58651,0.10079 -0.10962,0.89144 -0.83792,0.60673 -0.5122,0.73456 0.0592,0.43533 -0.10648,0.28101 -0.60928,0 -0.29042,-0.2961 -0.45668,0.23119 -0.49142,0.27532 0.0296,0.55946 -0.21866,0.0473 -0.0857,-0.18648 -0.3969,-0.27532 -0.59534,0.24571 -0.28414,0.55063 -0.26336,-0.14805 -0.26649,-0.29297 -0.81771,0.0888 -1.0244,0.17766 z"
     inkscape:connector-curvature="0" />
  <path
     style="color:#000000;fill:#b2b2b2;fill-opacity:0.95744682999999997;fill-rule:nonzero;stroke:#000000;stroke-width:0.4;stroke-linecap:butt;stroke-linejoin:miter;stroke-miterlimit:4;stroke-opacity:1;stroke-dasharray:none;stroke-dashoffset:0;marker:none;visibility:visible;display:inline;overflow:visible;enable-background:accumulate"
     id="Illinois"
     class="il"
     d="m 31.332628,61.975173 0,-0.66025 0.0473,-0.89144 0.43532,-0.57456 0.32572,-0.68986 0.47376,-0.70752 -0.068,-0.96204 -0.36728,-0.64887 -0.0177,-0.61299 0.12727,-0.96518 -0.15118,-1.31482 -0.19532,-2.88985 -0.23688,-2.75063 -0.16893,-2.13187 -0.0499,-0.16877 -0.14805,-0.47376 -0.23688,-0.68104 -0.29611,-0.32571 -0.26649,-0.47377 -0.0428,-1.00537 -1.81381,0.24035 -4.98316,0.31407 -1.59126,-0.0785 0.0419,0.43446 0.41876,0.12562 0.1675,0.20938 0.0837,0.335 0.71188,0.62813 0.12563,0.41875 -0.12563,0.62813 -0.33501,0.67001 -0.12562,0.46063 -0.41875,0.335 -0.33501,0.12562 -0.96313,0.25126 -0.12562,0.335 -0.12563,0.37688 0.12563,0.25125 0.335,0.29313 -0.0419,0.75375 -0.33501,0.29313 -0.12562,0.29312 0,0.50251 -0.33501,0.0838 -0.29312,0.20938 -0.0419,0.25125 0.0419,0.37688 -0.31407,0.24078 -0.18844,0.51297 0.0838,0.67001 0.41876,1.34 1.34001,1.38189 1.005,0.67001 -0.0419,0.79562 0.1675,0.25126 1.17251,0.0838 0.5025,0.25125 -0.12562,0.67 -0.41876,1.08876 -0.12562,0.58626 0.41875,0.71188 1.17251,0.96313 0.8375,0.12563 0.37688,0.92125 0.37688,0.58626 -0.1675,0.54437 0.29313,0.75376 0.335,0.37688 0.35613,-0.14512 0.12578,-0.39622 0.37297,-0.26336 0.59278,-0.20158 0.56573,0.2161 0.52672,0.19531 0.14492,-0.0384 -0.012,-0.22749 -0.19532,-0.5065 0.08,-0.43533 0.41768,-0.28728 0.43219,-0.18079 0.21297,-0.0769 -0.10648,-0.24258 -0.13923,-0.39689 0.22806,-0.23119 z"
     inkscape:connector-curvature="0" />
  <path
     style="color:#000000;fill:#b2b2b2;fill-opacity:0.95744682999999997;fill-rule:nonzero;stroke:#000000;stroke-width:0.4;stroke-linecap:butt;stroke-linejoin:miter;stroke-miterlimit:4;stroke-opacity:1;stroke-dasharray:none;stroke-dashoffset:0;marker:none;visibility:visible;display:inline;overflow:visible;enable-background:accumulate"
     id="Minnesota"
     class="mn"
     d="m 4.6043477,30.264003 -0.0838,-1.54938 -0.335,-1.34001 -0.335,-2.47065 -0.0838,-1.80063 -0.335,-0.62813 -0.29312,-0.92126 0,-1.88439 0.12562,-0.71188 -0.33353,-0.99855 5.51916,0.006 0.0592,-1.51012 0.11844,-0.0296 0.41455,0.0888 0.35532,0.14805 0.14805,1.00675 0.26649,1.12519 0.2961003,0.2961 0.88831,0 0.0592,0.26649 1.15481,0.0592 0,0.38494 0.8883,0 0.0592,-0.23688 0.20727,-0.20728 0.41455,-0.11844 0.23688,0.17766 0.53298,0 0.71065,0.47377 0.97714,0.44415 0.44416,0.0888 0.0888,-0.17766 0.26649,-0.0888 0.0888,0.53299 0.47376,0.23688 0.0888,-0.0888 0.23688,0.0296 0,0.38493 0.47376,0.17766 0.5626,0 0.2961,-0.14805 0.59221,-0.5922 0.47376,-0.0888 0.14805,0.32571 0.0888,0.23688 0.17767,0 0.17766,-0.14805 1.62856,-0.0592 0.32571,0.56259 0.11845,0 0.13071,-0.1986 0.81322,-0.0679 -0.11211,0.41752 -0.72143,0.33649 -1.69349,0.74385 -0.87456,0.36759 -0.56259,0.47376 -0.44416,0.65143 -0.41454,0.71065 -0.32571,0.14805 -0.82909,0.91792 -0.23688,0.0296 -0.70365,0.53738 -0.51587,0.57896 -0.0419,0.54408 0.0416,1.42468 -0.29251,0.29312 -0.96313,0.75345 -0.33562,1.04719 0.46124,0.66817 0.0841,0.46154 -0.2103,0.54469 -0.0416,0.67031 0.0838,1.29752 0.62751,0.75223 0.54499,0 0.45971,0.41997 0.58656,0.25003 0.67032,0.92218 1.29813,0.92003 0.33531,0.37779 0.0428,1.00777 -3.77092,0.12563 -11.0353703,0.084 -0.0619,-6.53469 -0.0838,-0.54438 -0.75376,-0.62813 -0.20937,-0.335 0,-0.29313 0.37687,-0.29313 0.25126,-0.25125 z"
     inkscape:connector-curvature="0" />
  <path
     style="color:#000000;fill:#b2b2b2;fill-opacity:0.95744682999999997;fill-rule:nonzero;stroke:#000000;stroke-width:0.4;stroke-linecap:butt;stroke-linejoin:miter;stroke-miterlimit:4;stroke-opacity:1;stroke-dasharray:none;stroke-dashoffset:0;marker:none;visibility:visible;display:inline;overflow:visible;enable-background:accumulate"
     id="Wisconsin"
     class="wi"
     d="m 30.441718,42.849223 0.0679,-0.54398 -0.29611,-0.82909 -0.11844,-1.12519 -0.20727,-0.44416 0.17767,-0.56259 0.14804,-0.53299 0.2665,-0.47376 -0.11844,-0.62182 -0.11844,-0.65142 0.0888,-0.32572 0.35532,-0.44415 0.0296,-0.50338 -0.14805,-0.23688 0.11844,-0.47376 0.0888,-0.59221 0.50338,-1.03636 0.53298,-1.24363 0.0296,-0.41454 -0.0592,-0.17766 -0.14805,0.0888 -0.76987,1.1548 -0.50337,0.74025 -0.35533,0.32572 -0.14805,0.41454 -0.26649,0.14805 -0.20727,0.35533 -0.26649,-0.0592 -0.0296,-0.32572 0.23689,-0.44415 0.38493,-0.8587 0.32571,-0.2961 0.20173,-0.41973 -0.29868,-0.16581 -0.25125,-0.25125 -0.29313,-1.88439 -0.67,-0.20938 -0.25126,-0.41875 -2.30314,-0.5025 -0.46063,-0.20938 -1.50751,-0.41875 -1.50751,-0.20938 -0.76369,-0.98996 -0.097,0.23098 -0.20728,-0.0296 -0.11844,-0.20727 -0.50337,-0.14805 -0.20727,0.0296 -0.32572,0.17766 -0.17766,-0.11844 0.11844,-0.35532 0.35532,-0.5626 0.20728,-0.20727 -0.35533,-0.26649 -0.38493,0.14805 -0.53299,0.35532 -1.36207,0.59221 -0.53298,0.11844 -0.53299,-0.0888 -0.17981,-0.16086 -0.3877,0.5193 -0.0419,0.5025 0,1.54939 -0.20938,0.29312 -0.96313,0.71188 -0.41875,1.08876 0.0838,0.0419 0.46063,0.37688 0.12562,0.58626 -0.335,0.58625 0,0.71188 0.0837,1.21438 0.54438,0.54439 0.62813,0 0.335,0.58625 0.62813,0.0838 0.71188,1.04688 1.29813,0.75376 0.37688,0.5025 0.1675,1.36095 0.12563,0.60719 0.41875,0.29313 0.0419,0.25125 -0.37688,0.62813 0.0419,0.58625 0.46062,0.71188 0.46063,0.20938 0.54438,0.0838 0.24587,0.25279 1.68025,-1e-5 4.77454,-0.27234 z"
     inkscape:connector-curvature="0" />
  <path
     style="color:#000000;fill:#b2b2b2;fill-opacity:0.95744682999999997;fill-rule:nonzero;stroke:#000000;stroke-width:0.4;stroke-linecap:butt;stroke-linejoin:miter;stroke-miterlimit:4;stroke-opacity:1;stroke-dasharray:none;stroke-dashoffset:0;marker:none;visibility:visible;display:inline;overflow:visible;enable-background:accumulate"
     id="NewYork"
     class="ny"
     d="m 69.945188,41.428093 -0.20727,-0.17766 -0.47377,-0.0296 -0.41454,-0.35532 -0.29867,-1.12263 -0.63346,0.0166 -0.4476,-0.49604 -3.55068,0.80261 -7.87636,1.59896 -1.37915,0.22492 -0.13521,-1.18476 0.26158,-0.20613 0.23688,-0.20727 0.17766,-0.2961 0.32572,-0.20728 0.35532,-0.32571 0.0888,-0.2961 0.38493,-0.50338 0.20728,-0.17766 -0.0296,-0.17766 -0.23689,-0.56259 -0.32571,-0.0296 -0.35532,-1.1252 0.53298,-0.32571 0.79948,-0.26649 0.74026,-0.23688 0.5922,-0.0888 1.1548,-0.0296 0.35533,0.23689 0.2961,0.0296 0.38493,-0.23689 0.47377,-0.20727 0.94753,-0.0888 0.38493,-0.32571 0.32571,-0.59221 0.29611,-0.35532 0.38493,0 0.35532,-0.20727 0.0296,-0.41455 -0.26649,-0.38493 -0.0592,-0.26649 0.20727,-0.38494 0,-0.26649 -0.32571,0 -0.32571,-0.14805 -0.14805,-0.20727 -0.0296,-0.47377 1.06597,-1.00674 0.11844,-0.14806 0.26649,-0.53298 0.53298,-0.82909 0.50338,-0.68104 0.38493,-0.44415 0.44236,-0.33438 0.56439,-0.22822 1.00675,-0.23688 0.59221,0.0296 0.82909,-0.26649 1.38566,-0.37936 0.0952,0.91209 0.44416,1.18441 0.14805,0.94754 -0.17767,0.71064 0.47377,0.82909 0.14805,0.38494 -0.14805,0.53299 0.53299,0.23688 0.11844,0.0592 0.56259,2.0135 -0.0982,0.92675 -0.0888,1.98389 0.14805,1.00675 0.14805,0.65143 0.26649,1.33247 0,1.48052 -0.20727,0.41454 0.3369,0.36501 0.1459,0.30742 -0.35533,0.32571 0.0592,0.23689 0.23688,-0.0592 0.2665,-0.23689 0.41454,-0.47376 0.20727,-0.11844 0.29611,0.11844 0.41454,0.0296 1.4509,-0.71065 0.53299,-0.50337 0.23688,-0.26649 0.76987,0.2961 -0.62182,0.65142 -0.71065,0.53299 -1.30285,0.97714 -0.47376,0.17766 -1.06597,0.35532 -0.74026,0.20728 -0.21517,-0.0976 -0.0447,-0.6756 0.0888,-0.50338 -0.0296,-0.38493 -0.51533,-0.31119 -0.82909,-0.17767 -0.71065,-0.20727 z"
     inkscape:connector-curvature="0" />
  <rect
     style="color:#000000;fill:#ff1608;fill-opacity:0.56382979;fill-rule:nonzero;stroke:#ff1608;stroke-width:0.10600725;stroke-linecap:butt;stroke-linejoin:miter;stroke-miterlimit:4;stroke-opacity:1;stroke-dasharray:none;stroke-dashoffset:0;marker:none;visibility:visible;display:inline;overflow:visible;enable-background:accumulate"
     id="rect4710"
     width="9.7757196"
     height="21.126059"
     x="28.265091"
     y="87.498451" />
  <path
     style="color:#000000;fill:#ff1608;fill-opacity:0.56382979;fill-rule:nonzero;stroke:#ff1608;stroke-width:0.10600725;stroke-linecap:butt;stroke-linejoin:miter;stroke-miterlimit:4;stroke-opacity:1;stroke-dasharray:none;stroke-dashoffset:0;marker:none;visibility:visible;display:inline;overflow:visible;enable-background:accumulate"
     d="m 28.13387,27.695283 -8.135502,2.62435 -7.3482,-2.62435 4.06776,-5.24871 -9.5789,-2.75558 1.96826,-4.98627 18.632932,4.72384 2.2307,2.49314 11.28473,1.96826 6.29845,8.39794 1.57461,8.66037 -6.95454,0.65609 -2.49314,-4.98628 -1.96826,-9.05402 z"
     id="path4806"
     inkscape:connector-curvature="0" />
  <path
     style="color:#000000;fill:#ff1608;fill-opacity:0.56382979;fill-rule:nonzero;stroke:#ff1608;stroke-width:0.10600725;stroke-linecap:butt;stroke-linejoin:miter;stroke-miterlimit:4;stroke-opacity:1;stroke-dasharray:none;stroke-dashoffset:0;marker:none;visibility:visible;display:inline;overflow:visible;enable-background:accumulate"
     d="m 102.23978,41.604363 -1.11535,6.03602 9.77572,1.04974 8.28957,-9.4546 -4.09333,-5.71231 -3.40893,2.37318 -2.62436,4.98627 z"
     id="path4829"
     inkscape:connector-curvature="0"
     sodipodi:nodetypes="cccccccc" />
  <path
     style="color:#000000;fill:#ff1608;fill-opacity:0.56382979;fill-rule:nonzero;stroke:#ff1608;stroke-width:0.10600725;stroke-linecap:butt;stroke-linejoin:miter;stroke-miterlimit:4;stroke-opacity:1;stroke-dasharray:none;stroke-dashoffset:0;marker:none;visibility:visible;display:inline;overflow:visible;enable-background:accumulate"
     d="m 64.30971,98.985193 7.33002,1.577337 4.08254,-3.061897 -4.63925,-6.68052 -1.29899,0.0928 2.13405,8.35064 -7.14444,-1.2062 3.15469,-6.30938 -2.69077,-2.22684 -5.10317,4.73204 -4.9176,3.80418 4.45368,5.752667 z"
     id="path4869"
     inkscape:connector-curvature="0" />
</svg>
