<?xml version="1.0" encoding="UTF-8" standalone="no"?>
<!-- Created with Inkscape (http://www.inkscape.org/) -->

<svg
   xmlns:dc="http://purl.org/dc/elements/1.1/"
   xmlns:cc="http://creativecommons.org/ns#"
   xmlns:rdf="http://www.w3.org/1999/02/22-rdf-syntax-ns#"
   xmlns:svg="http://www.w3.org/2000/svg"
   xmlns="http://www.w3.org/2000/svg"
   xmlns:xlink="http://www.w3.org/1999/xlink"
   xmlns:sodipodi="http://sodipodi.sourceforge.net/DTD/sodipodi-0.dtd"
   xmlns:inkscape="http://www.inkscape.org/namespaces/inkscape"
   width="80"
   height="80"
   id="svg4693"
   version="1.1"
   inkscape:version="0.48.0 r9654"
   sodipodi:docname="region09.svg"
   inkscape:export-filename="C:\Users\will\Desktop\region09.png"
   inkscape:export-xdpi="90"
   inkscape:export-ydpi="90">
  <defs
     id="defs4695">
    <radialGradient
       r="128.28937"
       fy="458.89755"
       fx="364.66507"
       cy="458.89755"
       cx="364.66507"
       gradientTransform="matrix(0.713131,0.52519279,-0.43067748,0.58479374,302.24793,-0.98232581)"
       gradientUnits="userSpaceOnUse"
       id="radialGradient4658"
       xlink:href="#linearGradient3991-9"
       inkscape:collect="always" />
    <linearGradient
       id="linearGradient3991-9">
      <stop
         style="stop-color:#b9d2f0;stop-opacity:1;"
         offset="0"
         id="stop3993-4" />
      <stop
         style="stop-color:#b9d2f0;stop-opacity:0;"
         offset="1"
         id="stop3995-8" />
    </linearGradient>
    <radialGradient
       r="128.28937"
       fy="458.89755"
       fx="364.66507"
       cy="458.89755"
       cx="364.66507"
       gradientTransform="matrix(0.713131,0.52519279,-0.43067748,0.58479374,302.24793,-0.98232581)"
       gradientUnits="userSpaceOnUse"
       id="radialGradient4756-2"
       xlink:href="#linearGradient3991-9-4"
       inkscape:collect="always" />
    <linearGradient
       id="linearGradient3991-9-4">
      <stop
         style="stop-color:#b9d2f0;stop-opacity:1;"
         offset="0"
         id="stop3993-4-5" />
      <stop
         style="stop-color:#b9d2f0;stop-opacity:0;"
         offset="1"
         id="stop3995-8-5" />
    </linearGradient>
  </defs>
  <sodipodi:namedview
     id="base"
     pagecolor="#ffffff"
     bordercolor="#666666"
     borderopacity="1.0"
     inkscape:pageopacity="0.0"
     inkscape:pageshadow="2"
     inkscape:zoom="1.4142136"
     inkscape:cx="-16.25"
     inkscape:cy="44.083498"
     inkscape:document-units="px"
     inkscape:current-layer="layer1"
     showgrid="false"
     inkscape:window-width="1366"
     inkscape:window-height="706"
     inkscape:window-x="-8"
     inkscape:window-y="-8"
     inkscape:window-maximized="1" />
  <metadata
     id="metadata4698">
    <rdf:RDF>
      <cc:Work
         rdf:about="">
        <dc:format>image/svg+xml</dc:format>
        <dc:type
           rdf:resource="http://purl.org/dc/dcmitype/StillImage" />
        <dc:title></dc:title>
      </cc:Work>
    </rdf:RDF>
  </metadata>
  <g
     inkscape:label="Layer 1"
     inkscape:groupmode="layer"
     id="layer1"
     transform="translate(0,-972.36218)">
    <rect
       style="fill:#000000;fill-opacity:1;stroke:#000000;stroke-width:0.22691278;stroke-miterlimit:4;stroke-opacity:0.98431373;stroke-dasharray:none"
       id="rect5301"
       width="79.773087"
       height="79.773087"
       x="0.11345639"
       y="972.47565" />
    <g
       style="fill:#eedfa1;fill-opacity:1;stroke:#000000;stroke-width:2.73675251;stroke-miterlimit:4;stroke-opacity:1;stroke-dasharray:none"
       id="g3885"
       transform="matrix(0.18269829,0,0,0.18269829,-82.454521,977.54071)">
      <path
         inkscape:connector-curvature="0"
         style="fill:#eedfa1;fill-opacity:1;stroke:#000000;stroke-width:2.73675251;stroke-miterlimit:4;stroke-opacity:1;stroke-dasharray:none"
         id="NewYork"
         class="ny"
         d="m 828.6143,189.42238 -1.1317,-0.96996 -2.5865,-0.16166 -2.2633,-1.93992 -1.6306,-6.12913 -3.4584,0.0905 -2.4438,-2.7082 -19.38528,4.38194 -43.00178,8.72969 -7.52965,1.22799 -0.73816,-6.46834 1.4281,-1.12538 1.29328,-1.13162 0.96997,-1.61661 1.77826,-1.13162 1.93993,-1.77827 0.48498,-1.6166 2.10158,-2.74823 1.13163,-0.96996 -0.16166,-0.96997 -1.29329,-3.07154 -1.77826,-0.16166 -1.93993,-6.1431 2.90989,-1.77827 4.36483,-1.45494 4.04152,-1.29329 3.23321,-0.48498 6.30475,-0.16166 1.93993,1.29329 1.6166,0.16166 2.10159,-1.29329 2.58657,-1.13162 5.17313,-0.48498 2.10159,-1.77827 1.77826,-3.23321 1.61661,-1.93992 2.10158,0 1.93993,-1.13163 0.16166,-2.26324 -1.45494,-2.10159 -0.32332,-1.45494 1.13162,-2.10159 0,-1.45494 -1.77827,0 -1.77826,-0.8083 -0.8083,-1.13163 -0.16166,-2.58657 5.81977,-5.49645 0.64664,-0.8083 1.45495,-2.90989 2.9099,-4.5265 2.7482,-3.71819 2.1016,-2.4249 2.4151,-1.82561 3.0814,-1.24594 5.4964,-1.29329 3.2332,0.16166 4.5265,-1.45494 7.5652,-2.07117 0.5198,4.97967 2.4249,6.46644 0.8083,5.17315 -0.9699,3.87986 2.5865,4.5265 0.8083,2.10159 -0.8083,2.9099 2.9099,1.29328 0.6467,0.32332 3.0715,10.99294 -0.5363,5.05967 -0.4849,10.83127 0.8083,5.49647 0.8083,3.55654 1.4549,7.27474 0,8.08304 -1.1316,2.26325 1.8393,1.99279 0.7966,1.67842 -1.94,1.77827 0.3234,1.29328 1.2932,-0.32332 1.455,-1.29328 2.2632,-2.58657 1.1317,-0.64664 1.6166,0.64664 2.2632,0.16166 7.9214,-3.87985 2.9099,-2.74823 1.2932,-1.45494 4.2032,1.6166 -3.3949,3.55653 -3.8798,2.90989 -7.1131,5.33479 -2.5865,0.96997 -5.8198,1.93992 -4.0415,1.13163 -1.1748,-0.53293 -0.244,-3.68853 0.485,-2.74824 -0.1617,-2.10158 -2.8135,-1.699 -4.5265,-0.96997 -3.8798,-1.13162 z" />
      <path
         style="fill:#eedfa1;fill-opacity:1;stroke:#000000;stroke-width:2.73675251;stroke-miterlimit:4;stroke-opacity:1;stroke-dasharray:none"
         id="Pennsylvania"
         class="pa"
         d="m 822.20688,226.45982 1.13164,-0.64665 2.26324,-0.61243 1.45495,-2.74824 1.61661,-2.26325 3.23321,-3.07156 0,-0.8083 -2.42491,-1.6166 -3.55654,-2.42492 -0.96996,-2.58657 -2.74824,-0.32332 -0.16166,-1.13163 -0.8083,-2.74823 2.26326,-1.13162 0.16166,-2.42492 -1.2933,-1.29329 0.16166,-1.61661 1.93994,-3.07155 0,-3.07156 2.34408,-2.42491 0.21452,-1.08345 -2.58658,-0.16166 -2.26324,-1.93992 -2.42492,-5.33481 -3.00458,-0.93073 -2.33023,-2.14083 -18.59099,4.04152 -43.00178,8.72969 -8.89135,1.45494 -0.49567,-7.08389 -5.48753,5.63015 -1.29329,0.48498 -4.20229,3.00889 2.91076,19.13745 2.48166,9.72936 3.5718,19.26149 3.26931,-0.63768 11.94358,-1.50247 37.92663,-7.6652 14.87621,-2.82332 8.30035,-1.62236 0.26711,-0.23853 2.1016,-1.61662 z"
         inkscape:connector-curvature="0" />
      <path
         style="fill:#eedfa1;fill-opacity:1;stroke:#000000;stroke-width:2.73675251;stroke-miterlimit:4;stroke-opacity:1;stroke-dasharray:none"
         id="Ohio"
         class="oh"
         d="m 731.43589,195.0077 -6.09354,4.05335 -3.87985,2.26325 -3.39487,3.71819 -4.04151,3.87985 -3.23321,0.8083 -2.90989,0.48498 -5.49646,2.58657 -2.10158,0.16166 -3.39487,-3.07155 -5.17314,0.64665 -2.58656,-1.45495 -2.38107,-1.35083 -4.89257,0.70341 -10.18462,1.61661 -7.75972,1.21246 1.29329,14.63028 1.77827,13.74117 2.58656,23.4408 0.56582,4.83117 4.12235,-0.12902 2.42491,-0.80831 3.3638,1.50314 2.07049,4.36483 5.13894,-0.0171 1.89174,2.1187 1.76117,-0.0653 2.53839,-1.34146 2.50417,0.3715 1.97413,1.45495 1.72697,-2.13268 2.34565,-1.29328 2.07049,-0.68085 0.64664,2.74824 1.77828,0.96996 3.47569,2.34407 2.18242,-0.0808 1.14562,-1.14873 -0.0653,-1.38653 1.61661,-1.45496 0.16166,-5.01147 c 0,0 0.96996,-3.87986 0.96996,-3.87986 l 1.52024,-1.44097 1.52023,0.90468 0.82541,1.21088 1.2109,-0.17563 -0.42281,-2.41093 -0.56426,-0.64352 0,-2.42492 0.96997,-1.29328 2.26324,-3.39487 1.29329,-1.45495 2.10159,0.48498 2.26325,-1.61661 3.07155,-3.39487 2.26326,-3.87986 0.20984,-5.43116 0.48498,-5.01149 0,-4.68816 -1.13162,-3.07155 0.96996,-1.45495 0.92051,-0.95461 -1.40491,-9.84283 z"
         inkscape:connector-curvature="0" />
      <path
         style="fill:#eedfa1;fill-opacity:1;stroke:#000000;stroke-width:2.73675251;stroke-miterlimit:4;stroke-opacity:1;stroke-dasharray:none"
         id="Michigan"
         class="mi"
         d="m 581.61931,82.059006 1.82899,-2.057604 2.17192,-0.800181 5.37264,-3.886597 2.28622,-0.571559 0.45726,0.457254 -5.14402,5.14402 -3.31504,1.943289 -2.05761,0.914496 z m 86.17438,32.128184 0.64664,2.50574 3.23322,0.16166 1.29329,-1.21246 c 0,0 -0.0808,-1.45494 -0.40415,-1.61661 -0.32333,-0.16166 -1.61661,-1.8591 -1.61661,-1.8591 l -2.18242,0.24249 -1.61662,0.16166 -0.32332,1.13163 z m 30.06638,63.0497 -3.23321,-8.24469 -2.26325,-9.05298 -2.4249,-3.23321 -2.58657,-1.77827 -1.6166,1.13163 -3.87986,1.77826 -1.93992,5.01148 -2.74823,3.71819 -1.13162,0.64664 -1.45495,-0.64664 c 0,0 -2.58656,-1.45495 -2.4249,-2.10159 0.16166,-0.64664 0.48498,-5.01147 0.48498,-5.01147 l 3.39487,-1.29329 0.8083,-3.39487 0.64664,-2.58656 2.42491,-1.61661 -0.32332,-10.02295 -1.61661,-2.26324 -1.29328,-0.80831 -0.8083,-2.10158 0.8083,-0.8083 1.6166,0.32332 0.16166,-1.61661 -2.4249,-2.26325 -1.29329,-2.58656 -2.58656,0 -4.5265,-1.45495 -5.49645,-3.39487 -2.74823,0 -0.64664,0.64665 -0.96997,-0.48499 -3.07154,-2.26324 -2.90989,1.77826 -2.90989,2.26325 0.32332,3.55653 0.96996,0.32332 2.10159,0.48498 0.48498,0.8083 -2.58657,0.80831 -2.58656,0.32332 -1.45495,1.77826 -0.32332,2.10159 0.32332,1.6166 0.32332,5.49646 -3.55653,2.10159 -0.64664,-0.16167 0,-4.20317 1.29328,-2.4249 0.64665,-2.42491 -0.80831,-0.8083 -1.93992,0.8083 -0.96997,4.20317 -2.74822,1.13162 -1.77827,1.93993 -0.16166,0.96996 0.64664,0.8083 -0.64664,2.58657 -2.26325,0.48498 0,1.13163 0.80831,2.4249 -1.13163,6.1431 -1.6166,4.04151 0.64664,4.68816 0.48498,1.13162 -0.8083,2.42491 -0.32332,0.8083 -0.32332,2.74823 3.55653,5.98143 2.90989,6.46642 1.45494,4.84982 -0.8083,4.68815 -0.96996,5.98144 -2.42491,5.17313 -0.32332,2.74823 -3.25887,3.08515 4.40861,-0.16205 21.41849,-2.26325 7.27784,-0.98706 0.0964,1.66635 6.85194,-1.21246 10.29808,-1.50313 3.8542,-0.46091 0.13805,-0.58755 0.16166,-1.45494 2.10158,-3.71819 2.00056,-1.73785 -0.22229,-5.05189 1.59699,-1.59699 1.09062,-0.34294 0.22228,-3.55653 1.53577,-3.03112 1.05079,0.60622 0.16166,0.64664 0.80831,0.16166 1.93992,-0.96996 z m -130.36798,-66.02371 0.71628,-0.5804 2.74823,-0.80831 3.55653,-2.26324 0,-0.96997 0.64665,-0.64664 5.98143,-0.96996 2.42491,-1.93993 4.36483,-2.10158 0.16166,-1.293286 1.93993,-2.909889 1.77826,-0.808302 1.29329,-1.778265 2.26324,-2.263247 4.36484,-2.424907 4.68815,-0.484981 1.13162,1.131623 -0.32332,0.969963 -3.71819,0.969963 -1.45494,3.071549 -2.26325,0.808302 -0.48498,2.424907 -2.42491,3.23321 -0.32332,2.58657 0.8083,0.48498 0.96997,-1.13162 3.55653,-2.90989 1.29328,1.29328 2.26325,0 3.23321,0.96996 1.45494,1.13163 1.45494,3.07155 2.74823,2.74822 3.87985,-0.16166 1.45495,-0.96996 1.6166,1.29328 1.61661,0.48499 1.29328,-0.80831 1.13162,0 1.61661,-0.96996 4.04151,-3.55653 3.39487,-1.13162 6.62808,-0.32332 4.52649,-1.93993 2.58657,-1.29328 1.45495,0.16166 0,5.65811 0.48498,0.32332 2.90988,0.80831 1.93993,-0.48499 6.1431,-1.6166 1.13162,-1.13162 1.45495,0.48498 0,6.9514 3.23321,3.07155 1.29328,0.64664 1.29328,0.96996 -1.29328,0.32332 -0.8083,-0.32332 -3.71819,-0.48498 -2.10159,0.64664 -2.26325,-0.16166 -3.23321,1.45495 -1.77826,0 -5.81978,-1.29329 -5.17313,0.16166 -1.93993,2.58657 -6.9514,0.64664 -2.42491,0.8083 -1.13162,3.07155 -1.29328,1.13163 -0.48498,-0.16166 -1.45495,-1.61661 -4.52649,2.42491 -0.64664,0 -1.13163,-1.61661 -0.8083,0.16166 -1.93992,4.36484 -0.96997,4.04151 -3.18112,7.0008 -1.17676,-1.03427 -1.37174,-1.03132 -1.94078,-10.28802 -3.54448,-1.37005 -2.05258,-2.28623 -12.12036,-2.74348 -2.85527,-1.02964 -8.23042,-2.17274 -7.88999,-1.14312 z"
         inkscape:connector-curvature="0" />
      <path
         style="fill:#eedfa1;fill-opacity:1;stroke:#000000;stroke-width:2.73675251;stroke-miterlimit:4;stroke-opacity:1;stroke-dasharray:none"
         id="Indiana"
         class="in"
         d="m 618.42049,300.8552 0.0653,-2.85858 0.48499,-4.52651 2.26324,-2.90988 1.77828,-3.87987 2.58656,-4.20317 -0.48498,-5.81979 -1.77826,-2.74823 -0.32332,-3.23321 0.8083,-5.49647 -0.48498,-6.95141 -1.2933,-16.00441 -1.29328,-15.35776 -0.97047,-11.72002 3.07106,0.88951 1.45495,0.96996 1.13162,-0.32332 2.10159,-1.93992 2.82957,-1.61699 5.0928,-0.16204 21.98587,-2.26326 5.57573,-0.53316 1.50314,15.95621 4.25135,36.84155 0.59846,5.7716 -0.3715,2.26325 1.22798,1.79537 0.0964,1.37255 -2.52129,1.59951 -3.53943,1.55131 -3.20213,0.55028 -0.59846,4.86693 -4.57469,3.31247 -2.79642,4.01044 0.32332,2.37673 -0.58134,1.5342 -3.32647,0 -1.58553,-1.6166 -2.49331,1.2622 -2.68296,1.50314 0.16167,3.05445 -1.19379,0.25803 -0.46788,-1.01814 -2.16688,-1.50314 -3.25032,1.34148 -1.55131,3.00625 -1.43784,-0.8083 -1.45495,-1.59951 -4.46434,0.48499 -5.59283,0.96996 z"
         inkscape:connector-curvature="0" />
      <path
         style="fill:#eedfa1;fill-opacity:1;stroke:#000000;stroke-width:2.73675251;stroke-miterlimit:4;stroke-opacity:1;stroke-dasharray:none"
         id="Illinois"
         class="il"
         d="m 617.80493,301.60133 0,-3.60471 0.25803,-4.86693 2.37672,-3.13683 1.77827,-3.7664 2.58657,-3.86275 -0.3715,-5.2524 -2.00521,-3.54257 -0.0964,-3.34668 0.69483,-5.26951 -0.82541,-7.17837 -1.06634,-15.77745 -1.29328,-15.01734 -0.92228,-11.6392 -0.27251,-0.92139 -0.8083,-2.58657 -1.29328,-3.71819 -1.61661,-1.77827 -1.45494,-2.58656 -0.23357,-5.48896 -9.90267,1.31224 -27.20609,1.71467 -8.68767,-0.42866 0.22862,2.37195 2.28623,0.68587 0.91448,1.14311 0.45725,1.82898 3.88658,3.42934 0.68588,2.28623 -0.68588,3.42934 -1.82898,3.65796 -0.68586,2.51484 -2.28623,1.82899 -1.82898,0.68587 -5.25832,1.37173 -0.68587,1.82898 -0.68587,2.05761 0.68587,1.37174 1.82898,1.60036 -0.22862,4.1152 -1.82899,1.60036 -0.68586,1.60036 0,2.74347 -1.82898,0.45724 -1.60036,1.14312 -0.22862,1.37174 0.22862,2.0576 -1.71467,1.31457 -1.0288,2.80064 0.45724,3.65795 2.28623,7.31593 7.31593,7.54455 5.48693,3.65796 -0.22862,4.34383 0.9145,1.37174 6.40143,0.45724 2.74347,1.37174 -0.68586,3.65796 -2.28623,5.94419 -0.68587,3.20072 2.28622,3.88658 6.40144,5.25832 4.57246,0.68587 2.05759,5.0297 2.05761,3.20071 -0.91449,2.97209 1.60036,4.11521 1.82898,2.05761 1.94436,-0.7923 0.68669,-2.16318 2.0363,-1.43784 3.23633,-1.10054 3.08866,1.1798 2.87569,1.06634 0.7912,-0.20984 -0.0653,-1.24198 -1.06633,-2.76534 0.4368,-2.37672 2.28034,-1.56843 2.35963,-0.98706 1.16271,-0.41969 -0.58136,-1.32438 -0.76012,-2.16687 1.2451,-1.26221 z"
         inkscape:connector-curvature="0" />
      <path
         style="fill:#eedfa1;fill-opacity:1;stroke:#000000;stroke-width:2.73675251;stroke-miterlimit:4;stroke-opacity:1;stroke-dasharray:none"
         id="Minnesota"
         class="mn"
         d="m 471.87905,128.47084 -0.45725,-8.45904 -1.82898,-7.31592 -1.82898,-13.488728 -0.45725,-9.830778 -1.82898,-3.429343 -1.60036,-5.029695 0,-10.28802 0.68586,-3.886587 -1.82093,-5.451667 30.13242,0.03527 0.32332,-8.244684 0.64664,-0.161661 2.26325,0.484982 1.93992,0.808302 0.8083,5.496456 1.45495,6.143098 1.6166,1.616605 4.84982,0 0.32332,1.454944 6.30476,0.323321 0,2.101586 4.84981,0 0.32332,-1.293284 1.13162,-1.131623 2.26325,-0.646642 1.29328,0.969963 2.90989,0 3.87985,2.586567 5.3348,2.424907 2.42491,0.484982 0.48498,-0.969963 1.45494,-0.484982 0.48498,2.909889 2.58657,1.293284 0.48498,-0.484982 1.29329,0.161661 0,2.101586 2.58656,0.969963 3.07155,0 1.61661,-0.808303 3.23321,-3.233209 2.58656,-0.484981 0.80831,1.778265 0.48498,1.293283 0.96996,0 0.96996,-0.808302 8.89133,-0.323321 1.77826,3.071549 0.64665,0 0.71361,-1.084279 4.43991,-0.370665 -0.6121,2.279459 -3.93872,1.837125 -9.24578,4.061128 -4.77474,2.006897 -3.07155,2.586568 -2.42491,3.55653 -2.26324,3.879851 -1.77827,0.808308 -4.52649,5.01147 -1.29329,0.16166 -3.84164,2.9339 -2.81644,3.16091 -0.22862,2.97042 0.22695,7.77819 -1.59702,1.60036 -5.25831,4.11352 -1.83233,5.71725 2.51819,3.64792 0.45892,2.51987 -1.14813,2.97377 -0.22696,3.65963 0.45725,7.08395 3.426,4.10685 2.97544,0 2.50983,2.29291 3.20239,1.36505 3.65964,5.03472 7.08729,5.023 1.83065,2.06262 0.23365,5.50201 -20.58775,0.68587 -60.24875,0.45892 -0.33792,-35.67685 -0.45724,-2.97209 -4.11521,-3.42934 -1.14312,-1.82898 0,-1.60037 2.0576,-1.60035 1.37174,-1.37174 z"
         inkscape:connector-curvature="0" />
      <path
         style="fill:#eedfa1;fill-opacity:1;stroke:#000000;stroke-width:2.73675251;stroke-miterlimit:4;stroke-opacity:1;stroke-dasharray:none"
         id="Wisconsin"
         class="wi"
         d="m 612.94089,197.18116 0.37076,-2.96992 -1.61661,-4.5265 -0.64664,-6.14309 -1.13162,-2.42491 0.96996,-3.07155 0.8083,-2.90989 1.45495,-2.58656 -0.64665,-3.39487 -0.64664,-3.55653 0.48498,-1.77827 1.93993,-2.42491 0.16166,-2.74823 -0.8083,-1.29328 0.64664,-2.58657 0.48498,-3.23321 2.74823,-5.65811 2.90989,-6.78974 0.16166,-2.26325 -0.32332,-0.96996 -0.80831,0.48498 -4.20317,6.30476 -2.74823,4.04151 -1.93992,1.77827 -0.8083,2.26324 -1.45495,0.8083 -1.13162,1.93993 -1.45495,-0.32332 -0.16166,-1.77827 1.29329,-2.4249 2.10158,-4.68816 1.77827,-1.6166 1.10132,-2.29156 -1.63066,-0.90525 -1.37174,-1.37174 -1.60036,-10.28802 -3.65795,-1.14311 -1.37174,-2.28623 -12.57425,-2.74347 -2.51485,-1.14311 -8.23041,-2.28623 -8.23042,-1.14312 -4.16946,-5.4048 -0.52943,1.26111 -1.13162,-0.16166 -0.64665,-1.13162 -2.74822,-0.8083 -1.13163,0.16166 -1.77826,0.96996 -0.96997,-0.64664 0.64665,-1.93993 1.93992,-3.07155 1.13162,-1.13162 -1.93992,-1.45494 -2.10159,0.8083 -2.90989,1.93992 -7.43638,3.23321 -2.90989,0.64664 -2.90988,-0.48498 -0.98173,-0.87825 -2.1167,2.83518 -0.22862,2.74347 0,8.45903 -1.14312,1.60037 -5.25832,3.88657 -2.28622,5.94419 0.45724,0.22862 2.51485,2.05761 0.68586,3.20072 -1.82898,3.20071 0,3.88659 0.45725,6.63005 2.97209,2.9721 3.42935,0 1.82898,3.20072 3.42933,0.45724 3.88659,5.71557 7.0873,4.11521 2.0576,2.74347 0.9145,7.43024 0.68586,3.31502 2.28623,1.60036 0.22862,1.37174 -2.0576,3.42933 0.22862,3.20073 2.51485,3.88658 2.51485,1.14311 2.97209,0.45724 1.34234,1.38012 9.1735,-2e-5 26.06713,-1.48687 z"
         inkscape:connector-curvature="0" />
    </g>
  </g>
</svg>
