<?xml version="1.0" encoding="UTF-8" standalone="no"?>
<!-- Created with Inkscape (http://www.inkscape.org/) -->

<svg
   xmlns:dc="http://purl.org/dc/elements/1.1/"
   xmlns:cc="http://creativecommons.org/ns#"
   xmlns:rdf="http://www.w3.org/1999/02/22-rdf-syntax-ns#"
   xmlns:svg="http://www.w3.org/2000/svg"
   xmlns="http://www.w3.org/2000/svg"
   xmlns:xlink="http://www.w3.org/1999/xlink"
   xmlns:sodipodi="http://sodipodi.sourceforge.net/DTD/sodipodi-0.dtd"
   xmlns:inkscape="http://www.inkscape.org/namespaces/inkscape"
   width="80"
   height="80"
   id="svg4693"
   version="1.1"
   inkscape:version="0.48.0 r9654"
   sodipodi:docname="region05.svg"
   inkscape:export-filename="C:\Users\will\Desktop\region05.png"
   inkscape:export-xdpi="90"
   inkscape:export-ydpi="90">
  <defs
     id="defs4695">
    <radialGradient
       r="128.28937"
       fy="458.89755"
       fx="364.66507"
       cy="458.89755"
       cx="364.66507"
       gradientTransform="matrix(0.713131,0.52519279,-0.43067748,0.58479374,302.24793,-0.98232581)"
       gradientUnits="userSpaceOnUse"
       id="radialGradient4658"
       xlink:href="#linearGradient3991-9"
       inkscape:collect="always" />
    <linearGradient
       id="linearGradient3991-9">
      <stop
         style="stop-color:#b9d2f0;stop-opacity:1;"
         offset="0"
         id="stop3993-4" />
      <stop
         style="stop-color:#b9d2f0;stop-opacity:0;"
         offset="1"
         id="stop3995-8" />
    </linearGradient>
    <radialGradient
       r="128.28937"
       fy="458.89755"
       fx="364.66507"
       cy="458.89755"
       cx="364.66507"
       gradientTransform="matrix(0.713131,0.52519279,-0.43067748,0.58479374,302.24793,-0.98232581)"
       gradientUnits="userSpaceOnUse"
       id="radialGradient4756-2"
       xlink:href="#linearGradient3991-9-4"
       inkscape:collect="always" />
    <linearGradient
       id="linearGradient3991-9-4">
      <stop
         style="stop-color:#b9d2f0;stop-opacity:1;"
         offset="0"
         id="stop3993-4-5" />
      <stop
         style="stop-color:#b9d2f0;stop-opacity:0;"
         offset="1"
         id="stop3995-8-5" />
    </linearGradient>
  </defs>
  <sodipodi:namedview
     id="base"
     pagecolor="#ffffff"
     bordercolor="#666666"
     borderopacity="1.0"
     inkscape:pageopacity="0.0"
     inkscape:pageshadow="2"
     inkscape:zoom="1.4142136"
     inkscape:cx="-126.55865"
     inkscape:cy="44.083498"
     inkscape:document-units="px"
     inkscape:current-layer="layer1"
     showgrid="false"
     inkscape:window-width="1366"
     inkscape:window-height="706"
     inkscape:window-x="-8"
     inkscape:window-y="-8"
     inkscape:window-maximized="1" />
  <metadata
     id="metadata4698">
    <rdf:RDF>
      <cc:Work
         rdf:about="">
        <dc:format>image/svg+xml</dc:format>
        <dc:type
           rdf:resource="http://purl.org/dc/dcmitype/StillImage" />
        <dc:title></dc:title>
      </cc:Work>
    </rdf:RDF>
  </metadata>
  <g
     inkscape:label="Layer 1"
     inkscape:groupmode="layer"
     id="layer1"
     transform="translate(0,-972.36218)">
    <rect
       style="fill:#000000;fill-opacity:1;stroke:#000000;stroke-width:0.22691278;stroke-miterlimit:4;stroke-opacity:0.98431373;stroke-dasharray:none"
       id="rect5301"
       width="79.773087"
       height="79.773087"
       x="0.11345639"
       y="972.47565" />
    <g
       transform="matrix(0.42179363,0,0,0.42179363,-325.60562,894.06131)"
       id="g3924"
       style="fill:#eedfa1;fill-opacity:1;stroke:#000000;stroke-width:1.18541384;stroke-miterlimit:4;stroke-opacity:1;stroke-dasharray:none">
      <path
         inkscape:connector-curvature="0"
         style="fill:#eedfa1;fill-opacity:1;stroke:#000000;stroke-width:1.18541384;stroke-miterlimit:4;stroke-opacity:1;stroke-dasharray:none"
         id="WestVirginia"
         class="wv"
         d="m 856.56051,241.96731 1.11201,4.94453 1.08344,6.90633 3.55967,-2.74823 2.26324,-3.07156 2.53838,-0.61555 1.45495,-1.45494 1.77827,-2.58657 1.17981,0.64664 2.90989,-0.32332 2.58658,-2.10159 2.00689,-1.45326 1.84523,-0.48499 1.30392,1.01647 2.22904,1.11452 1.93993,1.77827 1.37412,1.29328 -0.143,4.67106 -5.65813,-3.07155 -4.5265,-1.77827 -0.16166,5.33481 -0.48498,2.10158 -1.6166,2.74824 -0.64666,1.61661 -3.07155,2.4249 -0.48498,2.26326 -3.39488,0.32332 -0.32332,3.07155 -1.13162,5.49647 -2.58657,0 -1.29328,-0.80831 -1.61662,-2.74824 -1.77826,0.16166 -0.32332,4.36485 -2.10159,6.62809 -5.01148,10.83127 0.8083,1.29328 -0.16166,2.74823 -2.10159,1.93993 -1.45494,-0.32332 -3.23322,2.42491 -2.58657,-0.96996 -1.77826,4.68815 c 0,0 -3.71821,0.80831 -4.36485,0.96997 -0.64664,0.16166 -2.42491,-1.29329 -2.42491,-1.29329 l -2.42491,2.26325 -2.58657,0.64665 -2.9099,-0.80831 -1.29328,-1.29328 -2.19222,-3.02336 -3.14259,-1.98812 -2.58657,-2.74824 -2.90988,-3.71819 -0.64665,-2.26325 -2.58657,-1.45495 -0.80831,-1.6166 -0.24249,-5.25398 2.18242,-0.0808 1.93994,-0.8083 0.16166,-2.74823 1.6166,-1.45495 0.16166,-5.01148 0.96996,-3.87986 1.29329,-0.64664 1.29328,1.13162 0.48499,1.77827 1.77827,-0.96997 0.48498,-1.6166 -1.13162,-1.77827 0,-2.42491 0.96996,-1.29329 2.26325,-3.39487 1.29328,-1.45494 2.1016,0.48498 2.26324,-1.61662 3.07155,-3.39487 2.26326,-3.87986 0.32332,-5.65811 0.48498,-5.01149 0,-4.68816 -1.13162,-3.07155 0.96996,-1.45496 1.28348,-1.29328 3.49125,19.82712 4.63101,-0.75115 z" />
      <path
         inkscape:connector-curvature="0"
         style="fill:#eedfa1;fill-opacity:1;stroke:#000000;stroke-width:1.18541384;stroke-miterlimit:4;stroke-opacity:1;stroke-dasharray:none"
         id="Delaware"
         class="de"
         d="m 922.35259,230.42318 0.58928,-2.1027 0.0215,-1.20491 -1.26945,-0.0884 -2.1016,1.61661 -1.45495,1.45494 1.45495,4.20319 2.26326,5.65812 2.10158,9.69965 1.61662,6.30478 5.01148,-0.16166 6.14212,-1.21193 -2.26423,-7.35502 -0.96997,0.48498 -3.55653,-2.4249 -1.77826,-4.68816 -1.93993,-3.55653 -2.26324,-0.96996 -2.10159,-3.55653 z" />
      <path
         inkscape:connector-curvature="0"
         style="fill:#eedfa1;fill-opacity:1;stroke:#000000;stroke-width:1.18541384;stroke-miterlimit:4;stroke-opacity:1;stroke-dasharray:none"
         id="NewJersey"
         class="nj"
         d="m 928.16036,190.33018 -2.10158,2.42491 0,3.07156 -1.93994,3.07155 -0.16166,1.61662 1.2933,1.29328 -0.16166,2.42492 -2.26326,1.13162 0.8083,2.74823 0.16166,1.13163 2.74824,0.32332 0.96996,2.58657 3.55654,2.42492 2.42491,1.6166 0,0.80831 -3.23321,3.07156 -1.61661,2.26324 -1.45495,2.74824 -2.26325,1.29328 -1.21245,0.72748 -0.2425,1.21246 -0.60923,2.60674 1.09227,2.24419 3.23321,2.90989 4.84981,2.26325 4.04151,0.64664 0.16166,1.45494 -0.8083,0.96996 0.32332,2.74823 0.8083,0 2.10159,-2.4249 0.8083,-4.84982 2.74823,-4.04151 3.07155,-6.46642 1.13162,-5.49645 -0.64664,-1.13163 -0.16166,-9.37631 -1.61661,-3.39486 -1.13162,0.8083 -2.74823,0.32332 -0.48498,-0.48498 1.13163,-0.96997 2.10158,-1.93992 0.0631,-1.09383 -0.38439,-3.43384 0.48498,-2.74824 -0.16166,-2.10159 -2.58657,-1.13163 -4.5265,-0.96996 -3.87986,-1.13163 z" />
      <path
         style="fill:#eedfa1;fill-opacity:1;stroke:#000000;stroke-width:1.18541384;stroke-miterlimit:4;stroke-opacity:1;stroke-dasharray:none"
         id="NorthCarolina"
         class="nc"
         d="m 932.10653,298.47179 1.71,4.6986 3.55653,6.46642 2.4249,2.42491 0.64664,2.26325 -2.4249,0.16166 0.8083,0.64664 -0.32332,4.20317 -2.58657,1.29328 -0.64664,2.10159 -1.29328,2.90989 -3.7182,1.6166 -2.4249,-0.32332 -1.45495,-0.16166 -1.6166,-1.29328 0.32332,1.29328 0,0.96997 1.93993,0 0.8083,1.29328 -1.93993,6.30476 4.20317,0 0.64665,1.6166 2.26324,-2.26324 1.29329,-0.48499 -1.93993,3.55653 -3.07155,4.84982 -1.29328,0 -1.13163,-0.48498 -2.74822,0.64664 -5.17314,2.42491 -6.46642,5.33479 -3.39487,4.68815 -1.93992,6.46642 -0.48498,2.42491 -4.68816,0.48498 -5.45313,1.33666 -9.94641,-8.20253 -12.60954,-7.59805 -2.90989,-0.80831 -12.60953,1.45495 -4.27646,0.75015 -1.6166,-3.23322 -2.97036,-2.1167 -16.48939,0.48498 -7.27474,0.8083 -9.05299,4.52651 -6.14311,2.58656 -1.6166,0.32332 -5.81979,0.96997 -6.95141,0.8083 -6.78975,0.48499 0.50009,-4.05433 1.77827,-1.45494 2.74824,-0.64665 0.64664,-3.7182 4.20318,-2.74822 3.87985,-1.45496 4.20319,-3.55653 4.36483,-2.10159 0.64664,-3.07156 3.87986,-3.87985 0.64664,-0.16166 c 0,0 0,1.13163 0.80831,1.13163 0.8083,0 1.93993,0.32332 1.93993,0.32332 l 2.26325,-3.55654 2.10159,-0.64665 2.26324,0.32333 1.61662,-3.55653 2.90989,-2.58658 0.48498,-2.10159 0,-3.96069 4.5265,0.72748 7.13609,-1.29329 15.81973,-1.93993 17.13604,-2.58657 19.92173,-4.0006 19.73332,-4.16482 11.36444,-2.79643 z m 3.89546,32.98782 2.58658,-2.50575 3.15238,-2.58658 1.53578,-0.64664 0.16166,-2.02076 -0.64664,-6.14312 -1.45495,-2.34408 -0.64665,-1.8591 0.72748,-0.2425 2.74824,5.49648 0.40415,4.44567 -0.16166,3.39489 -3.39488,1.53577 -2.82907,2.42492 -1.13162,1.21246 z"
         inkscape:connector-curvature="0" />
      <path
         style="fill:#eedfa1;fill-opacity:1;stroke:#000000;stroke-width:1.18541384;stroke-miterlimit:4;stroke-opacity:1;stroke-dasharray:none"
         id="Maryland"
         class="md"
         d="m 936.95336,255.30492 -6.14113,1.29223 -5.80581,0.16166 -1.84356,-7.09911 -2.10159,-9.69965 -2.26326,-5.65812 -1.28838,-4.39833 -7.50602,1.62236 -14.87621,2.82332 -37.45143,7.5509 1.1313,5.01166 0.96996,5.65811 0.32332,-0.32332 2.1016,-2.4249 2.26324,-2.61766 2.42491,-0.61556 1.45496,-1.45495 1.77826,-2.58657 1.29328,0.64665 2.90989,-0.32333 2.58658,-2.10158 2.00689,-1.45327 1.84523,-0.48498 1.64435,1.12995 2.90989,1.45494 1.93992,1.77827 1.21246,1.53578 4.12235,1.69743 0,2.90989 5.49646,1.29329 1.14444,0.54198 1.4119,-2.02832 2.88197,1.97016 -1.27817,2.48193 -0.76527,3.98566 -1.77826,2.58657 0,2.10159 0.64664,1.77827 5.06395,1.35569 4.3111,-0.0617 3.07154,0.96997 2.10159,0.32332 0.96996,-2.10159 -1.45494,-2.10158 0,-1.77827 -2.42491,-2.10159 -2.10158,-5.49645 1.29328,-5.3348 -0.16166,-2.10158 -1.29328,-1.29329 c 0,0 1.45494,-1.6166 1.45494,-2.26324 0,-0.64665 0.48498,-2.10159 0.48498,-2.10159 l 1.93993,-1.29328 1.93992,-1.61661 0.48498,0.96997 -1.45494,1.6166 -1.29328,3.71819 0.32332,1.13162 1.77826,0.32332 0.48498,5.49646 -2.10158,0.96996 0.32332,3.55653 0.48498,-0.16166 1.13162,-1.93992 1.61661,1.77826 -1.61661,1.29329 -0.32332,3.39487 2.58657,3.39487 3.87985,0.48498 1.61661,-0.8083 3.23655,4.18293 1.35835,0.5363 6.65367,-2.79695 2.00758,-4.02387 z m -16.63249,8.98453 1.13162,2.50575 0.16166,1.77827 1.13163,1.8591 c 0,0 0.88914,-0.88914 0.88914,-1.21246 0,-0.32332 -0.72747,-3.07156 -0.72747,-3.07156 l -0.72748,-2.34409 z"
         inkscape:connector-curvature="0" />
      <path
         style="fill:#eedfa1;fill-opacity:1;stroke:#000000;stroke-width:1.18541384;stroke-miterlimit:4;stroke-opacity:1;stroke-dasharray:none"
         id="Virginia"
         class="va"
         d="m 928.90662,269.2457 -0.14391,-1.94703 6.45343,-2.54988 -0.77041,3.21784 -2.91995,3.77911 -0.41809,4.58582 0.46175,3.39044 -1.82797,4.97816 -2.16427,1.91614 -1.47034,-4.64081 0.44589,-5.44911 1.587,-4.18307 z m 2.27953,28.30136 -58.17418,12.57543 -37.42697,5.27907 -6.67833,-0.37518 -2.58525,1.92638 -7.33913,0.22069 -8.38211,0.97767 -8.92622,0.95171 8.48069,-4.94829 -0.0131,-2.07493 1.52005,-2.14613 10.55378,-11.50143 3.94672,4.47746 3.78301,0.96398 2.54346,-1.14032 2.23722,-1.31116 2.53661,1.34352 3.91417,-1.42776 1.87673,-4.55634 2.60092,0.54002 2.85524,-2.13125 1.79927,0.4936 2.82721,-3.67657 0.34825,-2.08311 -0.96366,-1.27557 1.00277,-1.86663 5.27427,-12.27715 0.61677,-5.73508 1.22889,-0.52354 2.17853,2.44287 3.93586,-0.30117 1.92921,-7.57363 2.79399,-0.56086 1.04975,-2.74107 2.57982,-2.34688 1.26797,-2.34221 1.50386,-3.35298 0.0849,-5.06755 9.82151,3.82282 c 0.68085,0.34042 0.6561,-4.78398 0.6561,-4.78398 l 4.05031,1.37735 -0.462,2.6288 8.15611,2.93966 1.29287,1.79439 -0.86794,3.68214 -1.26308,1.32582 -0.50592,1.74604 0.49391,2.40272 1.95898,1.27838 3.91809,1.44521 2.94867,0.96796 4.85647,0.94211 2.15231,2.08846 3.19044,0.40253 0.86807,1.20002 -0.43949,4.69008 1.37473,1.10255 -0.47895,1.93039 1.22941,0.78977 -0.2218,1.3846 -2.69399,-0.0949 0.089,1.61552 2.28099,1.54287 0.12154,1.4119 1.77311,1.78538 0.49179,2.52413 -2.55304,1.38131 1.57222,1.4943 5.80102,-1.68583 z"
         inkscape:connector-curvature="0" />
      <path
         inkscape:connector-curvature="0"
         style="fill:#eedfa1;fill-opacity:1;stroke:#000000;stroke-width:1.18541384;stroke-miterlimit:4;stroke-opacity:1;stroke-dasharray:none"
         id="Columbia"
         class="dc"
         d="m 801.75695,253.84384 -1.07703,-1.63667 -1.01388,-0.84254 1.09926,-1.61622 2.23284,1.511 z" />
    </g>
  </g>
</svg>
