<?xml version="1.0" encoding="UTF-8" standalone="no"?>
<!-- Created with Inkscape (http://www.inkscape.org/) -->

<svg
   xmlns:dc="http://purl.org/dc/elements/1.1/"
   xmlns:cc="http://creativecommons.org/ns#"
   xmlns:rdf="http://www.w3.org/1999/02/22-rdf-syntax-ns#"
   xmlns:svg="http://www.w3.org/2000/svg"
   xmlns="http://www.w3.org/2000/svg"
   xmlns:xlink="http://www.w3.org/1999/xlink"
   xmlns:sodipodi="http://sodipodi.sourceforge.net/DTD/sodipodi-0.dtd"
   xmlns:inkscape="http://www.inkscape.org/namespaces/inkscape"
   width="80"
   height="80"
   id="svg4693"
   version="1.1"
   inkscape:version="0.48.0 r9654"
   sodipodi:docname="region08.svg"
   inkscape:export-filename="region08.png"
   inkscape:export-xdpi="90"
   inkscape:export-ydpi="90">
  <defs
     id="defs4695">
    <radialGradient
       r="128.28937"
       fy="458.89755"
       fx="364.66507"
       cy="458.89755"
       cx="364.66507"
       gradientTransform="matrix(0.713131,0.52519279,-0.43067748,0.58479374,302.24793,-0.98232581)"
       gradientUnits="userSpaceOnUse"
       id="radialGradient4658"
       xlink:href="#linearGradient3991-9"
       inkscape:collect="always" />
    <linearGradient
       id="linearGradient3991-9">
      <stop
         style="stop-color:#b9d2f0;stop-opacity:1;"
         offset="0"
         id="stop3993-4" />
      <stop
         style="stop-color:#b9d2f0;stop-opacity:0;"
         offset="1"
         id="stop3995-8" />
    </linearGradient>
    <radialGradient
       r="128.28937"
       fy="458.89755"
       fx="364.66507"
       cy="458.89755"
       cx="364.66507"
       gradientTransform="matrix(0.713131,0.52519279,-0.43067748,0.58479374,302.24793,-0.98232581)"
       gradientUnits="userSpaceOnUse"
       id="radialGradient4756-2"
       xlink:href="#linearGradient3991-9-4"
       inkscape:collect="always" />
    <linearGradient
       id="linearGradient3991-9-4">
      <stop
         style="stop-color:#b9d2f0;stop-opacity:1;"
         offset="0"
         id="stop3993-4-5" />
      <stop
         style="stop-color:#b9d2f0;stop-opacity:0;"
         offset="1"
         id="stop3995-8-5" />
    </linearGradient>
  </defs>
  <sodipodi:namedview
     id="base"
     pagecolor="#ffffff"
     bordercolor="#666666"
     borderopacity="1.0"
     inkscape:pageopacity="0.0"
     inkscape:pageshadow="2"
     inkscape:zoom="1.4142136"
     inkscape:cx="-16.25"
     inkscape:cy="-94.606823"
     inkscape:document-units="px"
     inkscape:current-layer="layer1"
     showgrid="false"
     inkscape:window-width="1366"
     inkscape:window-height="706"
     inkscape:window-x="-8"
     inkscape:window-y="-8"
     inkscape:window-maximized="1" />
  <metadata
     id="metadata4698">
    <rdf:RDF>
      <cc:Work
         rdf:about="">
        <dc:format>image/svg+xml</dc:format>
        <dc:type
           rdf:resource="http://purl.org/dc/dcmitype/StillImage" />
        <dc:title></dc:title>
      </cc:Work>
    </rdf:RDF>
  </metadata>
  <g
     inkscape:label="Layer 1"
     inkscape:groupmode="layer"
     id="layer1"
     transform="translate(0,-972.36218)">
    <rect
       style="fill:#000000;fill-opacity:1;stroke:#000000;stroke-width:0.22691278;stroke-miterlimit:4;stroke-opacity:0.98431373;stroke-dasharray:none"
       id="rect5301"
       width="79.773087"
       height="79.773087"
       x="0.11345639"
       y="972.47565" />
    <text
       xml:space="preserve"
       style="font-size:40px;font-style:normal;font-variant:normal;font-weight:normal;font-stretch:normal;line-height:125%;letter-spacing:0px;word-spacing:0px;fill:#000000;fill-opacity:1;stroke:none;font-family:KaiTi;-inkscape-font-specification:KaiTi"
       x="125.86501"
       y="-108.0904"
       id="text3849"
       sodipodi:linespacing="125%"
       transform="translate(0,972.36218)"><tspan
         sodipodi:role="line"
         id="tspan3851"></tspan></text>
    <flowRoot
       xml:space="preserve"
       id="flowRoot3881"
       style="fill:black;stroke:none;stroke-opacity:1;stroke-width:1px;stroke-linejoin:miter;stroke-linecap:butt;fill-opacity:1;font-family:KaiTi;font-style:normal;font-weight:normal;font-size:40px;line-height:125%;letter-spacing:0px;word-spacing:0px;-inkscape-font-specification:KaiTi;font-stretch:normal;font-variant:normal"><flowRegion
         id="flowRegion3883"><rect
           id="rect3885"
           width="173.94827"
           height="43.133514"
           x="69.296463"
           y="47.473087" /></flowRegion><flowPara
         id="flowPara3887"></flowPara></flowRoot>    <g
       id="g4038"
       style="fill:#eedfa1;fill-opacity:1;stroke:#000000;stroke-width:3.4440279;stroke-miterlimit:4;stroke-opacity:1;stroke-dasharray:none"
       transform="matrix(0.14978269,0,0,0.14978269,-139.05246,1014.7352)">
      <path
         style="fill:#eedfa1;fill-opacity:1;stroke:#000000;stroke-width:3.4440279;stroke-miterlimit:4;stroke-opacity:1;stroke-dasharray:none"
         id="Alabama"
         class="al"
         d="m 1345.5978,146.77079 -1.6156,-15.1965 -2.7482,-18.75264 0.1617,-14.06449 0.8083,-31.03885 -0.1617,-16.65106 0.1651,-6.41906 7.7563,-0.37069 27.8056,-2.58656 8.9226,-0.6622 -0.1478,2.18242 0.1616,2.1016 0.6467,3.39487 3.3949,7.92137 2.4249,9.86131 1.4549,6.14311 1.6166,4.84982 1.455,6.95141 2.1016,6.30476 2.5865,3.39489 0.485,3.39486 1.9399,0.80831 0.1617,2.10159 -1.7783,4.84982 -0.485,3.23322 -0.1616,1.93992 1.6166,4.36485 0.3233,5.33479 -0.8083,2.42492 0.6467,0.8083 1.4549,0.8083 1.0353,2.53527 -6.3048,0 -6.7898,0.64665 -25.5424,2.90988 -10.4115,1.40677 -0.096,3.7524 1.7782,1.77827 2.5866,1.93992 0.5809,7.93544 -5.5421,2.5729 -2.7482,-0.32332 2.7482,-1.93993 0,-0.96996 -3.0715,-5.98144 -2.2633,-0.64664 -1.4549,4.36483 -1.2933,2.74823 -0.6466,-0.16166 -2.7483,0 z"
         inkscape:connector-curvature="0" />
      <path
         style="fill:#eedfa1;fill-opacity:1;stroke:#000000;stroke-width:3.4440279;stroke-miterlimit:4;stroke-opacity:1;stroke-dasharray:none"
         id="Tennessee"
         class="tn"
         d="m 1417.0529,0.62911 -51.8931,5.01149 -15.7596,1.77826 -4.6212,0.51271 -3.8683,-0.0277 0,3.87986 -8.4064,0.48498 -6.9514,0.64664 -11.096,0.0529 -0.2648,5.83543 -2.1381,6.27554 -0.9951,3.01601 -1.3487,4.38106 -0.3234,2.58657 -4.0415,2.26324 1.455,3.55654 -0.97,4.36484 -0.9684,0.78965 7.2561,-0.19431 24.0874,-1.93992 5.3349,-0.16167 8.083,-0.48499 27.8056,-2.58656 10.1708,-0.80831 8.4202,-0.96996 8.4063,-1.13162 4.8499,-0.80831 -0.1306,-4.5094 1.7783,-1.45494 2.7482,-0.64664 0.6466,-3.7182 4.2032,-2.74823 3.8799,-1.45496 4.2031,-3.55653 4.3649,-2.10158 0.8736,-3.52546 4.3337,-3.87985 0.6467,-0.16166 c 0,0 0,1.13162 0.8083,1.13162 0.8083,0 1.9399,0.32332 1.9399,0.32332 l 2.2632,-3.55654 2.1016,-0.64664 2.2633,0.32332 1.6166,-3.55653 2.1156,-2.24616 0.5984,-0.96684 0.1764,-3.93212 -1.4836,-0.28816 -2.4249,1.93994 -7.9214,0.16166 -11.9954,1.90068 z"
         inkscape:connector-curvature="0" />
      <path
         style="fill:#eedfa1;fill-opacity:1;stroke:#000000;stroke-width:3.4440279;stroke-miterlimit:4;stroke-opacity:1;stroke-dasharray:none"
         id="Kentucky"
         class="ky"
         d="m 1441.783,-22.18213 -2.3246,2.68293 -4.2031,3.55654 -4.2996,5.90217 -1.7783,1.77827 0,2.10158 -3.8798,2.10159 -5.6581,3.39488 -3.5196,0.38464 -51.8679,4.89886 -15.7596,1.77826 -4.6212,0.51271 -3.8683,-0.0277 -0.227,4.22028 -8.1794,0.14456 -6.9514,0.64664 -10.4306,0.2056 1.9128,-0.22163 2.1801,-1.76202 2.0576,-1.1431 0.2286,-3.20073 0.9145,-1.82898 -1.6068,-2.5389 0.8018,-1.90681 2.2633,-1.77826 2.1015,-0.64665 2.7483,1.29329 3.5565,1.29328 1.1316,-0.32332 0.1617,-2.26325 -1.2933,-2.42491 0.3233,-2.26325 1.94,-1.45494 2.5865,-0.64665 1.6166,-0.64664 -0.8083,-1.77827 -0.6466,-1.93993 1.1316,-0.8083 1.0508,-3.31406 2.9907,-1.69743 5.8198,-0.96996 3.5566,-0.48498 1.4549,1.93993 1.7783,0.8083 1.7782,-3.23321 2.9099,-1.45495 1.94,1.61661 0.8083,1.13162 2.1016,-0.48498 -0.1617,-3.39487 2.9099,-1.61661 1.1316,-0.80831 1.1316,1.61661 4.6882,0 0.8083,-2.10159 -0.3233,-2.26324 2.9099,-3.55655 4.6881,-3.87985 0.485,-4.5265 2.7482,-0.32332 3.8799,-1.77827 2.7482,-1.93993 -0.3233,-1.93993 -1.4549,-1.45494 0.5658,-2.18241 4.1223,-0.2425 2.4249,-0.8083 2.9099,1.6166 1.6166,4.36484 5.8198,0.32332 1.7783,1.77827 2.1016,0.16166 2.4249,-1.45494 3.0715,0.48498 1.2933,1.45494 2.7483,-2.58657 1.7782,-1.29329 1.6166,0 0.6467,2.74824 1.7782,0.96996 2.4218,2.21507 0.1617,5.49646 0.8083,1.61661 2.5866,1.45494 0.6466,2.26326 2.9099,3.71819 2.5866,2.74824 z"
         inkscape:connector-curvature="0" />
      <path
         style="fill:#eedfa1;fill-opacity:1;stroke:#000000;stroke-width:3.4440279;stroke-miterlimit:4;stroke-opacity:1;stroke-dasharray:none"
         id="Wyoming"
         class="wy"
         d="m 1074.2517,-176.22413 -10.5492,-0.80703 -32.088,-3.29542 -16.2322,-2.0576 -28.34918,-4.11521 -19.89016,-2.97209 -1.41909,11.17596 -3.83923,24.26054 -5.25833,30.40681 -1.531,10.51618 -1.66971,11.88883 6.52387,0.92837 25.87936,2.49992 20.56917,2.307 36.7837,4.11518 23.821,2.86002 4.5043,-44.19233 1.4399,-25.37711 z"
         inkscape:connector-curvature="0" />
      <path
         style="fill:#eedfa1;fill-opacity:1;stroke:#000000;stroke-width:3.4440279;stroke-miterlimit:4;stroke-opacity:1;stroke-dasharray:none"
         id="Texas"
         class="tx"
         d="m 1077.0533,13.3739 22.6908,1.08594 31.0927,1.14312 -2.3346,23.4558 -0.2968,18.15352 0.068,2.08179 4.3439,3.81843 1.7366,0.82216 1.8092,0.25281 0.6859,-1.25522 0.8903,0.86612 1.7367,0.48143 1.6047,-0.72982 1.1387,0.40887 -0.2967,3.40515 4.2756,1.03101 2.6754,0.82217 3.9547,0.52538 2.1939,1.82898 3.2491,-1.57617 2.7874,0.36491 2.0334,2.78744 1.075,0.32096 -0.1605,1.96527 3.0886,1.16729 2.7677,-1.8048 1.508,0.36492 2.3544,0.16048 0.4331,1.87294 4.6405,1.98945 2.6556,-0.20443 1.9895,-4.11521 0.3407,0 1.1431,1.89713 4.4362,1.00681 3.337,1.21127 3.293,0.75402 2.1499,-0.75402 0.8464,-2.51484 3.7019,0 1.8971,0.754 3.0645,-1.57617 0.6617,0 0.3649,1.11893 4.2757,0 2.4027,-1.25522 1.6685,0.29676 1.4157,1.87295 2.8798,1.6685 3.5216,1.07497 2.7435,1.41791 2.4467,1.62232 3.293,-0.89029 1.9411,0.98263 0.5111,10.13963 0.3353,9.70217 0.6858,9.53401 0.5254,4.04705 2.6754,4.59664 1.0749,4.06684 3.8624,6.28933 0.5496,2.87977 0.5254,1.00681 -0.6859,7.49619 -2.6511,4.38778 0.9584,2.85998 -0.3649,2.51485 -0.8463,7.31593 -1.3718,2.71929 0.6043,4.38623 -5.6649,1.58518 -9.8613,4.5265 -0.9699,1.93992 -2.5866,1.93993 -2.1016,1.45494 -1.2933,0.8083 -5.6581,5.3348 -2.7482,2.10159 -5.3348,3.2332 -5.6581,2.42491 -6.3048,3.39487 -1.7783,1.45495 -5.8197,3.55653 -3.3949,0.64664 -3.8799,5.49645 -4.0415,0.32333 -0.9699,1.93992 2.2632,1.93993 -1.4549,5.49645 -1.2933,4.5265 -1.1316,3.87985 -0.8083,4.52649 0.8083,2.42491 1.7782,6.9514 0.97,6.14309 1.7783,2.74823 -0.97,1.45495 -3.0716,1.93992 -5.6581,-3.87985 -5.4964,-1.13162 -1.2933,0.48498 -3.2332,-0.64664 -4.2032,-3.07155 -5.1731,-1.13162 -7.5981,-3.39487 -2.1016,-3.87986 -1.2932,-6.46641 -3.2333,-1.93993 -0.6466,-2.26325 0.6466,-0.64664 0.3234,-3.39487 -1.2933,-0.64664 -0.6467,-0.96996 1.2933,-4.36484 -1.6166,-2.26324 -3.2332,-1.29329 -3.3949,-4.36483 -3.5565,-6.62808 -4.2032,-2.58657 0.1617,-1.93992 -5.3348,-12.2862 -0.8083,-4.20317 -1.7783,-1.93992 -0.1616,-1.45495 -5.9815,-5.33479 -2.5865,-3.07155 0,-1.13163 -2.5866,-2.10158 -6.7897,-1.13163 -7.4364,-0.64664 -3.0716,-2.26324 -4.5265,1.77826 -3.5565,1.45495 -2.2632,3.2332 -0.97,3.7182 -4.3648,6.14309 -2.4249,2.42491 -2.5866,-0.96996 -1.7783,-1.13163 -1.9399,-0.64664 -3.8799,-2.26324 0,-0.64665 -1.7782,-1.93992 -5.1731,-2.10159 -7.4364,-7.7597 -2.2633,-4.68815 0,-8.08303 -3.2332,-6.46642 -0.485,-2.74822 -1.6166,-0.96997 -1.1316,-2.10158 -5.0115,-2.10159 -1.2932,-1.6166 -7.1131,-7.92137 -1.2933,-3.23321 -4.6882,-2.26325 -1.4549,-4.36487 -2.5866,-2.90987 -1.9399,-0.48496 -0.6492,-4.67764 8.0018,0.68589 29.035,2.74345 29.0351,1.60036 2.2862,-23.77676 3.8866,-55.55502 1.6004,-18.74732 1.3717,0.0286 m 98.9767,233.97768 -0.5658,-7.11308 -2.7483,-7.19392 -0.5658,-7.03225 1.5358,-8.24471 3.314,-6.87059 3.4757,-5.41565 3.1524,-3.55655 0.6467,0.2425 -4.769,6.6281 -4.3649,6.54728 -2.0207,6.62809 -0.3234,5.17316 0.8892,6.14312 2.5866,7.19392 0.4849,5.17314 0.1617,1.45496 -0.8891,0.24248 z"
         inkscape:connector-curvature="0" />
      <path
         style="fill:#eedfa1;fill-opacity:1;stroke:#000000;stroke-width:3.4440279;stroke-miterlimit:4;stroke-opacity:1;stroke-dasharray:none"
         id="Colorado"
         class="co"
         d="m 1098.6208,-63.20371 1.4399,-21.28168 -32.0951,-3.06443 -24.463,-2.69954 -37.2651,-4.11517 -20.6904,-2.51482 -2.62919,22.17642 -3.20071,22.40502 -3.75266,27.98666 -1.50566,11.1078 -0.2506,2.76326 33.92622,3.79425 37.7408,4.26657 31.9606,3.16587 16.6082,0.84634"
         inkscape:connector-curvature="0" />
      <path
         style="fill:#eedfa1;fill-opacity:1;stroke:#000000;stroke-width:3.4440279;stroke-miterlimit:4;stroke-opacity:1;stroke-dasharray:none"
         id="NewMexico"
         class="nm"
         d="m 1002.7242,111.045 -0.6504,-6.1231 8.6438,0.5254 29.5165,3.0644 28.3931,1.43989 1.9653,-22.33247 3.7261,-55.87597 1.1189,-19.38923 2.0137,0.34953 -0.014,-11.075 -32.2036,-2.40306 -36.9383,-4.42704 -34.46484,-4.11521 -4.20011,30.75787 -6.96486,53.20211 -3.75266,26.92199 -2.04939,13.30934 15.46067,1.98915 1.29328,-10.02295 16.65103,2.58657 z"
         inkscape:connector-curvature="0" />
      <path
         style="fill:#eedfa1;fill-opacity:1;stroke:#000000;stroke-width:3.4440279;stroke-miterlimit:4;stroke-opacity:1;stroke-dasharray:none"
         id="NorthDakota"
         class="nd"
         d="m 1191.3053,-192.33154 -0.3649,-7.49617 -1.9895,-7.31592 -1.829,-13.64922 -0.4572,-9.83078 -1.9895,-3.10839 -1.6003,-5.35064 0,-10.28802 0.6858,-3.88659 -2.1153,-5.49901 -28.4235,-0.56403 -18.591,-0.64664 -26.5123,-1.29329 -24.9463,-1.88386 -1.2607,14.23066 -1.3718,15.0891 -2.2585,24.9476 -0.4861,11.02022 56.8161,3.76415 z"
         inkscape:connector-curvature="0" />
      <path
         style="fill:#eedfa1;fill-opacity:1;stroke:#000000;stroke-width:3.4440279;stroke-miterlimit:4;stroke-opacity:1;stroke-dasharray:none"
         id="SouthDakota"
         class="sd"
         d="m 1192.7971,-116.8191 -0.9537,-1.08087 -1.5207,-3.62669 1.8289,-3.70192 1.0508,-5.55509 -2.583,-2.05761 -0.2967,-2.74346 0.5935,-2.99629 2.1499,-0.80239 0.2968,-5.73534 -0.068,-30.08586 -0.6177,-2.97209 -4.1152,-3.58981 -0.9827,-1.98946 0,-1.92132 1.8971,-1.2794 1.5323,-1.85317 0.1824,-2.71929 -57.3821,-1.60035 -56.1742,-3.88659 -0.7667,5.27936 -1.613,15.86824 -1.3452,17.94687 -1.6003,24.59672 16.0277,1.0288 19.6374,1.14311 17.993,1.30359 23.7768,1.30358 10.7452,-0.77819 2.86,2.28623 4.3197,2.9721 0.9826,0.754 3.5415,-0.89031 4.047,-0.29676 2.7435,-0.0682 3.1128,1.21127 4.5482,1.43988 3.1326,1.76083 0.6177,1.92131 0.9145,1.89713 0.7057,-0.48144 z"
         inkscape:connector-curvature="0" />
      <path
         style="fill:#eedfa1;fill-opacity:1;stroke:#000000;stroke-width:3.4440279;stroke-miterlimit:4;stroke-opacity:1;stroke-dasharray:none"
         id="Nebraska"
         class="ne"
         d="m 1204.2444,-73.0103 1.3718,2.67533 0.092,2.12575 2.3544,3.72611 2.7192,3.15234 -5.0494,0 -43.4826,-0.93868 -40.7869,-0.8903 -21.1915,-0.96065 1.0728,-21.32785 -33.3789,-2.74347 4.3438,-44.00986 15.5463,1.02881 20.1188,1.1431 17.8326,1.14312 23.7767,1.14311 10.7453,-0.45724 2.0576,2.28622 4.8011,2.9721 1.1431,0.91449 4.3438,-1.37174 3.8866,-0.45724 2.7435,-0.22863 1.829,1.37174 5.0297,1.60036 2.972,1.60036 0.4573,1.60036 0.9145,2.0576 1.829,0 0.7979,0.0462 0.9827,5.21215 2.7434,8.02598 1.2355,4.64059 2.1257,3.81845 0.5254,4.93736 1.4399,4.27568 0.5496,6.4696"
         inkscape:connector-curvature="0" />
      <path
         style="fill:#eedfa1;fill-opacity:1;stroke:#000000;stroke-width:3.4440279;stroke-miterlimit:4;stroke-opacity:1;stroke-dasharray:none"
         id="Iowa"
         class="ia"
         d="m 1286.5935,-118.37157 0.1706,1.94245 2.2863,1.13976 1.1414,1.25658 0.3438,1.26161 3.8865,3.2024 0.6859,2.17275 -0.7993,2.86197 -1.4886,3.54448 -0.7993,2.74179 -2.1728,1.60204 -1.7155,0.5724 -5.4852,1.4852 -0.6859,2.28289 -0.7994,2.28455 0.5724,1.37174 1.7155,1.71384 0,3.66129 -2.1694,1.60036 -0.4589,1.48689 0,2.51652 -1.4885,0.45724 -1.7139,1.37007 -0.4555,1.48521 0.4555,1.71718 -1.3742,1.20445 -2.2938,-2.69133 -1.4835,-2.62665 -8.3405,0.79933 -10.1712,0.57073 -25.0367,0.68755 -13.0349,0.22862 -9.3735,0.22862 -1.3158,0.12125 -1.6546,-4.47177 -0.2286,-6.63007 -1.6004,-4.11521 -0.6859,-5.25831 -2.2862,-3.65797 -0.9145,-4.80107 -2.7435,-7.54455 -1.1431,-5.37264 -1.3717,-2.17191 -1.6004,-2.74346 1.829,-4.34383 1.3718,-5.71557 -2.7435,-2.05761 -0.4573,-2.74347 0.9145,-2.51485 1.7147,0 11.5454,0 49.6112,-0.68587 19.8767,-0.68586 1.8508,2.74681 1.8323,2.62163 0.4556,0.80437 -1.8307,2.74849 0.4556,4.22199 2.5148,3.88659 2.9688,1.82395 2.4047,0.2303 z"
         inkscape:connector-curvature="0" />
      <path
         style="fill:#eedfa1;fill-opacity:1;stroke:#000000;stroke-width:3.4440279;stroke-miterlimit:4;stroke-opacity:1;stroke-dasharray:none"
         id="Mississippi"
         class="ms"
         d="m 1344.5588,146.96958 -0.2542,1.25615 -5.1732,0 -1.4549,-0.8083 -2.1016,-0.32332 -6.7897,1.93992 -1.7783,-0.8083 -2.5866,4.20317 -1.1025,0.77802 -1.1239,-2.48798 -1.1431,-3.88659 -3.4293,-3.20071 1.1431,-7.54455 -0.6859,-0.91449 -1.8289,0.22862 -8.2305,0.68587 -24.234,0.68587 -0.4572,-1.60036 0.6859,-8.0018 3.4293,-6.17281 5.2583,-9.1449 -0.9145,-2.0576 1.1431,0 0.6859,-3.20072 -2.2862,-1.82898 0.2286,-1.82898 -2.0576,-4.57245 -0.2858,-5.34406 1.3718,-2.65774 -0.4001,-4.34383 -1.3718,-2.9721 1.3718,-1.37173 -1.3718,-2.0576 0.4573,-1.82898 0.9145,-6.17282 2.9721,-2.74346 -0.6859,-2.05761 3.658,-5.25833 2.7434,-0.91448 0,-2.51485 -0.6858,-1.37174 2.7434,-5.25831 2.7435,-1.14312 0.1074,-3.41208 8.6755,-0.0774 24.0874,-1.93992 4.5806,-0.22863 0.01,6.37172 0.1617,16.65106 -0.8083,31.03885 -0.1617,14.06449 2.7483,18.75264 z"
         inkscape:connector-curvature="0" />
      <path
         style="fill:#eedfa1;fill-opacity:1;stroke:#000000;stroke-width:3.4440279;stroke-miterlimit:4;stroke-opacity:1;stroke-dasharray:none"
         id="Misouri"
         class="mo"
         d="m 1275.7886,-70.47262 -2.5199,-3.08725 -1.1431,-2.28623 -7.7732,0.68587 -9.8308,0.45724 -25.3771,0.9145 -13.4887,0.22862 -7.8874,0.11431 -2.2863,0.11431 1.2574,2.51485 -0.2286,2.28622 2.5148,3.88659 3.0864,4.11521 3.0865,2.74347 2.2862,0.22862 1.3717,0.9145 0,2.97209 -1.829,1.60036 -0.4572,2.28622 2.0576,3.42935 2.5149,2.97209 2.5148,1.82898 1.3717,11.65975 -0.6858,35.32221 0.2286,4.68675 0.4572,5.38351 23.433,-0.11682 23.206,-0.68587 20.8047,-0.80101 11.6547,-0.2303 2.1694,3.426 -0.6841,3.3075 -3.0873,2.40304 -0.5724,1.83734 5.3785,0.45726 3.895,-0.68588 1.7171,-5.49363 0.6515,-5.85679 2.319,-2.02483 1.7121,-1.48689 2.0576,-1.02964 0.1152,-2.86029 0.574,-1.71551 -1.0313,-1.74827 -2.7451,0.14457 -2.1694,-2.62499 -1.3734,-4.22867 0.801,-2.5182 -1.9442,-3.42766 -1.8306,-4.5758 -4.7994,-0.79934 -6.9688,-5.59875 -1.7189,-4.11353 0.7994,-3.20072 2.0593,-6.05767 0.4589,-2.86363 -1.9492,-1.03131 -6.8553,-0.79767 -1.028,-1.71216 -0.1118,-4.23036 -5.4869,-3.43101 -6.9755,-7.7715 -2.2862,-7.31593 -0.2303,-4.22532 z"
         inkscape:connector-curvature="0" />
      <path
         style="fill:#eedfa1;fill-opacity:1;stroke:#000000;stroke-width:3.4440279;stroke-miterlimit:4;stroke-opacity:1;stroke-dasharray:none"
         id="Arkansas"
         class="ar"
         d="m 1310.9522,24.95331 -3.8473,0.93767 -6.1729,-0.45725 0.6859,-2.97209 3.2007,-2.74347 0.4573,-2.28623 -1.829,-2.9721 -10.9739,0.45725 -20.8047,0.91449 -23.3195,0.68587 -23.3195,0.45724 1.6004,6.85869 0,8.23042 1.3717,10.97399 0.2286,37.83693 2.2863,1.94329 2.9721,-1.37173 2.7434,1.14311 0.4304,10.3233 22.8858,-0.14205 18.8639,-0.80102 10.1215,-0.19753 1.1457,-2.09037 -0.2867,-3.54951 -1.8256,-2.9721 1.5987,-1.48521 -1.5987,-2.5115 0.6842,-2.50983 1.3684,-5.60543 2.5182,-2.06263 -0.6859,-2.28456 3.658,-5.37179 2.7435,-1.36839 -0.1135,-1.49358 -0.3455,-1.82564 2.857,-5.59873 2.403,-1.25659 0.3842,-3.42763 1.7706,-1.2417 0.8565,-4.23427 -1.3414,-4.01044 4.0415,-2.37671 0.5502,-2.0192 1.2353,-4.26758 z"
         inkscape:connector-curvature="0" />
      <path
         style="fill:#eedfa1;fill-opacity:1;stroke:#000000;stroke-width:3.4440279;stroke-miterlimit:4;stroke-opacity:1;stroke-dasharray:none"
         id="Oklahoma"
         class="ok"
         d="m 1095.3431,2.57146 -10.6881,-0.45719 -6.43,-0.48582 0.2572,0.20003 -0.7035,10.4221 21.9654,1.40688 32.0556,1.3036 -2.3346,24.41865 -0.4573,17.83257 0.2286,1.60036 4.3439,3.65796 2.0576,1.14311 0.6858,-0.22862 0.6859,-2.05761 1.3718,1.82899 2.0576,0 0,-1.37174 2.7434,1.37174 -0.4572,3.88658 4.1152,0.22862 2.5148,1.14312 4.1152,0.68587 2.5149,1.82898 2.2862,-2.0576 3.4294,0.68586 2.5148,3.42934 0.9145,0 0,2.28623 2.2862,0.68586 2.2862,-2.28622 1.829,0.68586 2.5149,0 0.9145,2.51486 4.801,1.82897 1.3718,-0.68586 1.829,-4.11521 1.1431,0 1.1431,2.0576 4.1152,0.68587 3.658,1.37174 2.9721,0.91449 1.8289,-0.91449 0.6859,-2.51485 4.3438,0 2.0576,0.91449 2.7435,-2.05761 1.1431,0 0.6859,1.60036 4.1152,0 1.6004,-2.0576 1.8289,0.45724 2.0576,2.51486 3.2008,1.82897 3.2007,0.9145 1.9411,1.11893 -0.3891,-37.21701 -1.3718,-10.97398 -0.1604,-8.87234 -1.4399,-6.53773 -0.7782,-7.17964 -0.068,-3.81622 -12.1369,0.31874 -46.41,-0.45724 -45.0389,-2.05762 z"
         inkscape:connector-curvature="0" />
      <path
         style="fill:#eedfa1;fill-opacity:1;stroke:#000000;stroke-width:3.4440279;stroke-miterlimit:4;stroke-opacity:1;stroke-dasharray:none"
         id="Kansas"
         class="ks"
         d="m 1223.3806,5.13028 -12.6183,0.20443 -46.0891,-0.45723 -44.5574,-2.05763 -24.6298,-1.25741 4.1438,-64.71997 21.8335,0.80017 40.4659,1.37173 44.1244,0.45725 5.0957,0 3.2469,3.2249 2.7676,0.22862 0.8903,1.07497 0,2.00923 -1.8289,1.60037 -0.4573,2.60717 2.2181,3.58983 2.5148,3.13256 2.5149,1.98946 1.0508,11.17832 z"
         inkscape:connector-curvature="0" />
      <path
         style="fill:#eedfa1;fill-opacity:1;stroke:#000000;stroke-width:3.4440279;stroke-miterlimit:4;stroke-opacity:1;stroke-dasharray:none"
         id="Louisiana"
         class="la"
         d="m 1322.2021,152.99473 -1.0294,-2.61622 -1.1431,-3.09226 -3.3159,-3.54114 0.9162,-6.75023 -0.1185,-1.14143 -1.2616,0.3421 -8.2305,0.91281 -25.0283,0.45892 -0.6842,-2.39468 0.9128,-8.4557 3.3159,-5.94585 5.0314,-8.69102 -0.5741,-2.39802 1.2566,-0.68085 0.4589,-1.95249 -2.2862,-2.05593 -0.1118,-1.94245 -1.8307,-4.34551 -0.4564,-5.94085 -9.7248,0.11348 -19.2043,0.9145 -22.205,0.0286 0.029,9.57357 0.6859,9.37353 0.6859,3.88658 2.5148,4.11521 0.9145,5.02971 4.3438,5.48693 0.2287,3.20072 0.6858,0.68587 -0.6858,8.45904 -2.9721,5.02969 1.6003,2.05761 -0.6858,2.51484 -0.6859,7.31593 -1.3717,3.20071 0.1224,3.61645 4.6865,-1.52015 8.083,-0.32332 10.3463,3.55653 6.4664,1.13163 3.7182,-1.45495 3.2332,1.13163 3.2332,0.96996 0.8083,-2.10159 -3.2332,-1.13162 -2.5866,0.48498 -2.7482,-1.6166 c 0,0 0.1617,-1.29329 0.8083,-1.45495 0.6467,-0.16166 3.0716,-0.96996 3.0716,-0.96996 l 1.7782,1.45494 1.7783,-0.96996 3.2332,0.64664 1.4549,2.42491 0.3234,2.26325 4.5265,0.32332 1.7782,1.77826 -0.8083,1.61661 -1.2933,0.8083 1.6166,1.6166 8.4064,3.55653 3.5565,-1.29328 0.97,-2.42491 2.5865,-0.64664 1.7783,-1.45494 1.2933,0.96996 0.8083,2.90989 -2.2633,0.8083 0.6467,0.64664 3.3949,-1.29328 2.2632,-3.39487 0.8083,-0.48498 -2.1016,-0.32332 0.8083,-1.61661 -0.1616,-1.45494 2.1016,-0.48498 1.1316,-1.29329 0.6466,0.8083 c 0,0 -0.1616,3.07155 0.6467,3.07155 0.8083,0 4.2031,0.64665 4.2031,0.64665 l 4.0415,1.93992 0.97,1.45495 2.9099,0 1.1316,0.96996 2.2633,-3.07155 0,-1.45495 -1.2933,0 -3.3949,-2.74822 -5.8198,-0.80831 -3.2332,-2.26324 1.1317,-2.74823 2.2632,0.32332 0.1617,-0.64664 -1.7783,-0.96996 0,-0.48499 3.2332,0 1.7783,-3.07154 -1.2933,-1.93993 -0.3233,-2.74823 -1.455,0.16166 -1.9399,2.10159 -0.6466,2.58657 -3.0716,-0.64665 -0.97,-1.77826 1.7783,-1.93993 2.0208,-1.77825 z"
         inkscape:connector-curvature="0" />
    </g>
  </g>
</svg>
