<?xml version="1.0" encoding="UTF-8" standalone="no"?>
<!-- Created with Inkscape (http://www.inkscape.org/) -->

<svg
   xmlns:dc="http://purl.org/dc/elements/1.1/"
   xmlns:cc="http://creativecommons.org/ns#"
   xmlns:rdf="http://www.w3.org/1999/02/22-rdf-syntax-ns#"
   xmlns:svg="http://www.w3.org/2000/svg"
   xmlns="http://www.w3.org/2000/svg"
   xmlns:xlink="http://www.w3.org/1999/xlink"
   xmlns:sodipodi="http://sodipodi.sourceforge.net/DTD/sodipodi-0.dtd"
   xmlns:inkscape="http://www.inkscape.org/namespaces/inkscape"
   width="80"
   height="80"
   id="svg4693"
   version="1.1"
   inkscape:version="0.48.0 r9654"
   sodipodi:docname="region11.svg"
   inkscape:export-filename="C:\Users\will\Desktop\region11.png"
   inkscape:export-xdpi="90"
   inkscape:export-ydpi="90">
  <defs
     id="defs4695">
    <radialGradient
       r="128.28937"
       fy="458.89755"
       fx="364.66507"
       cy="458.89755"
       cx="364.66507"
       gradientTransform="matrix(0.713131,0.52519279,-0.43067748,0.58479374,302.24793,-0.98232581)"
       gradientUnits="userSpaceOnUse"
       id="radialGradient4658"
       xlink:href="#linearGradient3991-9"
       inkscape:collect="always" />
    <linearGradient
       id="linearGradient3991-9">
      <stop
         style="stop-color:#b9d2f0;stop-opacity:1;"
         offset="0"
         id="stop3993-4" />
      <stop
         style="stop-color:#b9d2f0;stop-opacity:0;"
         offset="1"
         id="stop3995-8" />
    </linearGradient>
    <radialGradient
       r="128.28937"
       fy="458.89755"
       fx="364.66507"
       cy="458.89755"
       cx="364.66507"
       gradientTransform="matrix(0.713131,0.52519279,-0.43067748,0.58479374,302.24793,-0.98232581)"
       gradientUnits="userSpaceOnUse"
       id="radialGradient4756-2"
       xlink:href="#linearGradient3991-9-4"
       inkscape:collect="always" />
    <linearGradient
       id="linearGradient3991-9-4">
      <stop
         style="stop-color:#b9d2f0;stop-opacity:1;"
         offset="0"
         id="stop3993-4-5" />
      <stop
         style="stop-color:#b9d2f0;stop-opacity:0;"
         offset="1"
         id="stop3995-8-5" />
    </linearGradient>
  </defs>
  <sodipodi:namedview
     id="base"
     pagecolor="#ffffff"
     bordercolor="#666666"
     borderopacity="1.0"
     inkscape:pageopacity="0.0"
     inkscape:pageshadow="2"
     inkscape:zoom="1.4142136"
     inkscape:cx="-126.55865"
     inkscape:cy="44.083498"
     inkscape:document-units="px"
     inkscape:current-layer="layer1"
     showgrid="false"
     inkscape:window-width="1366"
     inkscape:window-height="706"
     inkscape:window-x="-8"
     inkscape:window-y="-8"
     inkscape:window-maximized="1" />
  <metadata
     id="metadata4698">
    <rdf:RDF>
      <cc:Work
         rdf:about="">
        <dc:format>image/svg+xml</dc:format>
        <dc:type
           rdf:resource="http://purl.org/dc/dcmitype/StillImage" />
        <dc:title></dc:title>
      </cc:Work>
    </rdf:RDF>
  </metadata>
  <g
     inkscape:label="Layer 1"
     inkscape:groupmode="layer"
     id="layer1"
     transform="translate(0,-972.36218)">
    <rect
       style="fill:#000000;fill-opacity:1;stroke:#000000;stroke-width:0.22691278;stroke-miterlimit:4;stroke-opacity:0.98431373;stroke-dasharray:none"
       id="rect5301"
       width="79.773087"
       height="79.773087"
       x="0.11345639"
       y="972.47565" />
    <text
       xml:space="preserve"
       style="font-size:40px;font-style:normal;font-variant:normal;font-weight:normal;font-stretch:normal;line-height:125%;letter-spacing:0px;word-spacing:0px;fill:#000000;fill-opacity:1;stroke:none;font-family:KaiTi;-inkscape-font-specification:KaiTi"
       x="125.86501"
       y="-108.0904"
       id="text3849"
       sodipodi:linespacing="125%"
       transform="translate(0,972.36218)"><tspan
         sodipodi:role="line"
         id="tspan3851" /></text>
    <g
       transform="matrix(0.28565076,-0.04312081,0.04312081,0.28565076,-8.6286005,935.07232)"
       id="g4001"
       style="fill:#eedfa1;fill-opacity:1;stroke:#000000;stroke-width:1.7307799;stroke-miterlimit:4;stroke-opacity:1;stroke-dasharray:none">
      <path
         inkscape:connector-curvature="0"
         style="fill:#eedfa1;fill-opacity:1;stroke:#000000;stroke-width:1.7307799;stroke-miterlimit:4;stroke-opacity:1;stroke-dasharray:none"
         id="California"
         class="ca"
         d="m 136.74132,386.75359 3.81508,-0.48862 1.48604,-2.01144 0.73204,-1.94109 -3.17652,-0.0901 -1.09917,-1.76303 0.77822,-1.71467 -0.0462,-6.15084 2.21809,-1.32778 2.6973,-2.58298 0.41108,-4.91539 1.64652,-3.49749 1.94329,-2.10376 3.26887,-1.71467 1.27939,-0.72983 0.75623,-1.48384 -0.86833,-0.89251 -0.96065,-1.51023 -0.93647,-5.34845 -2.90395,-5.23634 0.0971,-2.78625 -2.20083,-3.24806 -14.99896,-23.22938 -19.43292,-28.7141 -22.426988,-33.03376 -12.702455,-19.54491 1.796711,-7.20834 6.812519,-25.94866 8.116103,-31.43561 -12.365399,-3.33702 -13.488735,-3.42934 -12.574239,-4.11521 -7.544545,-2.0576 -11.431128,-2.97209 -7.050815,-2.4117 -1.580119,4.72436 -0.161661,7.43638 -5.173135,11.80121 -3.071548,2.58657 -0.323321,1.13162 -1.778266,0.80831 -1.454944,4.20317 -0.808302,3.23321 2.748228,4.20317 1.616605,4.20317 1.131623,3.55653 -0.323321,6.46642 -1.778265,3.07155 -0.646642,5.81978 -0.969963,3.71819 1.778265,3.87985 2.748228,4.52649 2.263247,4.84982 1.293283,4.04151 -0.32332,3.23321 -0.323321,0.48498 0,2.10158 5.658116,6.30476 -0.484981,2.42491 -0.646642,2.26325 -0.646642,1.93992 0.16166,8.24469 2.101586,3.71819 1.939926,2.58656 2.748228,0.48499 0.969963,2.74822 -1.131623,3.55653 -2.101587,1.61661 -1.131623,0 -0.808302,3.87985 0.484981,2.90989 3.23321,4.36483 1.616604,5.3348 1.454944,4.68815 1.293284,3.07155 3.39487,5.81978 1.454944,2.58656 0.484982,2.90989 1.616604,0.96996 0,2.42491 -0.808302,1.93993 -1.778265,7.11306 -0.484982,1.93992 2.424908,2.74823 4.203172,0.48498 4.526493,1.77827 3.879851,2.10158 2.909889,0 2.909888,3.07155 2.586567,4.84982 1.131624,2.26324 3.879851,2.10159 4.849814,0.8083 1.454944,2.10159 0.646642,3.23321 -1.454944,0.64664 0.323321,0.96996 3.233211,0.8083 2.748228,0.16167 2.909889,4.68815 3.879854,4.20317 0.808302,2.26325 2.586568,4.20317 0.323321,3.23321 0,9.37631 0.484981,1.77826 10.022953,1.45495 19.72257,2.74822 z m -87.947713,-49.71668 1.293288,1.53578 -0.16166,1.29329 -3.233221,-0.0808 -0.565814,-1.21246 -0.646644,-1.45495 z m 1.939932,0 1.212458,-0.64664 3.556543,2.10159 3.07156,1.21245 -0.889136,0.64666 -4.526509,-0.2425 -1.61661,-1.61661 z m 20.692614,19.80348 1.778265,2.34408 0.808313,0.96997 1.535779,0.56581 0.565807,-1.45495 -0.969963,-1.77827 -2.667403,-2.02076 -1.050798,0.16166 z m -1.454955,8.64886 1.778276,3.15239 1.212458,1.93994 -1.454954,0.24248 -1.293284,-1.21245 c 0,0 -0.727477,-1.45495 -0.727477,-1.85911 0,-0.40414 0,-2.18242 0,-2.18242 z" />
      <path
         inkscape:connector-curvature="0"
         style="fill:#eedfa1;fill-opacity:1;stroke:#000000;stroke-width:1.7307799;stroke-miterlimit:4;stroke-opacity:1;stroke-dasharray:none"
         id="Arizona"
         class="az"
         d="m 137.74699,387.50041 -2.62701,2.15833 -0.32332,1.45495 0.48498,0.96996 18.91427,10.66959 12.12454,7.59804 14.7111,8.56801 16.81269,10.02295 12.2862,2.42491 25.12794,2.70491 2.53082,-12.50695 3.75267,-27.24294 6.96486,-52.88116 4.25726,-30.96569 -24.59671,-3.67877 -27.20609,-4.57245 -33.42915,-6.31768 -2.9219,18.09184 -0.45724,0.45725 -1.71467,2.62916 -2.51485,-0.11432 -1.25742,-2.74347 -2.74347,-0.34293 -0.9145,-1.14311 -0.91448,0 -0.9145,0.57156 -1.94329,1.0288 -0.1143,6.97298 -0.22864,1.71467 -0.57154,12.57424 -1.48605,2.17191 -0.57156,3.31503 2.74347,4.91539 1.25742,5.82988 0.80019,1.0288 1.0288,0.57156 -0.11432,2.28622 -1.60035,1.37173 -3.42934,1.71467 -1.94329,1.9433 -1.48605,3.65795 -0.57156,4.91539 -2.85778,2.74347 -2.0576,0.68587 -0.11431,5.82988 -0.45725,1.71467 0.45725,0.80018 3.65796,0.57154 -0.57156,2.74348 -1.48605,2.17191 z" />
      <path
         inkscape:connector-curvature="0"
         style="fill:#eedfa1;fill-opacity:1;stroke:#000000;stroke-width:1.7307799;stroke-miterlimit:4;stroke-opacity:1;stroke-dasharray:none"
         id="Nevada"
         class="nv"
         d="m 140.65786,177.57182 20.98019,4.51122 9.71646,1.9433 9.25921,1.82897 6.61466,1.63333 -0.55837,5.86505 -3.54365,17.32915 -4.09322,19.98029 -1.94329,9.71867 -2.17192,13.28209 -3.15456,16.41465 -3.52166,15.68483 -1.96839,10.18036 -2.46557,16.77072 -0.45724,1.09915 -1.07276,2.46868 -1.87294,-0.11431 -1.09695,-2.74347 -2.74347,-0.50342 -1.39592,-0.98263 -2.03783,0.32096 -0.91449,0.73204 -1.30138,1.34975 -0.43526,6.97298 -0.54959,1.71467 -0.41107,12.09281 -1.3221,1.71416 -1.87642,-2.26153 -14.51752,-22.74795 -19.43292,-29.03506 -22.747944,-33.83614 -12.3815,-18.58204 1.636234,-6.56644 6.972996,-25.94866 7.887479,-31.34785 33.607515,8.14264 13.71736,2.97209" />
      <path
         inkscape:connector-curvature="0"
         style="fill:#eedfa1;fill-opacity:1;stroke:#000000;stroke-width:1.7307799;stroke-miterlimit:4;stroke-opacity:1;stroke-dasharray:none"
         id="Utah"
         class="ut"
         d="m 252.97063,309.30699 -24.64287,-3.4733 -26.56419,-4.8934 -33.82674,-6.01995 1.5887,-9.15697 3.20071,-15.20339 3.31503,-16.57514 2.17192,-13.60304 1.94329,-8.91628 3.77227,-20.46173 3.54365,-17.48962 1.11454,-5.57268 12.71712,2.25765 12.00269,2.0576 10.28801,1.82899 8.34472,1.37174 3.67777,0.47916 -1.4848,10.63042 -2.31162,13.17266 7.80769,0.92837 16.40652,1.80479 8.21097,0.85564 -2.13048,21.96856 -3.20071,22.5655 -3.75267,27.82618 -1.66614,11.1078 z" />
    </g>
  </g>
</svg>
