<?xml version="1.0" encoding="UTF-8" standalone="no"?>
<!-- Created with Inkscape (http://www.inkscape.org/) -->

<svg
   xmlns:dc="http://purl.org/dc/elements/1.1/"
   xmlns:cc="http://creativecommons.org/ns#"
   xmlns:rdf="http://www.w3.org/1999/02/22-rdf-syntax-ns#"
   xmlns:svg="http://www.w3.org/2000/svg"
   xmlns="http://www.w3.org/2000/svg"
   xmlns:xlink="http://www.w3.org/1999/xlink"
   xmlns:sodipodi="http://sodipodi.sourceforge.net/DTD/sodipodi-0.dtd"
   xmlns:inkscape="http://www.inkscape.org/namespaces/inkscape"
   width="80"
   height="80"
   id="svg4693"
   version="1.1"
   inkscape:version="0.48.0 r9654"
   sodipodi:docname="region17.svg"
   inkscape:export-filename="region17.png"
   inkscape:export-xdpi="90"
   inkscape:export-ydpi="90">
  <defs
     id="defs4695">
    <radialGradient
       r="128.28937"
       fy="458.89755"
       fx="364.66507"
       cy="458.89755"
       cx="364.66507"
       gradientTransform="matrix(0.713131,0.52519279,-0.43067748,0.58479374,302.24793,-0.98232581)"
       gradientUnits="userSpaceOnUse"
       id="radialGradient4658"
       xlink:href="#linearGradient3991-9"
       inkscape:collect="always" />
    <linearGradient
       id="linearGradient3991-9">
      <stop
         style="stop-color:#b9d2f0;stop-opacity:1;"
         offset="0"
         id="stop3993-4" />
      <stop
         style="stop-color:#b9d2f0;stop-opacity:0;"
         offset="1"
         id="stop3995-8" />
    </linearGradient>
    <radialGradient
       r="128.28937"
       fy="458.89755"
       fx="364.66507"
       cy="458.89755"
       cx="364.66507"
       gradientTransform="matrix(0.713131,0.52519279,-0.43067748,0.58479374,302.24793,-0.98232581)"
       gradientUnits="userSpaceOnUse"
       id="radialGradient4756-2"
       xlink:href="#linearGradient3991-9-4"
       inkscape:collect="always" />
    <linearGradient
       id="linearGradient3991-9-4">
      <stop
         style="stop-color:#b9d2f0;stop-opacity:1;"
         offset="0"
         id="stop3993-4-5" />
      <stop
         style="stop-color:#b9d2f0;stop-opacity:0;"
         offset="1"
         id="stop3995-8-5" />
    </linearGradient>
  </defs>
  <sodipodi:namedview
     id="base"
     pagecolor="#ffffff"
     bordercolor="#666666"
     borderopacity="1.0"
     inkscape:pageopacity="0.0"
     inkscape:pageshadow="2"
     inkscape:zoom="1.4142136"
     inkscape:cx="-16.25"
     inkscape:cy="-94.606823"
     inkscape:document-units="px"
     inkscape:current-layer="layer1"
     showgrid="false"
     inkscape:window-width="1366"
     inkscape:window-height="706"
     inkscape:window-x="-32000"
     inkscape:window-y="-32000"
     inkscape:window-maximized="1" />
  <metadata
     id="metadata4698">
    <rdf:RDF>
      <cc:Work
         rdf:about="">
        <dc:format>image/svg+xml</dc:format>
        <dc:type
           rdf:resource="http://purl.org/dc/dcmitype/StillImage" />
        <dc:title></dc:title>
      </cc:Work>
    </rdf:RDF>
  </metadata>
  <g
     inkscape:label="Layer 1"
     inkscape:groupmode="layer"
     id="layer1"
     transform="translate(0,-972.36218)">
    <rect
       style="fill:#000000;fill-opacity:1;stroke:#000000;stroke-width:0.22691278;stroke-miterlimit:4;stroke-opacity:0.98431373;stroke-dasharray:none"
       id="rect5301"
       width="79.773087"
       height="79.773087"
       x="0.11345639"
       y="972.47565" />
    <text
       xml:space="preserve"
       style="font-size:40px;font-style:normal;font-variant:normal;font-weight:normal;font-stretch:normal;line-height:125%;letter-spacing:0px;word-spacing:0px;fill:#000000;fill-opacity:1;stroke:none;font-family:KaiTi;-inkscape-font-specification:KaiTi"
       x="125.86501"
       y="-108.0904"
       id="text3849"
       sodipodi:linespacing="125%"
       transform="translate(0,972.36218)"><tspan
         sodipodi:role="line"
         id="tspan3851"></tspan></text>
    <flowRoot
       xml:space="preserve"
       id="flowRoot3881"
       style="fill:black;stroke:none;stroke-opacity:1;stroke-width:1px;stroke-linejoin:miter;stroke-linecap:butt;fill-opacity:1;font-family:KaiTi;font-style:normal;font-weight:normal;font-size:40px;line-height:125%;letter-spacing:0px;word-spacing:0px;-inkscape-font-specification:KaiTi;font-stretch:normal;font-variant:normal"><flowRegion
         id="flowRegion3883"><rect
           id="rect3885"
           width="173.94827"
           height="43.133514"
           x="69.296463"
           y="47.473087" /></flowRegion><flowPara
         id="flowPara3887"></flowPara></flowRoot>    <path
       inkscape:connector-curvature="0"
       d="m 57.691906,992.19622 -0.114821,30.31298 0.574105,0.3445 1.09081,0.057 0.516694,-0.4019 0.918575,0 0.05741,1.0334 2.468669,2.4113 0.172235,0.9185 1.205628,-0.6889 0.229645,-0.057 0.114821,-1.0908 0.516695,-0.5741 0.40188,-0.057 0.68893,-0.5167 1.090806,0.7463 0.229646,1.0334 0.688929,0.4019 0.401877,0.8612 1.377866,0.6315 1.205628,2.1242 0.975982,1.3778 0.803754,0.976 0.516701,1.3205 1.779736,0.6315 1.837153,0.7463 0.344463,1.5501 0.172232,1.0908 -0.344463,1.2057 -0.631523,0.8037 -0.574108,-0.287 -0.516698,-1.0908 -0.975985,-0.5167 -0.631519,-0.4019 -0.287056,0.287 0.516698,0.976 0.05741,1.3205 -0.401877,0.1722 -0.688929,-0.6889 -0.74634,-0.4593 0.172231,0.5741 0.459284,0.6315 -0.287052,0.2871 c 0,0 -0.287053,-0.1148 -0.459284,-0.3445 -0.172239,-0.2296 -0.746344,-1.2056 -0.746344,-1.2056 l -0.344466,-0.8038 c 0,0 -0.114821,0.4593 -0.344467,0.3445 -0.229645,-0.1148 -0.459287,-0.5167 -0.459287,-0.5167 l 0.631519,-0.6889 -0.516698,-0.5167 0,-1.7798 -0.287053,0 -0.287052,1.2056 -0.401881,0.1723 -0.344463,-1.3205 -0.229645,-1.3204 -0.287056,-0.1723 0.114824,2.0095 0,0.4018 -0.516701,-0.4593 -1.263038,-2.1242 -0.746344,-0.1722 -0.229642,-1.3204 -0.574108,-1.0334 -0.574112,-0.4019 0,-0.8038 0.746343,-0.4593 -0.172231,-0.1148 -0.918575,0.2297 -1.205631,-0.8612 -0.918575,-1.0334 -1.722326,-0.9186 -1.435276,-0.9186 0.459291,-1.1482 0,-0.5741 -0.631523,0.5741 -1.033395,0.4019 -1.320452,-0.4019 -2.009385,-0.8611 -1.951968,0 -0.229642,0.1722 -2.296437,-1.3779 -0.746344,-0.1148 -0.975985,-2.0668 -1.263042,0.1148 -1.263041,0.5167 0.172235,1.6076 0.401873,-1.0334 0.34447,0.1148 -0.516701,1.5501 1.148217,-0.976 0.229645,0.5741 -1.377862,1.5501 -0.459288,-0.1149 -0.172231,-0.6889 -0.459288,-0.287 -0.459287,0.4018 -0.975986,-0.6315 -1.09081,0.7464 -0.631515,0.7463 -1.205631,0.7463 -1.664918,-0.057 -0.172232,-0.7464 1.320449,-0.2297 0,-0.4592 -0.803754,-0.2297 0.34447,-0.8611 0.80375,-1.3779 0,-0.6315 0.05741,-0.2871 1.550097,-0.8037 0.344463,0.4593 0.975989,0 -0.459288,-0.9186 -1.320455,-0.1148 -1.779736,0.9759 -0.861164,1.2057 -0.631523,0.9186 -0.401877,0.8037 -1.492683,0.5167 -1.09081,0.9186 -0.114821,0.5741 0.803754,0.3444 0.287056,0.7464 -0.975989,1.1482 -2.296434,1.4927 -2.755725,1.4927 -0.746344,0.4019 -1.89456,0.4018 -1.894561,0.8038 0.631519,0.4593 -0.516698,0.5167 -0.172231,0.4018 -0.975986,-0.3444 -1.148215,0.057 -0.28705,0.8038 -0.34447,0 0.11482,-0.8612 -1.26304,0.4593 -1.0334,0.3444 -1.20562,-0.4593 -1.0334,0.689 -1.14822,0 -0.74634,0.4593 -0.57411,0.287 -0.74634,-0.1148 -0.91858,-0.4019 -0.80375,0.2297 -0.34447,0.3444 -0.57411,-0.4018 0,-0.689 1.09081,-0.4592 2.23903,0.2296 1.5501,-0.5741 0.74634,-0.7464 1.03339,-0.2296 0.63152,-0.2871 0.97599,0.057 0.57411,0.4593 0.34446,-0.1148 0.80375,-0.976 1.09081,-0.3444 1.205627,-0.2297 0.459288,-0.1148 0.229645,0.1722 0.287056,0 0.459284,-1.3204 1.435273,-0.5167 0.688933,-1.3205 0.803754,-1.6075 0.574109,-0.5167 0.114824,-0.9185 -0.574112,0.4592 -1.205631,0.2297 -0.229642,-0.8612 -0.459287,-0.1148 -0.344467,0.3444 -0.05741,1.0334 -0.516702,-0.057 -0.516694,-2.0668 -0.459288,0.4592 -0.401877,-0.1722 -0.114821,-0.6889 -1.435272,0.057 -0.74634,0.4019 -0.91857,-0.1149 0.51669,-0.5166 0.17224,-0.9186 -0.22965,-0.689 0.5167,-0.3444 0.45928,-0.057 -0.22965,-0.6316 0,-1.5501 -0.34446,-0.3444 -0.28706,0.5167 -2.18161,0 -0.5167,-0.4593 -0.22964,-1.3779 -0.74635,-1.263 0,-0.3445 0.74635,-0.287 0.0574,-0.7464 0.40188,-0.4018 -0.28706,-0.1723 -0.45928,0.1723 -0.40188,-0.976 0.34446,-1.7798 1.60752,-1.1482 0.91857,-0.5741 0.68893,-1.3204 0.97599,-0.4593 0.91858,0.4018 0.114814,0.8612 0.861161,-0.1148 1.148217,-0.8612 0.574112,0.2296 0.344463,0.2297 0.574112,0 0.80375,-0.4593 0.28706,-1.5501 c 0,0 0.114821,-1.0334 0.344463,-1.2056 0.229642,-0.1722 0.344463,-0.3445 0.344463,-0.3445 l -0.401874,-0.6889 -0.918575,0.2871 -1.14822,0.287 -0.688933,-0.1722 -1.263038,-0.6316 -1.779745,-0.057 -1.26304,-1.3204 0.17223,-1.3779 0.22965,-0.86108 -0.74634,-0.6316 -0.68893,-1.3204 0.17223,-0.2871 2.41126,-0.1722 0.746345,0 0.344463,0.3444 0.229645,0 -0.05741,-0.5741 1.377859,-0.2296 0.918575,0.1148 0.516701,0.4019 -0.516701,0.7463 -0.172232,0.5168 0.975989,0.5741 1.77974,0.6315 0.631519,-0.3445 -0.803754,-1.5501 -0.344467,-1.1482 0.344467,-0.2871 -1.205631,-0.6889 -0.172232,-0.4018 0.172232,-0.5742 -0.287053,-1.3779 -1.033399,-1.6649 -0.861165,-1.4926 1.0334,-0.689 1.148217,0 0.631522,0.2297 1.492684,-0.058 1.320452,-1.263 0.401877,-1.0908 1.320452,-0.8612 0.574108,0.3445 0.975982,-0.2296 1.320452,-0.7464 0.401881,-0.057 0.344463,0.2871 1.607508,-0.057 0.975985,-1.0909 0.401877,0 1.263041,0.8612 0.68893,0.7464 -0.172232,0.4018 0.229642,0.4019 0.574112,-0.5741 1.377863,0.1148 0.114821,1.3205 0.688933,0.5167 2.526079,0.2296 2.239027,1.4927 0.516695,-0.3445 1.837153,0.9186 0.74634,-0.2296 0.688933,-0.2871 1.722326,0.6889 1.550097,1.0334 z m -40.876586,10.27658 0.74634,1.8946 -0.0574,0.3444 -1.03339,-0.1148 -0.63152,-1.4353 -0.63152,-0.5167 -0.86117,0 -0.0574,-0.9185 0.63152,-0.8612 0.40188,0.8612 0.5167,0.5167 0.97598,0.2296 z m -0.91857,11.8841 1.32045,0.287 1.32045,0.3445 0.28705,0.3444 -0.5741,1.3205 -1.09081,-0.057 -1.20563,-1.2631 -0.0574,-0.9759 z m -7.3485997,-4.9948 0.40188,0.9186 0.40187,0.5741 -0.40187,0.2871 -0.74635,-1.0909 0,-0.6889 0.34447,0 z m -4.87993,25.9497 1.20563,-0.8037 1.20563,-0.3445 0.91857,0.1148 0.17224,0.5742 0.68893,0.1722 0.68893,-0.6889 -0.11482,-0.5741 0.97598,-0.2297 1.0333997,0.9186 -0.40188,0.6315 -1.5500897,0.4019 -0.97599,-0.1723 -1.32045,-0.4018 -1.55009,0.5167 -0.57411,0.1148 -0.40188,-0.2297 z m 17.3955097,-1.6075 0.57411,0.689 0.74634,-0.5741 -0.5167,-0.4593 -0.80375,0.3444 z m 1.0334,1.0909 0.40187,-0.8038 0.74634,0.1148 -0.28705,0.689 -0.86116,0 z m 8.38199,-0.689 0.516701,0.6315 0.344467,-0.4018 -0.287056,-0.6889 -0.574112,0.4592 z m 3.100191,-4.4206 0.401881,2.0668 1.033396,0.287 1.779736,-1.0334 1.550094,-0.9185 -0.574105,-0.8612 0.172231,-0.8612 -0.746343,0.4593 -1.033393,-0.287 0.574105,-0.4019 0.68893,0.287 1.377862,-0.6315 0.172235,-0.5167 -0.861164,-0.287 0.287052,-0.689 -0.975985,0.689 -1.664915,1.263 -1.722326,1.0334 -0.459291,0.4019 z m 15.041666,-7.0616 0.861165,-0.5166 -0.344467,-0.6316 -0.631519,0.3445 0.114821,0.8037 z"
       class="ak"
       id="Alaska"
       style="fill:#eedfa1;fill-opacity:1;stroke:none" />
  </g>
</svg>
