<?xml version="1.0" encoding="UTF-8" standalone="no"?>
<!-- Created with Inkscape (http://www.inkscape.org/) -->

<svg
   xmlns:dc="http://purl.org/dc/elements/1.1/"
   xmlns:cc="http://creativecommons.org/ns#"
   xmlns:rdf="http://www.w3.org/1999/02/22-rdf-syntax-ns#"
   xmlns:svg="http://www.w3.org/2000/svg"
   xmlns="http://www.w3.org/2000/svg"
   xmlns:xlink="http://www.w3.org/1999/xlink"
   xmlns:sodipodi="http://sodipodi.sourceforge.net/DTD/sodipodi-0.dtd"
   xmlns:inkscape="http://www.inkscape.org/namespaces/inkscape"
   width="80"
   height="80"
   id="svg4693"
   version="1.1"
   inkscape:version="0.48.0 r9654"
   sodipodi:docname="region14.svg"
   inkscape:export-filename="region14.png"
   inkscape:export-xdpi="90"
   inkscape:export-ydpi="90">
  <defs
     id="defs4695">
    <radialGradient
       r="128.28937"
       fy="458.89755"
       fx="364.66507"
       cy="458.89755"
       cx="364.66507"
       gradientTransform="matrix(0.713131,0.52519279,-0.43067748,0.58479374,302.24793,-0.98232581)"
       gradientUnits="userSpaceOnUse"
       id="radialGradient4658"
       xlink:href="#linearGradient3991-9"
       inkscape:collect="always" />
    <linearGradient
       id="linearGradient3991-9">
      <stop
         style="stop-color:#b9d2f0;stop-opacity:1;"
         offset="0"
         id="stop3993-4" />
      <stop
         style="stop-color:#b9d2f0;stop-opacity:0;"
         offset="1"
         id="stop3995-8" />
    </linearGradient>
    <radialGradient
       r="128.28937"
       fy="458.89755"
       fx="364.66507"
       cy="458.89755"
       cx="364.66507"
       gradientTransform="matrix(0.713131,0.52519279,-0.43067748,0.58479374,302.24793,-0.98232581)"
       gradientUnits="userSpaceOnUse"
       id="radialGradient4756-2"
       xlink:href="#linearGradient3991-9-4"
       inkscape:collect="always" />
    <linearGradient
       id="linearGradient3991-9-4">
      <stop
         style="stop-color:#b9d2f0;stop-opacity:1;"
         offset="0"
         id="stop3993-4-5" />
      <stop
         style="stop-color:#b9d2f0;stop-opacity:0;"
         offset="1"
         id="stop3995-8-5" />
    </linearGradient>
  </defs>
  <sodipodi:namedview
     id="base"
     pagecolor="#ffffff"
     bordercolor="#666666"
     borderopacity="1.0"
     inkscape:pageopacity="0.0"
     inkscape:pageshadow="2"
     inkscape:zoom="1.4142136"
     inkscape:cx="-16.25"
     inkscape:cy="-94.606823"
     inkscape:document-units="px"
     inkscape:current-layer="layer1"
     showgrid="false"
     inkscape:window-width="1366"
     inkscape:window-height="706"
     inkscape:window-x="-8"
     inkscape:window-y="-8"
     inkscape:window-maximized="1" />
  <metadata
     id="metadata4698">
    <rdf:RDF>
      <cc:Work
         rdf:about="">
        <dc:format>image/svg+xml</dc:format>
        <dc:type
           rdf:resource="http://purl.org/dc/dcmitype/StillImage" />
        <dc:title></dc:title>
      </cc:Work>
    </rdf:RDF>
  </metadata>
  <g
     inkscape:label="Layer 1"
     inkscape:groupmode="layer"
     id="layer1"
     transform="translate(0,-972.36218)">
    <rect
       style="fill:#000000;fill-opacity:1;stroke:#000000;stroke-width:0.22691278;stroke-miterlimit:4;stroke-opacity:0.98431373;stroke-dasharray:none"
       id="rect5301"
       width="79.773087"
       height="79.773087"
       x="0.11345639"
       y="972.47565" />
    <text
       xml:space="preserve"
       style="font-size:40px;font-style:normal;font-variant:normal;font-weight:normal;font-stretch:normal;line-height:125%;letter-spacing:0px;word-spacing:0px;fill:#000000;fill-opacity:1;stroke:none;font-family:KaiTi;-inkscape-font-specification:KaiTi"
       x="125.86501"
       y="-108.0904"
       id="text3849"
       sodipodi:linespacing="125%"
       transform="translate(0,972.36218)"><tspan
         sodipodi:role="line"
         id="tspan3851"></tspan></text>
    <flowRoot
       xml:space="preserve"
       id="flowRoot3881"
       style="fill:black;stroke:none;stroke-opacity:1;stroke-width:1px;stroke-linejoin:miter;stroke-linecap:butt;fill-opacity:1;font-family:KaiTi;font-style:normal;font-weight:normal;font-size:40px;line-height:125%;letter-spacing:0px;word-spacing:0px;-inkscape-font-specification:KaiTi;font-stretch:normal;font-variant:normal"><flowRegion
         id="flowRegion3883"><rect
           id="rect3885"
           width="173.94827"
           height="43.133514"
           x="69.296463"
           y="47.473087" /></flowRegion><flowPara
         id="flowPara3887"></flowPara></flowRoot>    <path
       inkscape:connector-curvature="0"
       d="m 1.8659514,993.09425 1.28022,-2.3471 1.49361,-0.2133 0.21337,0.5334 -1.38692,2.027 z m 6.7212,-2.4538 4.0540496,1.707 1.38691,-0.2134 1.06686,-2.5605 -0.42674,-2.2404 -2.77383,-0.32 -2.6671396,1.1735 z m 20.2702696,6.6145 2.45376,3.62735 1.60029,-0.2133 0.7468,-0.3201 0.96017,0.8535 2.45377,-0.1067 0.64012,-0.9601 -1.92035,-1.17365 -1.28023,-2.4538 -1.38691,-2.347 -3.84068,1.9203 z m 13.3357,5.86775 0.85349,-1.2802 3.09388,0.6401 0.42674,-0.3201 4.05405,0.4268 -0.21337,0.8535 -1.70697,0.9601 -2.88051,-0.2133 z m 3.52063,3.414 1.28023,2.5605 2.02702,-0.7469 0.21337,-1.0668 -1.06685,-1.3869 -2.45377,-0.2134 z m 4.58748,-0.7468 1.4936,-1.9204 3.09388,1.6004 2.88051,0.7467 2.88052,1.8137 0,1.2802 -2.34708,1.1736 -3.20058,0.6401 -1.60028,-0.9602 z m 10.98862,10.2418 1.06686,-0.8535 2.2404,1.0669 5.01422,2.3471 2.2404,1.3869 1.06685,1.6003 1.280229,2.8805 2.667141,1.7069 -0.21337,0.8535 -2.560456,2.1338 -2.773824,0.9601 -0.96017,-0.4267 -2.02703,1.1735 -1.60028,2.1338 -1.4936,1.9203 -1.17355,-0.1067 -2.34708,-1.707 -0.21337,-2.9872 0.42674,-1.6003 -1.06685,-3.7339 -1.38692,-1.1736 -0.10669,-1.707 1.49361,-0.6401 1.38691,-2.027 0.32006,-0.6401 -1.06686,-1.1736 z"
       class="hi"
       id="Hawaii"
       style="fill:#eedfa1;fill-opacity:1;stroke:none" />
  </g>
</svg>
