<?xml version="1.0" encoding="UTF-8" standalone="no"?>
<!-- Created with Inkscape (http://www.inkscape.org/) -->

<svg
   xmlns:dc="http://purl.org/dc/elements/1.1/"
   xmlns:cc="http://creativecommons.org/ns#"
   xmlns:rdf="http://www.w3.org/1999/02/22-rdf-syntax-ns#"
   xmlns:svg="http://www.w3.org/2000/svg"
   xmlns="http://www.w3.org/2000/svg"
   xmlns:xlink="http://www.w3.org/1999/xlink"
   xmlns:sodipodi="http://sodipodi.sourceforge.net/DTD/sodipodi-0.dtd"
   xmlns:inkscape="http://www.inkscape.org/namespaces/inkscape"
   width="80"
   height="80"
   id="svg4693"
   version="1.1"
   inkscape:version="0.48.0 r9654"
   sodipodi:docname="region07.svg"
   inkscape:export-filename="C:\Users\will\Desktop\region07.png"
   inkscape:export-xdpi="90"
   inkscape:export-ydpi="90">
  <defs
     id="defs4695">
    <radialGradient
       r="128.28937"
       fy="458.89755"
       fx="364.66507"
       cy="458.89755"
       cx="364.66507"
       gradientTransform="matrix(0.713131,0.52519279,-0.43067748,0.58479374,302.24793,-0.98232581)"
       gradientUnits="userSpaceOnUse"
       id="radialGradient4658"
       xlink:href="#linearGradient3991-9"
       inkscape:collect="always" />
    <linearGradient
       id="linearGradient3991-9">
      <stop
         style="stop-color:#b9d2f0;stop-opacity:1;"
         offset="0"
         id="stop3993-4" />
      <stop
         style="stop-color:#b9d2f0;stop-opacity:0;"
         offset="1"
         id="stop3995-8" />
    </linearGradient>
    <radialGradient
       r="128.28937"
       fy="458.89755"
       fx="364.66507"
       cy="458.89755"
       cx="364.66507"
       gradientTransform="matrix(0.713131,0.52519279,-0.43067748,0.58479374,302.24793,-0.98232581)"
       gradientUnits="userSpaceOnUse"
       id="radialGradient4756-2"
       xlink:href="#linearGradient3991-9-4"
       inkscape:collect="always" />
    <linearGradient
       id="linearGradient3991-9-4">
      <stop
         style="stop-color:#b9d2f0;stop-opacity:1;"
         offset="0"
         id="stop3993-4-5" />
      <stop
         style="stop-color:#b9d2f0;stop-opacity:0;"
         offset="1"
         id="stop3995-8-5" />
    </linearGradient>
  </defs>
  <sodipodi:namedview
     id="base"
     pagecolor="#ffffff"
     bordercolor="#666666"
     borderopacity="1.0"
     inkscape:pageopacity="0.0"
     inkscape:pageshadow="2"
     inkscape:zoom="1.4142136"
     inkscape:cx="-16.25"
     inkscape:cy="44.083498"
     inkscape:document-units="px"
     inkscape:current-layer="layer1"
     showgrid="false"
     inkscape:window-width="1366"
     inkscape:window-height="706"
     inkscape:window-x="-8"
     inkscape:window-y="-8"
     inkscape:window-maximized="1" />
  <metadata
     id="metadata4698">
    <rdf:RDF>
      <cc:Work
         rdf:about="">
        <dc:format>image/svg+xml</dc:format>
        <dc:type
           rdf:resource="http://purl.org/dc/dcmitype/StillImage" />
        <dc:title></dc:title>
      </cc:Work>
    </rdf:RDF>
  </metadata>
  <g
     inkscape:label="Layer 1"
     inkscape:groupmode="layer"
     id="layer1"
     transform="translate(0,-972.36218)">
    <rect
       style="fill:#000000;fill-opacity:1;stroke:#000000;stroke-width:0.22691278;stroke-miterlimit:4;stroke-opacity:0.98431373;stroke-dasharray:none"
       id="rect5301"
       width="79.773087"
       height="79.773087"
       x="0.11345639"
       y="972.47565" />
    <text
       xml:space="preserve"
       style="font-size:40px;font-style:normal;font-variant:normal;font-weight:normal;font-stretch:normal;line-height:125%;letter-spacing:0px;word-spacing:0px;fill:#000000;fill-opacity:1;stroke:none;font-family:KaiTi;-inkscape-font-specification:KaiTi"
       x="125.86501"
       y="-108.0904"
       id="text3849"
       sodipodi:linespacing="125%"
       transform="translate(0,972.36218)"><tspan
         sodipodi:role="line"
         id="tspan3851" /></text>
    <g
       id="g4033"
       transform="matrix(0.32107151,0,0,0.32107151,-421.17978,967.6937)"
       style="fill:#eedfa1;fill-opacity:1;stroke:#000000;stroke-width:1.55728543;stroke-miterlimit:4;stroke-opacity:1;stroke-dasharray:none">
      <path
         style="fill:#eedfa1;fill-opacity:1;stroke:#000000;stroke-width:1.55728543;stroke-miterlimit:4;stroke-opacity:1;stroke-dasharray:none"
         id="Florida"
         class="fl"
         d="m 1475.3973,125.50676 2.2656,7.3186 3.7297,9.74226 5.3348,9.3763 3.7182,6.30476 4.8498,5.49646 4.0416,3.71819 1.6166,2.90989 -1.1317,1.29328 -0.8083,1.29328 2.9099,7.43639 2.9099,2.90988 2.5866,5.3348 3.5565,5.81978 4.5265,8.24468 1.2933,7.59804 0.485,11.96288 0.6466,1.77826 -0.3233,3.39487 -2.4249,1.29329 0.3233,1.93992 -0.6466,1.93993 0.3233,2.4249 0.485,1.93993 -2.7483,3.23321 -3.0715,1.45494 -3.8799,0.16166 -1.4549,1.61661 -2.4249,0.96996 -1.2933,-0.48498 -1.1316,-0.96996 -0.3234,-2.90989 -0.8083,-3.39487 -3.3948,-5.17314 -3.5566,-2.26324 -3.8798,-0.32332 -0.8083,1.29328 -3.0716,-4.36483 -0.6466,-3.55653 -2.5866,-4.04151 -1.7782,-1.13163 -1.6166,2.10159 -1.7783,-0.32332 -2.1016,-5.01148 -2.9099,-3.87985 -2.9099,-5.33479 -2.5865,-3.07155 -3.5566,-3.71819 2.1016,-2.42491 3.2332,-5.49646 -0.1616,-1.6166 -4.5265,-0.96996 -1.6166,0.64664 0.3233,0.64664 2.5866,0.96996 -1.455,4.5265 -0.8083,0.48498 -1.7783,-4.04151 -1.2932,-4.84982 -0.3233,-2.74823 1.4549,-4.68815 0,-9.53797 -3.0716,-3.71819 -1.2932,-3.07155 -5.1732,-1.29328 -1.9399,-0.64664 -1.6166,-2.58657 -3.3949,-1.61661 -1.1316,-3.39487 -2.7482,-0.96996 -2.4249,-3.71819 -4.2032,-1.45494 -2.9099,-1.45495 -2.5866,0 -4.0415,0.80831 -0.1616,1.93992 0.8083,0.96996 -0.485,1.13163 -3.0716,-0.16166 -3.7181,3.55653 -3.5566,1.93992 -3.8798,0 -3.2333,1.29329 -0.3233,-2.74823 -1.6166,-1.93993 -2.9099,-1.13162 -1.6166,-1.45495 -8.083,-3.87985 -7.598,-1.77826 -4.3649,0.64664 -5.9814,0.48498 -5.9814,2.10159 -3.4793,0.61296 -0.2379,-8.04975 -2.5866,-1.93992 -1.7782,-1.77827 0.3233,-3.07156 10.1846,-1.29328 25.5424,-2.90989 6.7898,-0.64664 5.4359,0.28027 2.5866,3.87986 1.455,1.45494 8.0981,0.51522 10.8198,-0.64664 21.5124,-1.29329 5.4457,-0.67437 4.5772,0.0277 0.1617,2.90989 3.824,0.8083 0.3233,-4.80677 -1.6166,-4.52651 0.9548,-0.73272 5.1127,0.45475 z m 12.5454,132.40508 2.4249,-0.64664 1.2933,-0.24249 1.455,-2.34409 2.344,-1.61661 1.2933,0.48499 1.6975,0.32332 0.4041,1.05079 -3.4757,1.21246 -4.2032,1.45495 -2.3441,1.21246 z m 13.4987,-5.01149 1.2125,1.0508 2.7482,-2.10159 5.3348,-4.20319 3.7182,-3.87987 2.5058,-6.6281 0.9699,-1.69744 0.1617,-3.39488 -0.7275,0.48498 -0.97,2.82907 -1.4549,4.60733 -3.2332,5.254 -4.3649,4.20318 -3.3949,1.93993 z"
         inkscape:connector-curvature="0" />
      <path
         style="fill:#eedfa1;fill-opacity:1;stroke:#000000;stroke-width:1.55728543;stroke-miterlimit:4;stroke-opacity:1;stroke-dasharray:none"
         id="SouthCarolina"
         class="sc"
         d="m 1481.231,92.93785 -1.7771,0.9695 -2.5866,-1.29329 -0.6466,-2.10159 -1.2933,-3.55653 -2.2632,-2.1016 -2.5866,-0.64664 -1.6166,-4.84981 -2.7482,-5.98145 -4.2032,-1.93994 -2.1016,-1.93992 -1.2933,-2.58657 -2.1016,-1.93994 -2.2632,-1.29328 -2.2633,-2.90989 -3.0715,-2.26324 -4.5265,-1.77828 -0.485,-1.45494 -2.4249,-2.90989 -0.485,-1.45496 -3.3949,-5.17313 -3.3949,0.16166 -4.0415,-2.42492 -1.2933,-1.29328 -0.3233,-1.77827 0.8083,-1.93992 2.2633,-0.96998 -0.3234,-2.10158 6.1431,-2.58657 9.053,-4.5265 7.2748,-0.80831 16.4894,-0.48498 2.2632,1.93993 1.6166,3.23322 4.3649,-0.48498 12.6095,-1.45496 2.9099,0.80831 12.6095,7.59806 10.1081,8.12168 -5.4212,5.45834 -2.5865,6.1431 -0.485,6.30476 -1.6166,0.8083 -1.1316,2.74823 -2.4249,0.64664 -2.1016,3.55653 -2.7483,2.74823 -2.2632,3.39487 -1.6166,0.8083 -3.5565,3.39487 -2.9099,0.16166 0.9699,3.23321 -5.0114,5.49646 z"
         inkscape:connector-curvature="0" />
      <path
         style="fill:#eedfa1;fill-opacity:1;stroke:#000000;stroke-width:1.55728543;stroke-miterlimit:4;stroke-opacity:1;stroke-dasharray:none"
         id="Georgia"
         class="ga"
         d="m 1409.6165,37.97274 -4.8498,0.80831 -8.4064,1.13162 -8.568,0.88913 0,2.18242 0.1617,2.1016 0.6466,3.39487 3.3949,7.92137 2.4249,9.86131 1.4549,6.14311 1.6166,4.84981 1.455,6.95141 2.1016,6.30477 2.5865,3.39488 0.485,3.39487 1.94,0.8083 0.1616,2.1016 -1.7783,4.84981 -0.4849,3.23322 -0.1617,1.93993 1.6166,4.36484 0.3233,5.3348 -0.8083,2.42491 0.6467,0.80831 1.4549,0.8083 0.6467,3.39487 2.5865,3.87986 1.455,1.45494 7.9214,0.16166 10.8197,-0.64664 21.5124,-1.29328 5.4457,-0.67437 4.5773,0.0277 0.1616,2.90989 2.5866,0.8083 0.3233,-4.36484 -1.6166,-4.5265 1.1316,-1.6166 5.8198,0.8083 4.9774,0.31778 -0.7754,-6.29879 2.2632,-10.02295 1.455,-4.20318 -0.485,-2.58656 3.3344,-6.2443 -0.5103,-1.35168 -1.9134,0.70458 -2.5866,-1.2933 -0.6466,-2.10159 -1.2933,-3.55653 -2.2632,-2.10159 -2.5866,-0.64664 -1.6166,-4.84982 -2.925,-6.335 -4.2032,-1.93993 -2.1016,-1.93993 -1.2933,-2.58657 -2.1016,-1.93993 -2.2632,-1.29329 -2.2633,-2.90989 -3.0715,-2.26324 -4.5265,-1.77828 -0.485,-1.45494 -2.4249,-2.90989 -0.485,-1.45495 -3.3949,-4.90798 -3.3948,0.16167 -4.13,-3.04364 -1.2932,-1.29328 -0.3234,-1.77827 0.8083,-1.93992 2.3517,-1.23514 -1.134,-1.22222 0.078,-0.29088 -5.8197,0.96996 -6.9515,0.8083 z"
         inkscape:connector-curvature="0" />
    </g>
    <flowRoot
       xml:space="preserve"
       id="flowRoot3881"
       style="fill:black;stroke:none;stroke-opacity:1;stroke-width:1px;stroke-linejoin:miter;stroke-linecap:butt;fill-opacity:1;font-family:KaiTi;font-style:normal;font-weight:normal;font-size:40px;line-height:125%;letter-spacing:0px;word-spacing:0px;-inkscape-font-specification:KaiTi;font-stretch:normal;font-variant:normal"><flowRegion
         id="flowRegion3883"><rect
           id="rect3885"
           width="173.94827"
           height="43.133514"
           x="69.296463"
           y="47.473087" /></flowRegion><flowPara
         id="flowPara3887" /></flowRoot>  </g>
</svg>
