<?xml version="1.0" encoding="UTF-8" standalone="no"?>
<!-- Created with Inkscape (http://www.inkscape.org/) -->

<svg
   xmlns:dc="http://purl.org/dc/elements/1.1/"
   xmlns:cc="http://creativecommons.org/ns#"
   xmlns:rdf="http://www.w3.org/1999/02/22-rdf-syntax-ns#"
   xmlns:svg="http://www.w3.org/2000/svg"
   xmlns="http://www.w3.org/2000/svg"
   xmlns:xlink="http://www.w3.org/1999/xlink"
   xmlns:sodipodi="http://sodipodi.sourceforge.net/DTD/sodipodi-0.dtd"
   xmlns:inkscape="http://www.inkscape.org/namespaces/inkscape"
   width="80"
   height="80"
   id="svg4693"
   version="1.1"
   inkscape:version="0.48.0 r9654"
   sodipodi:docname="region13.svg"
   inkscape:export-filename="region13.png"
   inkscape:export-xdpi="90"
   inkscape:export-ydpi="90">
  <defs
     id="defs4695">
    <radialGradient
       r="128.28937"
       fy="458.89755"
       fx="364.66507"
       cy="458.89755"
       cx="364.66507"
       gradientTransform="matrix(0.713131,0.52519279,-0.43067748,0.58479374,302.24793,-0.98232581)"
       gradientUnits="userSpaceOnUse"
       id="radialGradient4658"
       xlink:href="#linearGradient3991-9"
       inkscape:collect="always" />
    <linearGradient
       id="linearGradient3991-9">
      <stop
         style="stop-color:#b9d2f0;stop-opacity:1;"
         offset="0"
         id="stop3993-4" />
      <stop
         style="stop-color:#b9d2f0;stop-opacity:0;"
         offset="1"
         id="stop3995-8" />
    </linearGradient>
    <radialGradient
       r="128.28937"
       fy="458.89755"
       fx="364.66507"
       cy="458.89755"
       cx="364.66507"
       gradientTransform="matrix(0.713131,0.52519279,-0.43067748,0.58479374,302.24793,-0.98232581)"
       gradientUnits="userSpaceOnUse"
       id="radialGradient4756-2"
       xlink:href="#linearGradient3991-9-4"
       inkscape:collect="always" />
    <linearGradient
       id="linearGradient3991-9-4">
      <stop
         style="stop-color:#b9d2f0;stop-opacity:1;"
         offset="0"
         id="stop3993-4-5" />
      <stop
         style="stop-color:#b9d2f0;stop-opacity:0;"
         offset="1"
         id="stop3995-8-5" />
    </linearGradient>
  </defs>
  <sodipodi:namedview
     id="base"
     pagecolor="#ffffff"
     bordercolor="#666666"
     borderopacity="1.0"
     inkscape:pageopacity="0.0"
     inkscape:pageshadow="2"
     inkscape:zoom="1.4142136"
     inkscape:cx="-16.25"
     inkscape:cy="44.083498"
     inkscape:document-units="px"
     inkscape:current-layer="layer1"
     showgrid="false"
     inkscape:window-width="1366"
     inkscape:window-height="706"
     inkscape:window-x="-8"
     inkscape:window-y="-8"
     inkscape:window-maximized="1" />
  <metadata
     id="metadata4698">
    <rdf:RDF>
      <cc:Work
         rdf:about="">
        <dc:format>image/svg+xml</dc:format>
        <dc:type
           rdf:resource="http://purl.org/dc/dcmitype/StillImage" />
        <dc:title />
      </cc:Work>
    </rdf:RDF>
  </metadata>
  <g
     inkscape:label="Layer 1"
     inkscape:groupmode="layer"
     id="layer1"
     transform="translate(0,-972.36218)">
    <rect
       style="fill:#000000;fill-opacity:1;stroke:#000000;stroke-width:0.22691278;stroke-miterlimit:4;stroke-opacity:0.98431373;stroke-dasharray:none"
       id="rect5301"
       width="79.773087"
       height="79.773087"
       x="0.11345639"
       y="972.47565" />
    <g
       transform="matrix(0.22222269,0,0,0.22222269,-1.8322729,988.7058)"
       id="g3951"
       style="fill:#eedfa1;fill-opacity:1;stroke:#000000;stroke-width:2.24999523;stroke-miterlimit:4;stroke-opacity:1;stroke-dasharray:none">
      <path
         inkscape:connector-curvature="0"
         style="fill:#eedfa1;fill-opacity:1;stroke:#000000;stroke-width:2.24999523;stroke-miterlimit:4;stroke-opacity:1;stroke-dasharray:none"
         id="Montana"
         class="mt"
         d="m 356.67064,122.27385 0.64782,-11.15059 2.25849,-24.787116 c 0.45725,-5.029705 1.08371,-8.472106 1.37174,-15.410066 l 0.93976,-14.551615 -30.67432,-2.807833 -29.26055,-3.55653 -29.26054,-4.041512 -32.3321,-5.334795 -18.42929,-3.39487 -32.72365,-6.932736 -4.47902,21.347532 3.42934,7.544541 -1.37174,4.572452 1.82898,4.572451 3.20073,1.371739 4.62082,10.769453 2.6951,3.176523 0.45724,1.143118 3.42934,1.143118 0.45725,2.057593 -7.0873,17.603953 0,2.51485 2.51485,3.20071 0.91448,0 4.80107,-2.97209 0.68588,-1.14312 1.60036,0.68587 -0.22863,5.25832 2.74348,12.57425 2.97209,2.51484 0.91448,0.68587 1.82899,2.28622 -0.45725,3.42935 0.68587,3.42933 1.14312,0.9145 2.28622,-2.28623 2.74347,0 3.20072,1.60036 2.51485,-0.91449 4.11521,0 3.65795,1.60036 2.74348,-0.45725 0.45724,-2.9721 2.97209,-0.68586 1.37174,1.37174 0.45725,3.20071 1.77942,1.36497 1.5334,-11.56507 20.69255,2.97209 28.18872,3.95474 16.55318,1.89712 31.44608,3.4559 10.99014,1.52407 1.05197,-15.42726 z" />
      <path
         inkscape:connector-curvature="0"
         style="fill:#eedfa1;fill-opacity:1;stroke:#000000;stroke-width:2.24999523;stroke-miterlimit:4;stroke-opacity:1;stroke-dasharray:none"
         id="Idaho"
         class="id"
         d="m 162.11948,180.95969 c -22.61088,-4.34328 -14.14727,-2.847 -21.14067,-4.35074 l 4.42704,-17.50247 4.34383,-17.71825 1.37174,-4.22952 2.51484,-5.94418 -1.25742,-2.28623 -2.51486,0.11431 -0.80017,-1.0288 0.45725,-1.14311 0.34292,-3.08641 4.45815,-5.48695 1.82898,-0.45724 1.14311,-1.14311 0.57156,-3.20072 0.91448,-0.68586 3.88659,-5.82988 3.88659,-4.34383 0.22862,-3.772268 -3.42934,-2.629163 -1.31458,-4.400983 0.40009,-9.659298 3.65796,-16.460833 4.45814,-20.804652 3.77227,-13.488722 0.76193,-3.803186 12.99614,2.528111 -4.15808,21.508013 2.94791,7.705022 -1.05078,4.572452 1.98946,4.572451 3.20072,1.692691 4.46034,9.806588 2.6951,3.818436 0.61773,1.143118 3.42934,1.143118 0.45724,2.539016 -6.92682,16.801569 0.32096,3.31723 2.67531,2.87976 1.87736,0.48143 4.80107,-3.61399 0.36492,-0.50122 0.15606,0.84636 0.25281,4.13497 2.583,12.89521 3.45352,2.67531 0.43306,0.84635 2.14993,2.4467 -0.77819,2.78744 0.68586,3.75028 1.94551,0.9145 2.12574,-1.64431 2.58299,-0.48144 3.3612,1.60036 2.51485,-0.59354 3.79426,-0.16048 3.9789,1.60036 2.74348,-0.29676 0.93868,-2.3302 2.49065,-1.64872 0.72984,1.69269 0.61771,2.23785 2.30822,2.53904 -3.77227,23.98118 -5.14406,29.00876 -4.1592,-0.3187 -8.18424,-1.53221 -9.80658,-1.82898 -12.16316,-2.37856 -12.52808,-2.50386 -8.48322,-1.83997 -9.25921,-1.6685 z" />
      <path
         inkscape:connector-curvature="0"
         style="fill:#eedfa1;fill-opacity:1;stroke:#000000;stroke-width:2.24999523;stroke-miterlimit:4;stroke-opacity:1;stroke-dasharray:none"
         id="Oregon"
         class="or"
         d="m 140.30581,176.68623 4.29765,-17.9007 4.66478,-17.87873 1.05079,-4.22952 2.35437,-5.62323 -0.61551,-1.16288 -2.51486,-0.0462 -1.2816,-1.6707 0.45724,-1.46407 0.50341,-3.24688 4.45815,-5.48695 1.82898,-1.09915 1.14311,-1.14311 1.48604,-3.56563 4.04706,-5.6694 3.56563,-3.8624 0.22862,-3.451317 -3.26886,-2.468682 -1.20889,-4.510042 -13.23829,-3.744553 -15.08909,-3.54365 -15.43202,0.114306 -0.45724,-1.371729 -5.48695,2.057604 -4.45814,-0.571559 -2.40054,-1.600361 -1.25742,0.685875 -4.68676,-0.228632 -1.714666,-1.371729 -5.258326,-2.057604 -0.800181,0.114316 -4.34383,-1.486056 -1.943291,1.828983 -6.172812,-0.342927 -5.944183,-4.115209 0.685865,-0.80018 0.228621,-7.773173 -2.286225,-3.886577 -4.115208,-0.571559 -0.685865,-2.514847 -2.353932,-0.466565 -5.798525,2.058784 -2.263247,6.466418 -3.233209,10.022949 -3.23321,6.466419 -5.011474,14.064461 -6.466419,13.579476 -8.083023,12.60952 -1.939926,2.90989 -0.808302,8.568 -1.293284,5.98144 2.708192,3.52743 6.729861,2.25122 11.591605,3.29304 7.865498,2.53904 12.413763,3.63378 13.328258,3.58982 13.167781,3.56561" />
      <g
         style="fill:#eedfa1;fill-opacity:1;stroke:#000000;stroke-width:2.24999523;stroke-miterlimit:4;stroke-opacity:1;stroke-dasharray:none"
         class="wa"
         id="Washington">
        <path
           inkscape:connector-curvature="0"
           style="fill:#eedfa1;fill-opacity:1;stroke:#000000;stroke-width:2.24999523;stroke-miterlimit:4;stroke-opacity:1;stroke-dasharray:none"
           id="WashingtonMainland"
           class="wa"
           d="m 145.76396,86.743062 c -8.37536,-2.264829 -13.49761,-3.026892 -19.23611,-2.861854 -4.30166,0.123728 -8.13462,-0.08854 -8.51776,-0.471677 -0.38314,-0.38313 -2.13131,-0.196479 -3.88481,0.414787 -1.78156,0.621051 -4.49875,0.73681 -6.15864,0.262349 -1.63375,-0.46697 -3.97844,-0.970632 -5.21045,-1.119211 -1.23202,-0.14859 -5.145693,-1.223903 -8.69712,-2.3896 -3.902802,-1.281043 -8.072964,-1.910736 -10.541795,-1.591824 -5.828181,0.752856 -9.311281,-1.724802 -8.66028,-6.160401 0.609147,-4.150213 -1.617828,-9.858787 -3.845988,-9.858787 -0.907881,0 -2.220832,-0.779632 -2.917602,-1.732521 -0.69677,-0.952879 -2.707556,-1.802936 -4.468408,-1.888983 -1.760874,-0.08607 -3.560983,-0.651763 -4.000275,-1.257115 -1.304046,-1.79701 -0.942779,-3.818505 0.682398,-3.818505 2.085157,0 3.138944,-3.214967 1.644159,-5.016077 -1.594237,-1.920966 -0.478853,-4.768187 1.867946,-4.768187 1.64554,0 1.621612,-0.233952 -0.233626,-2.283951 -1.676425,-1.852433 -2.023299,-3.727479 -1.835919,-9.924342 0.127075,-4.20219 -0.259957,-8.557807 -0.86007,-9.679127 -1.168339,-2.183065 0.50751,-10.726793 2.104074,-10.726793 0.470655,0 2.041736,1.269519 3.491308,2.82114 3.11108,3.33014 6.067298,4.962101 14.096156,7.781719 6.319798,2.219397 8.651507,2.12087 8.651507,-0.365616 0,-0.847057 0.856124,-1.501493 1.902496,-1.45429 1.13654,0.05127 1.355382,0.306585 0.54357,0.634162 -0.747409,0.301573 -1.358925,1.258604 -1.358925,2.126707 0,1.766669 3.131714,6.9375 4.201809,6.937674 1.247004,2.18e-4 0.545864,-16.792971 -0.806583,-19.319323 -2.114879,-3.9505159 -0.611136,-4.4840301 6.648798,-2.3590619 12.30039,3.6003049 47.87234,12.8877129 60.62011,15.8271669 6.87616,1.585551 12.63343,2.988951 12.79391,3.118658 0.16047,0.129696 -0.6942,3.365939 -1.89932,7.19163 -3.02537,9.604223 -10.89459,46.796548 -10.89459,51.491374 0,4.628457 0.24328,4.621413 -15.21997,0.43989 l 0,-1.1e-5 z" />
        <path
           inkscape:connector-curvature="0"
           style="fill:#eedfa1;fill-opacity:1;stroke:#000000;stroke-width:2.24999523;stroke-miterlimit:4;stroke-opacity:1;stroke-dasharray:none"
           id="Washington2"
           class="wa"
           d="m 93.573239,6.3617734 4.364832,1.4549443 9.699629,2.7482283 8.568,1.939925 20.0459,5.658117 22.95579,5.658116 15.16062,3.394673 -1.00428,3.884052 -4.09322,13.809674 -4.45813,20.804652 -3.17654,16.139881 -0.35155,9.37877 -13.18114,-3.894036 -15.57051,-3.383179 -13.66679,0.595738 -1.58057,-1.532199 -5.32647,1.897123 -3.97671,-0.250608 -2.7215,-1.760831 -1.57837,0.525394 -4.205327,-0.228632 -1.875148,-1.37173 -4.776893,-1.736652 -1.442084,-0.206636 -4.985743,-1.325574 -1.782813,1.50802 -5.691381,-0.342927 -4.820844,-3.794246 0.204433,-0.80018 0.06814,-7.933655 -2.125749,-3.886576 -4.115208,-0.73204 -0.36491,-2.354366 -2.514408,-0.627046 -2.881537,-0.534882 -1.778265,0.969963 -2.263247,-2.909888 0.323321,-2.909889 2.748228,-0.323321 1.616605,-4.041511 -2.586568,-1.131624 0.161661,-3.718191 4.364833,-0.646641 -2.748228,-2.748228 -1.454945,-7.113061 0.646642,-2.909888 0,-7.921363 -1.778265,-3.23321 2.263247,-9.376307 2.101586,0.484981 2.424907,2.909889 2.748228,2.586567 3.233209,1.939926 4.526493,2.101586 3.071551,0.646642 2.909889,1.454944 3.394873,0.969963 2.263246,-0.16166 0,-2.424908 1.293284,-1.131623 2.101586,-1.293284 0.323321,1.131624 0.323321,1.778265 -2.263247,0.484981 -0.323321,2.101586 1.778266,1.454945 1.131623,2.424907 0.646642,1.939925 1.454944,-0.16166 0.16166,-1.293284 -0.969962,-1.293284 -0.484982,-3.233209 0.808302,-1.778265 -0.646641,-1.454944 0,-2.263247 1.778265,-3.55653 -1.131624,-2.586568 -2.424907,-4.8498139 0.323321,-0.8083023 z m -9.456691,5.9789646 2.020764,-0.16166 0.484982,1.374119 1.535779,-1.616615 2.344082,0 0.808303,1.535779 -1.53578,1.69744 0.646652,0.808313 -0.727477,2.020761 -1.374119,0.404146 c 0,0 -0.889138,0.08084 -0.889138,-0.242485 0,-0.323321 1.454955,-2.586578 1.454955,-2.586578 l -1.69744,-0.565817 -0.323321,1.454954 -0.727478,0.646642 -1.535782,-2.263257 z" />
      </g>
    </g>
  </g>
</svg>
