<?xml version="1.0" encoding="UTF-8" standalone="no"?>
<!-- Created with Inkscape (http://www.inkscape.org/) -->

<svg
   xmlns:dc="http://purl.org/dc/elements/1.1/"
   xmlns:cc="http://creativecommons.org/ns#"
   xmlns:rdf="http://www.w3.org/1999/02/22-rdf-syntax-ns#"
   xmlns:svg="http://www.w3.org/2000/svg"
   xmlns="http://www.w3.org/2000/svg"
   xmlns:xlink="http://www.w3.org/1999/xlink"
   xmlns:sodipodi="http://sodipodi.sourceforge.net/DTD/sodipodi-0.dtd"
   xmlns:inkscape="http://www.inkscape.org/namespaces/inkscape"
   width="80"
   height="80"
   id="svg4693"
   version="1.1"
   inkscape:version="0.48.0 r9654"
   sodipodi:docname="region01.svg"
   inkscape:export-filename="region01.png"
   inkscape:export-xdpi="90"
   inkscape:export-ydpi="90">
  <defs
     id="defs4695">
    <radialGradient
       r="128.28937"
       fy="458.89755"
       fx="364.66507"
       cy="458.89755"
       cx="364.66507"
       gradientTransform="matrix(0.713131,0.52519279,-0.43067748,0.58479374,302.24793,-0.98232581)"
       gradientUnits="userSpaceOnUse"
       id="radialGradient4658"
       xlink:href="#linearGradient3991-9"
       inkscape:collect="always" />
    <linearGradient
       id="linearGradient3991-9">
      <stop
         style="stop-color:#b9d2f0;stop-opacity:1;"
         offset="0"
         id="stop3993-4" />
      <stop
         style="stop-color:#b9d2f0;stop-opacity:0;"
         offset="1"
         id="stop3995-8" />
    </linearGradient>
    <radialGradient
       r="128.28937"
       fy="458.89755"
       fx="364.66507"
       cy="458.89755"
       cx="364.66507"
       gradientTransform="matrix(0.713131,0.52519279,-0.43067748,0.58479374,302.24793,-0.98232581)"
       gradientUnits="userSpaceOnUse"
       id="radialGradient4756-2"
       xlink:href="#linearGradient3991-9-4"
       inkscape:collect="always" />
    <linearGradient
       id="linearGradient3991-9-4">
      <stop
         style="stop-color:#b9d2f0;stop-opacity:1;"
         offset="0"
         id="stop3993-4-5" />
      <stop
         style="stop-color:#b9d2f0;stop-opacity:0;"
         offset="1"
         id="stop3995-8-5" />
    </linearGradient>
  </defs>
  <sodipodi:namedview
     id="base"
     pagecolor="#ffffff"
     bordercolor="#666666"
     borderopacity="1.0"
     inkscape:pageopacity="0.0"
     inkscape:pageshadow="2"
     inkscape:zoom="1"
     inkscape:cx="-16.25"
     inkscape:cy="45.73024"
     inkscape:document-units="px"
     inkscape:current-layer="layer1"
     showgrid="false"
     inkscape:window-width="1366"
     inkscape:window-height="706"
     inkscape:window-x="-8"
     inkscape:window-y="-8"
     inkscape:window-maximized="1" />
  <metadata
     id="metadata4698">
    <rdf:RDF>
      <cc:Work
         rdf:about="">
        <dc:format>image/svg+xml</dc:format>
        <dc:type
           rdf:resource="http://purl.org/dc/dcmitype/StillImage" />
        <dc:title></dc:title>
      </cc:Work>
    </rdf:RDF>
  </metadata>
  <g
     inkscape:label="Layer 1"
     inkscape:groupmode="layer"
     id="layer1"
     transform="translate(0,-972.36218)">
    <rect
       style="fill:#000000;fill-opacity:1;stroke:#000000;stroke-width:0.22691278;stroke-miterlimit:4;stroke-opacity:0.98431373;stroke-dasharray:none"
       id="rect5301"
       width="79.773087"
       height="79.773087"
       x="0.11345639"
       y="972.47565" />
    <g
       id="g4718"
       transform="matrix(0.47281927,0,0,0.47281927,-97.2632,712.51991)"
       style="fill:#eedfa1;fill-opacity:1;stroke:#000000;stroke-width:0.99623734;stroke-miterlimit:4;stroke-opacity:1;stroke-dasharray:none">
      <path
         style="fill:#eedfa1;fill-opacity:1;stroke:#000000;stroke-width:0.99623734;stroke-miterlimit:4;stroke-opacity:1;stroke-dasharray:none"
         id="RhodeIsland"
         class="ri"
         d="m 283.3551,698.57755 -0.48295,-4.2044 -0.8083,-4.36484 -1.69743,-5.90061 5.73895,-1.53578 1.6166,1.13162 3.39488,4.36484 2.90887,4.44629 -2.91095,1.5364 -1.29328,-0.16166 -1.13162,1.77827 -2.42491,1.93992 z"
         inkscape:connector-curvature="0" />
      <path
         style="fill:#eedfa1;fill-opacity:1;stroke:#000000;stroke-width:0.99623734;stroke-miterlimit:4;stroke-opacity:1;stroke-dasharray:none"
         id="Connecticut"
         class="ct"
         d="m 282.4784,698.80449 -0.62752,-4.20439 -0.8083,-4.36484 -1.61661,-5.98145 -4.15188,0.90468 -21.82421,4.76898 0.64664,3.31406 1.45495,7.27474 0,8.08303 -1.13163,2.26326 1.8324,2.10912 4.95535,-3.4012 3.55653,-3.23321 1.93992,-2.10159 0.80831,0.64664 2.74822,-1.45494 5.17314,-1.13162 z"
         inkscape:connector-curvature="0" />
      <path
         style="fill:#eedfa1;fill-opacity:1;stroke:#000000;stroke-width:0.99623734;stroke-miterlimit:4;stroke-opacity:1;stroke-dasharray:none"
         id="Massachusetts"
         class="ma"
         d="m 309.26213,692.60532 2.17192,-0.68588 0.45726,-1.71467 1.0288,0.11431 1.0288,2.28624 -1.25742,0.45724 -3.8866,0.11432 z m -9.37354,0.80018 2.28622,-2.62917 1.60037,0 1.82899,1.48605 -2.40054,1.0288 -2.17192,1.0288 z m -34.79913,-21.98819 17.45937,-4.20318 2.26326,-0.64664 2.10158,-3.23321 3.73677,-1.66331 2.88924,4.41284 -2.42491,5.17314 -0.32332,1.45494 1.93993,2.58657 1.13162,-0.8083 1.77827,0 2.26324,2.58656 3.87986,5.98144 3.55653,0.48498 2.26324,-0.96996 1.77827,-1.77827 -0.80831,-2.74822 -2.10158,-1.61661 -1.45495,0.8083 -0.96996,-1.29328 0.48498,-0.48498 2.10159,-0.16166 1.77826,0.8083 1.93993,2.42491 0.96996,2.90989 0.32332,2.4249 -4.20317,1.45495 -3.87985,1.93992 -3.87985,4.5265 -1.93993,1.45494 0,-0.96996 2.42491,-1.45495 0.48498,-1.77826 -0.8083,-3.07155 -2.90989,1.45494 -0.8083,1.45495 0.48498,2.26324 -2.06633,1.00043 -2.7472,-4.52713 -3.39488,-4.36484 -2.0705,-1.81247 -6.53327,1.8762 -5.09233,1.05079 -21.82421,4.76899 -0.40259,-4.94463 0.64664,-10.58877 5.17315,-0.88914 z"
         inkscape:connector-curvature="0" />
      <path
         style="fill:#eedfa1;fill-opacity:1;stroke:#000000;stroke-width:0.99623734;stroke-miterlimit:4;stroke-opacity:1;stroke-dasharray:none"
         id="Maine"
         class="me"
         d="m 332.49985,596.08482 1.93993,2.10159 2.26325,3.71819 0,1.93992 -2.10159,4.68816 -1.93993,0.64664 -3.39487,3.07155 -4.84981,5.49645 c 0,0 -0.64664,0 -1.29328,0 -0.64664,0 -0.96997,-2.10158 -0.96997,-2.10158 l -1.77826,0.16166 -0.96996,1.45494 -2.42491,1.45495 -0.96996,1.45494 1.6166,1.45494 -0.48498,0.64665 -0.48498,2.74822 -1.93993,-0.16166 0,-1.6166 -0.32332,-1.29329 -1.45494,0.32333 -1.77827,-3.23321 -2.10158,1.29328 1.29328,1.45494 0.32332,1.13163 -0.8083,1.29328 0.32332,3.07155 0.16166,1.6166 -1.6166,2.58657 -2.90989,0.48498 -0.32332,2.90989 -5.3348,3.07155 -1.29328,0.48498 -1.61661,-1.45494 -3.07155,3.55653 0.96997,3.23321 -1.45495,1.29328 -0.16166,4.36483 -1.12328,6.25937 -2.46225,-1.15595 -0.48499,-3.07157 -3.87985,-1.13163 -0.32332,-2.74824 -7.27475,-23.44082 -4.19858,-13.63974 1.42054,-0.11817 1.51379,0.4099 0,-2.58656 0.8083,-5.49646 2.58657,-4.68815 1.45495,-4.04152 -1.93993,-2.4249 0,-5.98144 0.8083,-0.96996 0.80831,-2.74823 -0.16166,-1.45494 -0.16167,-4.84982 1.77827,-4.84981 2.90989,-8.89133 2.10158,-4.20317 1.29329,0 1.29328,0.16166 0,1.13162 1.29329,2.26325 2.74822,0.64664 0.80831,-0.8083 0,-0.96996 4.04151,-2.90989 1.77826,-1.77827 1.45495,0.16166 5.98143,2.42491 1.93993,0.96996 9.05299,29.90719 5.98143,0 0.80831,1.93993 0.16166,4.84981 2.90988,2.26325 0.80831,0 0.16166,-0.48499 -0.48498,-1.13162 z m -20.93175,30.14753 1.53578,-1.53578 1.37412,1.0508 0.56581,2.42492 -1.69744,0.88913 z m 6.70893,-5.90062 1.77827,1.8591 c 0,0 1.29329,0.0808 1.29329,-0.2425 0,-0.32332 0.24249,-2.02076 0.24249,-2.02076 l 0.88914,-0.8083 -0.80831,-1.77828 -2.02076,0.72748 z"
         inkscape:connector-curvature="0" />
      <path
         style="fill:#eedfa1;fill-opacity:1;stroke:#000000;stroke-width:0.99623734;stroke-miterlimit:4;stroke-opacity:1;stroke-dasharray:none"
         id="NewHampshire"
         class="nh"
         d="m 290.08411,661.17887 0.869,-1.0765 1.09022,-3.29102 -2.54308,-0.91347 -0.48499,-3.07157 -3.87985,-1.13162 -0.32332,-2.74824 -7.27475,-23.44082 -4.60142,-14.54299 -0.89708,-0.005 -0.64664,1.61661 -0.64664,-0.48498 -0.96997,-0.96997 -1.45494,1.93993 -0.0485,5.03205 0.31165,5.66722 1.93992,2.74824 0,4.04152 -3.7182,5.06278 -2.58657,1.13164 0,1.13162 1.13163,1.77827 0,8.56802 -0.80831,9.21468 -0.16166,4.84982 0.96997,1.2933 -0.16166,4.52649 -0.48499,1.77828 1.45495,0.886 16.38992,-4.68972 2.26326,-0.64664 1.53421,-2.55236 z"
         inkscape:connector-curvature="0" />
      <path
         style="fill:#eedfa1;fill-opacity:1;stroke:#000000;stroke-width:0.99623734;stroke-miterlimit:4;stroke-opacity:1;stroke-dasharray:none"
         id="Vermont"
         class="vt"
         d="m 253.62864,672.48054 -0.8083,-5.65813 -2.39071,-9.97167 -0.64664,-0.32332 -2.9099,-1.29329 0.8083,-2.9099 -0.8083,-2.10159 -2.70005,-4.63998 0.96997,-3.87986 -0.80831,-5.17315 -2.42491,-6.46644 -0.80557,-4.92251 26.24748,-6.74744 0.32433,5.81908 1.93993,2.74824 0,4.04152 -3.7182,4.04152 -2.58657,1.13163 0,1.13162 1.13162,1.77827 0,8.56802 -0.8083,9.21468 -0.16166,4.84983 0.96996,1.29329 -0.16166,4.52649 -0.48498,1.77828 0.66062,1.56685 -6.95141,1.37413 z"
         inkscape:connector-curvature="0" />
    </g>
  </g>
</svg>
